SplineFontDB: 3.0
FontName: BoonJot-Italic
FullName: BoonJot Italic
FamilyName: BoonJot
Weight: 400
Copyright: Copyright 2015-2017, Sungsit Sawaiwan (https://fontuni.com | uni@fontuni.com). This Font Software is licensed under the SIL Open Font License, Version 1.1 (http://scripts.sil.org/OFL).
FontLog: "BoonJot is left-handed comic sans, I supposed. It+IBkA-s machine-made family with unique stroke speed, pen shape & drawing direction especially Thai glyphs. +AAoACgAA-ChangeLog+AAoACgAA-v1.0-beta2:+AAoA-- Improved kerning+AAoACgAA-v1.0-beta1: 10 July 2015+AAoA-- Added Latin kerning+AAoACgAA-v1.0-alpha2: 5 July 2015+AAoA-- Improved Thai OpenType features+AAoA-- Added more essential OpenType features+AAoACgAA-v1.0-alpha1: 2 July 2015+AAoA-- Renamed from BoonThing to BoonJot+AAoA-- Added full Adobe Latin-4 +- Thai glyphs+AAoA-- Added basic OpenType features"
Version: 2.0
ItalicAngle: -9
UnderlinePosition: -90
UnderlineWidth: 30
Ascent: 960
Descent: 240
InvalidEm: 0
UFOAscent: 960
UFODescent: -240
LayerCount: 3
Layer: 0 0 "Back" 1
Layer: 1 0 "Fore" 0
Layer: 2 0 "400" 0
StyleMap: 0x0001
FSType: 0
OS2Version: 1
OS2_WeightWidthSlopeOnly: 0
OS2_UseTypoMetrics: 0
CreationTime: 1435153839
ModificationTime: 1486210341
PfmFamily: 65
TTFWeight: 400
TTFWidth: 5
LineGap: 90
VLineGap: 0
Panose: 2 0 6 3 0 0 0 0 0 0
OS2TypoAscent: 960
OS2TypoAOffset: 0
OS2TypoDescent: -240
OS2TypoDOffset: 0
OS2TypoLinegap: 90
OS2WinAscent: 1320
OS2WinAOffset: 0
OS2WinDescent: 480
OS2WinDOffset: 0
HheadAscent: 1320
HheadAOffset: 0
HheadDescent: -480
HheadDOffset: 0
OS2FamilyClass: 2566
OS2Vendor: 'FUni'
OS2CodePages: 20010193.00000000
OS2UnicodeRanges: a10000ff.5000207b.00000000.00000000
MarkAttachClasses: 1
DEI: 91125
LangName: 1033 "" "" "" "" "" "" "" "" "FontUni" "Sungsit Sawaiwan" "" "https://fontuni.com/" "https://sungsit.com/" "" "http://scripts.sil.org/OFL" "" "BoonJot"
Encoding: UnicodeFull
Compacted: 1
UnicodeInterp: none
NameList: Adobe Glyph List
DisplaySize: -48
DisplayLayer: 2

StartChar: .notdef
Encoding: 1114112 -1 0
Width: 720
VWidth: 0
Flags: HMW
LayerCount: 3
Layer: 2
SplineSet
545 564 m 1
 495 563 421 562 352 562 c 0
 309 562 268 562 236 563 c 1
 216 415 189 216 167 44 c 1
 219 41 276 40 330 40 c 0
 378 40 424 41 460 43 c 1
 474 153 498 322 519 452 c 0
 525 489 531 522 535 550 c 0
 536 555 539 560 545 564 c 1
586 571 m 1
 593 568 596 563 596 558 c 0
 596 557 596 557 596 556 c 0
 591 526 585 491 579 452 c 0
 557 314 532 136 518 29 c 0
 516 19 502 7 483 5 c 0
 440 1 382 0 318 0 c 0
 254 0 186 1 125 5 c 0
 113 6 104 12 104 20 c 0
 104 21 l 0
 127 205 157 425 179 581 c 0
 179 584 183 605 216 605 c 0
 217 605 218 605 220 605 c 0
 246 604 290 603 339 603 c 0
 423 603 523 605 577 606 c 0
 591 606 599 601 599 592 c 0
 599 591 599 590 599 589 c 0
 599 588 599 587 599 586 c 0
 597 581 593 575 586 571 c 1
EndSplineSet
EndChar

StartChar: uni25CC
Encoding: 9676 9676 4
Width: 720
VWidth: 0
GlyphClass: 2
Flags: HMW
LayerCount: 3
Layer: 2
SplineSet
332 31 m 256
 333 30 337 25 337 17 c 0
 337 16 337 15 337 13 c 258
 336 7 l 258
 332 -4 316 -20 293 -20 c 256
 274 -20 266 -9 266 3 c 0
 266 16 279 40 310 40 c 256
 312 40 315 39 317 39 c 258
 324 37 l 258
 328 36 330 33 332 31 c 256
424 611 m 256
 425 610 429 605 429 597 c 0
 429 596 429 595 429 593 c 258
 428 587 l 258
 424 576 408 560 385 560 c 256
 366 560 358 571 358 583 c 0
 358 596 371 620 402 620 c 256
 404 620 407 619 409 619 c 258
 416 617 l 258
 420 616 422 613 424 611 c 256
621 327 m 256
 622 328 629 335 640 335 c 258
 646 335 l 258
 656 333 668 322 668 304 c 0
 668 302 667 299 667 296 c 256
 664 275 648 265 635 265 c 256
 626 265 607 273 607 296 c 0
 607 299 608 301 608 304 c 256
 608 306 610 309 610 311 c 258
 613 318 l 258
 615 322 619 325 621 327 c 256
41 327 m 256
 42 328 49 335 60 335 c 258
 66 335 l 258
 76 333 88 322 88 304 c 0
 88 302 87 299 87 296 c 256
 84 275 68 265 55 265 c 256
 46 265 27 273 27 296 c 0
 27 299 28 301 28 304 c 256
 28 306 30 309 30 311 c 258
 33 318 l 258
 35 322 39 325 41 327 c 256
471 81 m 256
 472 81 481 79 485 69 c 258
 487 64 l 258
 487 63 487 62 487 61 c 0
 487 59 487 57 487 55 c 256
 485 44 477 30 460 21 c 256
 454 18 447 16 442 16 c 256
 431 16 424 22 421 29 c 256
 420 31 419 35 419 40 c 0
 419 42 419 43 419 45 c 256
 421 55 428 68 445 77 c 256
 447 78 451 78 453 79 c 258
 460 81 l 258
 462 81 464 82 466 82 c 256
 468 82 469 81 471 81 c 256
260 583 m 256
 261 583 270 581 274 571 c 258
 277 566 l 258
 277 566 277 566 277 565 c 0
 277 563 276 559 276 557 c 256
 274 546 267 532 250 523 c 256
 244 520 236 518 231 518 c 256
 220 518 213 524 210 531 c 256
 209 533 208 536 208 539 c 0
 208 541 209 545 209 547 c 256
 211 557 218 570 235 579 c 256
 237 580 240 581 242 582 c 258
 249 584 l 258
 250 584 251 584 252 584 c 256
 255 584 258 584 260 583 c 256
592 458 m 256
 592 459 595 468 606 474 c 258
 612 477 l 258
 614 478 618 478 621 478 c 256
 632 478 645 473 651 457 c 256
 653 452 654 447 654 442 c 0
 654 441 654 440 654 439 c 256
 652 428 645 420 637 416 c 256
 634 414 626 412 620 412 c 256
 610 412 598 417 592 433 c 256
 591 435 592 438 591 440 c 258
 590 447 l 258
 590 449 590 451 590 453 c 256
 590 455 592 456 592 458 c 256
44 168 m 256
 44 169 47 178 58 184 c 258
 64 187 l 258
 66 188 70 188 73 188 c 256
 84 188 97 183 103 167 c 256
 105 162 106 157 106 152 c 0
 106 151 106 150 106 149 c 256
 104 138 97 130 89 126 c 256
 86 124 78 122 72 122 c 256
 62 122 50 127 44 143 c 256
 43 145 43 148 42 150 c 258
 41 157 l 258
 41 158 41 159 41 160 c 256
 41 163 43 166 44 168 c 256
198 54 m 256
 198 53 198 50 197 46 c 256
 197 43 196 38 192 34 c 258
 189 29 l 258
 184 23 173 19 162 19 c 256
 155 19 148 20 141 25 c 256
 131 31 128 41 128 49 c 0
 128 50 128 51 128 52 c 256
 129 57 130 60 133 64 c 256
 137 70 149 79 164 79 c 256
 170 79 178 78 185 73 c 256
 187 72 188 69 190 68 c 258
 194 63 l 258
 197 60 197 57 198 54 c 256
567 556 m 256
 567 555 567 554 567 552 c 0
 567 551 567 549 567 548 c 256
 567 545 566 540 562 536 c 258
 558 531 l 258
 553 525 543 521 532 521 c 256
 525 521 517 522 510 527 c 256
 501 533 498 542 498 550 c 0
 498 551 498 553 498 554 c 256
 499 559 500 562 503 566 c 256
 507 572 518 581 533 581 c 256
 539 581 547 580 554 575 c 256
 556 574 557 572 559 571 c 258
 564 566 l 258
 567 563 566 559 567 556 c 256
576 189 m 256
 577 189 580 190 584 190 c 256
 587 190 592 190 596 187 c 258
 600 184 l 258
 604 181 607 174 607 166 c 0
 607 164 606 161 606 159 c 256
 605 152 603 145 597 137 c 256
 588 125 576 120 567 120 c 256
 562 120 559 121 555 123 c 256
 550 126 545 133 545 145 c 0
 545 147 545 149 545 151 c 256
 546 157 548 165 554 173 c 256
 555 175 559 177 560 179 c 258
 566 184 l 258
 569 187 573 188 576 189 c 256
120 479 m 256
 121 479 124 480 128 480 c 256
 131 480 136 480 140 477 c 258
 144 474 l 258
 148 471 151 464 151 456 c 0
 151 454 150 451 150 449 c 256
 149 442 147 435 141 427 c 256
 132 415 120 410 111 410 c 256
 106 410 103 411 99 413 c 256
 94 416 89 423 89 435 c 0
 89 437 89 439 89 441 c 256
 90 447 92 455 98 463 c 256
 99 465 102 467 103 469 c 258
 109 474 l 258
 112 477 117 478 120 479 c 256
EndSplineSet
EndChar

StartChar: exclam
Encoding: 33 33 5
Width: 330
VWidth: 0
GlyphClass: 2
Flags: HMW
LayerCount: 3
Layer: 2
SplineSet
189 112 m 256
 190 110 201 98 201 79 c 0
 201 76 200 74 200 71 c 256
 199 67 199 62 197 58 c 256
 188 32 149 -5 94 -5 c 256
 49 -5 29 20 29 47 c 0
 29 50 30 53 30 56 c 256
 34 79 64 132 136 132 c 256
 142 132 148 131 152 130 c 258
 167 126 l 258
 177 123 185 118 189 112 c 256
207 828 m 258
 248 835 l 258
 251 836 255 836 259 836 c 256
 273 836 289 831 289 816 c 0
 289 815 289 813 289 812 c 258
 288 811 l 258
 272 725 253 574 193 303 c 256
 189 285 158 268 135 268 c 256
 121 268 111 274 111 290 c 0
 111 292 112 293 112 295 c 256
 126 433 164 709 167 794 c 256
 167 795 167 795 167 796 c 256
 169 811 189 825 207 828 c 258
EndSplineSet
EndChar

StartChar: quotedbl
Encoding: 34 34 6
Width: 510
VWidth: 0
GlyphClass: 2
Flags: HMW
LayerCount: 3
Layer: 2
SplineSet
420 838 m 258
 439 839 l 258
 440 839 440 839 441 839 c 256
 460 839 472 829 472 817 c 0
 472 734 433 614 424 586 c 256
 420 571 390 553 368 553 c 256
 355 553 345 559 345 576 c 0
 345 620 362 717 371 804 c 256
 371 805 372 805 372 806 c 256
 374 818 388 836 420 838 c 258
222 836 m 258
 242 837 l 258
 243 837 243 837 244 837 c 256
 263 837 275 827 275 815 c 0
 275 732 240 609 230 581 c 256
 226 566 196 548 174 548 c 256
 161 548 151 554 151 571 c 0
 151 614 165 714 174 802 c 256
 174 803 174 803 174 804 c 256
 176 816 190 834 222 836 c 258
EndSplineSet
EndChar

StartChar: numbersign
Encoding: 35 35 7
Width: 720
VWidth: 0
GlyphClass: 2
Flags: HMW
LayerCount: 3
Layer: 2
SplineSet
376 829 m 256
 395 829 406 820 406 807 c 0
 406 805 406 803 406 801 c 256
 380 718 355 644 332 574 c 257
 396 573 458 573 523 573 c 257
 548 646 571 723 599 809 c 256
 604 825 627 839 648 839 c 256
 667 839 678 830 678 817 c 0
 678 815 677 813 677 811 c 256
 649 724 626 647 601 574 c 257
 631 574 663 574 697 574 c 256
 715 574 726 565 726 552 c 0
 726 549 725 547 725 545 c 256
 719 529 697 516 676 516 c 256
 643 516 611 516 581 516 c 257
 556 441 531 369 504 294 c 257
 538 294 574 294 613 294 c 256
 631 294 642 285 642 272 c 0
 642 269 641 267 641 265 c 256
 635 249 612 236 591 236 c 256
 552 236 517 236 483 236 c 257
 458 166 431 92 401 10 c 256
 395 -6 372 -19 351 -19 c 256
 333 -19 322 -10 322 3 c 0
 322 6 323 8 323 10 c 256
 353 92 380 166 405 235 c 257
 340 235 280 235 215 236 c 257
 188 163 161 87 129 0 c 256
 123 -16 100 -29 79 -29 c 256
 61 -29 50 -20 50 -7 c 0
 50 -4 51 -2 51 0 c 256
 83 87 111 165 138 238 c 257
 104 239 69 240 30 241 c 256
 12 242 2 251 2 263 c 0
 2 267 4 268 4 271 c 256
 10 286 33 299 53 299 c 256
 54 299 54 299 55 299 c 256
 92 298 126 297 159 296 c 257
 186 371 211 443 236 518 c 257
 198 519 159 520 115 521 c 256
 97 522 86 531 86 543 c 0
 86 547 88 548 88 551 c 256
 94 566 118 579 138 579 c 256
 139 579 139 579 140 579 c 256
 182 578 219 577 255 576 c 257
 278 645 302 718 328 799 c 256
 333 815 355 829 376 829 c 256
313 516 m 257
 288 441 264 370 237 295 c 257
 302 294 360 293 425 293 c 257
 452 368 479 440 504 515 c 257
 439 515 377 515 313 516 c 257
EndSplineSet
EndChar

StartChar: dollar
Encoding: 36 36 8
Width: 720
VWidth: 0
GlyphClass: 2
Flags: HMW
LayerCount: 3
Layer: 2
SplineSet
447 926 m 256
 449 926 450 926 452 926 c 256
 469 926 480 918 480 907 c 0
 480 878 470 848 466 822 c 257
 467 822 469 822 470 822 c 256
 596 822 659 752 659 672 c 0
 659 664 658 656 657 648 c 256
 656 640 653 633 651 625 c 256
 645 604 613 585 584 584 c 256
 583 584 583 584 582 584 c 256
 558 584 542 596 542 613 c 0
 542 616 542 618 542 621 c 256
 544 626 545 631 546 636 c 256
 547 641 547 647 547 652 c 0
 547 701 509 739 453 744 c 257
 435 637 418 541 403 448 c 257
 447 432 492 415 511 408 c 256
 608 375 650 311 650 243 c 0
 650 234 649 225 648 216 c 256
 641 174 619 131 585 94 c 256
 530 35 441 -13 337 -21 c 257
 334 -45 330 -70 327 -95 c 258
 327 -96 l 258
 325 -110 305 -123 286 -126 c 256
 284 -126 281 -127 279 -127 c 256
 263 -127 251 -117 251 -106 c 0
 251 -77 259 -47 262 -20 c 257
 136 -8 64 60 43 147 c 256
 43 148 43 149 43 150 c 0
 43 152 43 155 43 157 c 256
 46 174 65 192 90 199 c 256
 98 201 106 202 113 202 c 256
 133 202 148 194 152 179 c 256
 166 119 208 78 273 63 c 257
 288 176 301 276 317 375 c 257
 285 387 256 398 240 404 c 256
 145 438 101 499 101 565 c 0
 101 573 102 582 103 590 c 256
 105 601 108 611 112 622 c 256
 144 709 249 793 391 816 c 257
 395 842 401 868 405 896 c 256
 407 910 427 924 447 926 c 256
334 474 m 257
 347 558 362 643 378 738 c 257
 293 722 239 674 220 622 c 256
 218 615 215 609 214 602 c 256
 213 597 213 593 213 588 c 0
 213 546 241 506 310 482 c 256
 317 480 324 477 334 474 c 257
388 350 m 257
 373 258 360 163 346 56 c 257
 411 59 463 86 497 124 c 256
 519 148 533 176 537 203 c 256
 538 209 538 214 538 220 c 0
 538 265 510 308 442 330 c 256
 431 334 412 341 388 350 c 257
EndSplineSet
EndChar

StartChar: percent
Encoding: 37 37 9
Width: 720
VWidth: 0
GlyphClass: 2
Flags: HMW
LayerCount: 3
Layer: 2
SplineSet
713 790 m 0
 725 787 731 780 731 772 c 0
 731 771 731 771 731 770 c 0
 730 766 729 762 725 758 c 0
 536 539 256 222 68 27 c 0
 57 17 39 9 23 9 c 0
 19 9 16 10 12 11 c 0
 0 14 -4 21 -4 28 c 0
 -4 29 -4 29 -4 30 c 0
 -3 34 -2 39 3 43 c 0
 189 236 468 553 657 772 c 0
 667 784 686 791 703 791 c 0
 707 791 710 791 713 790 c 0
243 735 m 1
 232 748 219 751 217 751 c 0
 217 751 192 750 167 695 c 0
 159 676 151 653 147 625 c 0
 145 613 144 602 144 592 c 0
 144 522 185 496 195 496 c 0
 195 496 214 496 239 550 c 0
 248 569 256 593 261 623 c 0
 262 632 263 641 263 650 c 0
 263 678 256 703 245 714 c 0
 242 716 241 720 241 724 c 0
 241 725 241 727 241 728 c 0
 241 730 242 733 243 735 c 1
324 741 m 1
 338 722 343 697 343 670 c 0
 343 658 342 646 340 633 c 0
 335 601 328 574 317 550 c 0
 292 495 241 444 170 444 c 0
 98 444 63 497 63 571 c 0
 63 585 65 600 67 615 c 0
 72 646 79 672 90 695 c 0
 116 753 169 803 241 803 c 0
 284 803 310 783 325 759 c 0
 326 757 327 754 327 751 c 0
 327 750 327 749 327 748 c 0
 327 746 325 743 324 741 c 1
562 285 m 1
 551 298 538 301 536 301 c 0
 536 301 511 300 486 245 c 0
 478 226 470 203 466 175 c 0
 464 163 463 151 463 141 c 0
 463 71 503 46 513 46 c 0
 513 46 533 46 558 100 c 0
 567 119 574 143 579 173 c 0
 581 183 581 192 581 202 c 0
 581 229 575 254 564 264 c 0
 561 266 560 270 560 274 c 0
 560 275 560 277 560 278 c 0
 560 280 561 283 562 285 c 1
643 291 m 1
 657 272 662 247 662 220 c 0
 662 208 661 196 659 183 c 0
 654 151 647 124 636 100 c 0
 611 45 560 -6 489 -6 c 0
 417 -6 382 47 382 121 c 0
 382 135 384 150 386 165 c 0
 391 196 398 222 409 245 c 0
 435 303 488 353 560 353 c 0
 603 353 629 333 644 309 c 0
 645 307 646 304 646 301 c 0
 646 300 646 299 646 298 c 0
 646 296 644 293 643 291 c 1
EndSplineSet
EndChar

StartChar: ampersand
Encoding: 38 38 10
Width: 800
VWidth: 0
GlyphClass: 2
Flags: HMW
LayerCount: 3
Layer: 2
SplineSet
367 475 m 257
 425 519 467 575 485 624 c 256
 489 636 492 647 494 657 c 256
 495 663 495 669 495 674 c 0
 495 714 470 734 429 734 c 256
 416 734 408 732 402 730 c 256
 378 721 354 681 346 629 c 256
 344 616 343 602 343 588 c 0
 343 552 350 514 367 475 c 257
662 399 m 256
 686 399 703 386 703 370 c 0
 703 366 701 363 701 360 c 256
 677 298 642 226 592 161 c 257
 628 115 663 71 696 34 c 256
 700 30 702 25 702 19 c 0
 702 18 702 17 702 16 c 256
 700 5 690 -8 675 -16 c 256
 664 -22 651 -25 639 -25 c 256
 626 -25 614 -21 607 -14 c 256
 581 16 551 49 523 85 c 257
 449 18 356 -29 237 -29 c 256
 101 -29 28 37 28 127 c 0
 28 136 29 145 30 154 c 256
 46 258 165 341 280 417 c 257
 254 464 238 523 238 581 c 0
 238 596 239 611 241 626 c 256
 251 691 286 751 358 785 c 256
 387 799 422 806 455 806 c 256
 557 806 595 753 595 691 c 0
 595 682 594 673 593 664 c 256
 591 651 588 637 583 624 c 256
 558 554 499 478 410 418 c 256
 408 417 407 415 405 414 c 257
 440 365 485 302 534 237 c 257
 557 275 577 317 593 360 c 256
 601 381 633 399 662 399 c 256
471 153 m 257
 416 226 361 300 320 358 c 257
 219 286 150 228 140 166 c 256
 139 159 138 152 138 145 c 0
 138 85 186 49 266 49 c 256
 343 49 413 90 471 153 c 257
EndSplineSet
EndChar

StartChar: quotesingle
Encoding: 39 39 11
Width: 330
VWidth: 0
GlyphClass: 2
Flags: HMW
LayerCount: 3
Layer: 2
SplineSet
231 841 m 258
 252 842 l 258
 253 842 253 842 254 842 c 256
 276 842 288 830 288 817 c 0
 288 734 251 609 241 581 c 256
 235 564 201 544 177 544 c 256
 163 544 152 550 152 570 c 0
 152 613 168 714 177 803 c 256
 177 804 177 804 177 805 c 256
 179 818 194 839 231 841 c 258
EndSplineSet
EndChar

StartChar: parenleft
Encoding: 40 40 12
Width: 360
VWidth: 0
GlyphClass: 2
Flags: HMW
LayerCount: 3
Layer: 2
SplineSet
185 -105 m 256
 175 -110 166 -112 157 -112 c 256
 146 -112 137 -108 131 -100 c 256
 94 -50 47 71 47 246 c 0
 47 298 51 354 61 415 c 256
 93 617 177 769 287 874 c 256
 299 885 315 892 330 892 c 256
 336 892 341 891 347 889 c 256
 356 885 359 879 359 872 c 0
 359 871 359 870 359 869 c 256
 358 862 353 854 345 846 c 256
 254 759 183 619 152 425 c 256
 142 360 137 300 137 246 c 0
 137 87 175 -22 203 -60 c 256
 206 -65 207 -69 207 -74 c 0
 207 -76 207 -77 207 -79 c 256
 205 -89 199 -98 185 -105 c 256
EndSplineSet
EndChar

StartChar: parenright
Encoding: 41 41 13
Width: 360
VWidth: 0
GlyphClass: 2
Flags: HMW
LayerCount: 3
Layer: 2
SplineSet
178 885 m 256
 188 890 197 892 206 892 c 256
 217 892 226 888 232 880 c 256
 269 830 317 708 317 532 c 0
 317 481 312 425 303 365 c 256
 271 163 186 11 76 -94 c 256
 64 -105 48 -112 33 -112 c 256
 27 -112 23 -111 17 -109 c 256
 8 -105 5 -99 5 -92 c 0
 5 -91 5 -90 5 -89 c 256
 6 -82 11 -74 19 -66 c 256
 110 21 180 161 211 355 c 256
 221 420 226 480 226 534 c 0
 226 693 188 802 160 840 c 256
 157 845 156 849 156 854 c 0
 156 856 156 857 156 859 c 256
 158 869 164 878 178 885 c 256
EndSplineSet
EndChar

StartChar: asterisk
Encoding: 42 42 14
Width: 600
VWidth: 0
GlyphClass: 2
Flags: HMW
LayerCount: 3
Layer: 2
SplineSet
367 848 m 256
 370 848 373 849 375 849 c 256
 392 849 405 839 405 827 c 0
 405 810 402 792 399 775 c 256
 393 739 385 702 378 664 c 257
 421 690 464 718 504 743 c 256
 514 749 525 752 536 752 c 256
 546 752 554 750 560 745 c 256
 564 742 566 737 566 732 c 0
 566 731 566 730 566 729 c 256
 565 721 559 712 548 705 c 256
 501 676 449 650 397 623 c 257
 443 597 489 573 530 547 c 256
 536 543 539 537 539 530 c 0
 539 529 539 528 539 527 c 256
 538 520 533 513 525 507 c 256
 515 499 502 495 490 495 c 256
 482 495 474 497 468 501 c 256
 433 523 400 547 365 571 c 257
 361 520 359 471 352 424 c 256
 350 409 329 394 307 392 c 256
 305 392 304 392 302 392 c 256
 283 392 271 400 271 413 c 0
 271 463 292 519 303 572 c 257
 257 545 213 518 169 495 c 256
 159 490 150 488 140 488 c 256
 129 488 120 491 115 497 c 256
 112 500 110 505 110 510 c 0
 110 511 110 511 110 512 c 256
 111 521 120 531 132 537 c 256
 182 564 240 589 295 617 c 257
 246 645 193 667 148 691 c 256
 140 695 137 702 137 709 c 0
 137 710 137 711 137 712 c 256
 138 718 142 725 149 731 c 256
 159 740 174 745 188 745 c 256
 195 745 200 744 206 741 c 256
 244 722 280 698 317 673 c 257
 321 722 322 769 325 814 c 256
 325 815 l 258
 327 830 346 845 367 848 c 256
EndSplineSet
EndChar

StartChar: plus
Encoding: 43 43 15
Width: 600
VWidth: 0
GlyphClass: 2
Flags: HMW
LayerCount: 3
Layer: 2
SplineSet
76 349 m 256
 84 367 107 380 130 380 c 256
 132 380 133 380 135 380 c 256
 170 377 210 374 256 373 c 257
 262 417 265 457 268 494 c 256
 268 495 269 496 269 497 c 256
 272 515 294 532 317 535 c 256
 319 535 322 535 324 535 c 256
 344 535 360 524 360 508 c 0
 360 467 353 420 346 372 c 257
 387 372 431 373 477 375 c 256
 478 375 478 375 479 375 c 256
 499 375 514 363 514 347 c 0
 514 346 514 344 514 343 c 258
 514 342 l 258
 510 323 484 306 460 305 c 256
 417 303 376 302 337 302 c 257
 332 264 325 225 319 184 c 256
 316 165 292 147 268 145 c 256
 266 145 265 145 263 145 c 256
 243 145 228 156 228 172 c 0
 228 217 242 263 247 303 c 257
 193 304 145 306 104 310 c 256
 85 312 74 323 74 337 c 0
 74 341 74 345 76 349 c 256
EndSplineSet
EndChar

StartChar: comma
Encoding: 44 44 16
Width: 330
VWidth: 0
GlyphClass: 2
Flags: HMW
LayerCount: 3
Layer: 2
SplineSet
22 58 m 256
 19 62 17 67 17 72 c 0
 17 73 17 74 17 75 c 256
 19 85 27 95 41 103 c 256
 45 106 51 109 56 111 c 256
 77 121 101 127 123 127 c 256
 125 127 126 127 128 127 c 256
 161 125 181 110 191 94 c 256
 200 80 205 61 205 40 c 0
 205 32 204 24 203 15 c 256
 193 -50 141 -129 38 -176 c 256
 29 -180 19 -182 10 -182 c 256
 -4 -182 -15 -177 -21 -169 c 256
 -23 -166 -24 -162 -24 -158 c 0
 -24 -157 -24 -156 -24 -155 c 256
 -22 -143 -12 -131 4 -124 c 256
 69 -94 104 -36 111 9 c 256
 112 15 112 21 112 26 c 0
 112 38 110 48 106 55 c 256
 102 61 98 62 98 62 c 257
 98 62 94 62 84 57 c 256
 73 51 61 48 50 48 c 256
 38 48 28 51 22 58 c 256
EndSplineSet
EndChar

StartChar: hyphen
Encoding: 45 45 17
Width: 600
VWidth: 0
GlyphClass: 2
Flags: HMW
LayerCount: 3
Layer: 2
SplineSet
72 349 m 256
 82 367 108 381 133 381 c 256
 135 381 136 381 138 381 c 256
 190 376 258 373 336 373 c 256
 381 373 430 374 480 376 c 256
 481 376 481 376 482 376 c 256
 504 376 519 365 519 350 c 0
 519 347 518 344 518 342 c 256
 512 323 485 305 458 304 c 256
 406 302 357 301 310 301 c 256
 230 301 158 304 101 309 c 256
 81 311 69 321 69 335 c 0
 69 341 70 344 72 349 c 256
EndSplineSet
EndChar

StartChar: period
Encoding: 46 46 18
Width: 330
VWidth: 0
GlyphClass: 2
Flags: HMW
LayerCount: 3
Layer: 2
SplineSet
189 112 m 256
 191 110 201 99 201 80 c 0
 201 77 201 74 200 71 c 256
 199 67 199 62 197 58 c 256
 188 32 149 -5 94 -5 c 256
 49 -5 29 20 29 47 c 0
 29 50 29 53 30 56 c 256
 34 79 64 132 136 132 c 256
 142 132 148 131 152 130 c 258
 167 126 l 258
 177 123 185 118 189 112 c 256
EndSplineSet
EndChar

StartChar: slash
Encoding: 47 47 19
Width: 480
VWidth: 0
GlyphClass: 2
Flags: HMW
LayerCount: 3
Layer: 2
SplineSet
480 828 m 256
 496 827 506 818 506 807 c 0
 506 803 506 800 504 797 c 256
 369 520 225 259 56 -6 c 256
 48 -19 27 -29 9 -29 c 256
 7 -29 5 -28 3 -28 c 256
 -11 -26 -19 -18 -19 -7 c 0
 -19 -2 -17 2 -16 6 c 256
 151 269 294 528 429 803 c 256
 436 818 457 828 477 828 c 256
 478 828 479 828 480 828 c 256
EndSplineSet
EndChar

StartChar: zero
Encoding: 48 48 20
Width: 710
VWidth: 0
GlyphClass: 2
Flags: HMW
LayerCount: 3
Layer: 2
SplineSet
610 685 m 257
 647 639 662 573 662 503 c 0
 662 474 660 445 655 416 c 256
 615 162 491 -4 318 -22 c 256
 308 -23 297 -24 288 -24 c 256
 142 -24 54 98 54 281 c 0
 54 313 56 348 62 384 c 256
 96 599 188 737 318 795 c 256
 358 813 397 821 433 821 c 256
 514 821 581 781 618 723 c 256
 620 719 621 715 621 710 c 0
 621 708 621 707 621 705 c 256
 620 698 616 691 610 685 c 257
508 686 m 257
 478 727 442 742 408 742 c 256
 389 742 371 738 355 730 c 256
 294 701 204 600 172 396 c 256
 167 364 165 333 165 306 c 0
 165 128 261 56 323 56 c 256
 325 56 328 56 330 56 c 256
 383 62 504 143 545 404 c 256
 549 429 551 453 551 477 c 0
 551 548 534 611 503 642 c 256
 498 647 496 653 496 660 c 0
 496 661 496 663 496 664 c 256
 497 671 501 679 508 686 c 257
EndSplineSet
EndChar

StartChar: one
Encoding: 49 49 21
Width: 630
VWidth: 0
GlyphClass: 2
Flags: HMW
LayerCount: 3
Layer: 2
SplineSet
87 610 m 256
 86 613 85 616 85 620 c 0
 85 621 85 623 85 624 c 256
 87 639 103 656 124 664 c 256
 209 696 297 733 369 791 c 256
 369 791 409 812 437 812 c 256
 452 812 463 806 463 787 c 0
 463 784 463 781 462 778 c 256
 462 777 462 776 462 775 c 256
 435 635 417 534 402 440 c 256
 385 331 371 232 354 97 c 257
 354 96 l 0
 354 75 423 84 520 68 c 256
 527 67 550 44 550 23 c 0
 550 4 532 -9 482 -9 c 256
 481 -9 481 -9 480 -9 c 256
 455 -9 431 -9 408 -9 c 256
 280 -9 180 -13 32 -19 c 256
 31 -19 30 -19 29 -19 c 256
 4 -19 -12 -7 -12 10 c 0
 -12 13 -11 16 -11 18 c 256
 -5 39 24 58 54 59 c 256
 124 62 185 65 244 67 c 257
 244 70 244 73 244 77 c 0
 244 79 244 81 244 83 c 256
 262 219 274 318 292 429 c 256
 304 502 317 579 335 676 c 257
 274 642 210 617 155 596 c 256
 145 592 137 591 128 591 c 256
 109 591 92 598 87 610 c 256
EndSplineSet
EndChar

StartChar: two
Encoding: 50 50 22
Width: 690
VWidth: 0
GlyphClass: 2
Flags: HMW
LayerCount: 3
Layer: 2
SplineSet
140 622 m 256
 124 626 115 637 115 650 c 0
 115 658 116 665 122 672 c 256
 186 754 292 806 394 817 c 256
 407 818 420 819 433 819 c 256
 549 819 638 759 638 645 c 0
 638 633 637 620 635 606 c 256
 595 355 165 261 123 81 c 257
 148 74 203 71 269 71 c 256
 359 71 468 76 538 84 c 256
 541 84 544 84 546 84 c 256
 570 84 587 72 587 55 c 0
 587 31 557 9 526 6 c 256
 454 -1 336 -13 231 -13 c 256
 135 -13 49 -3 20 28 c 256
 14 35 10 43 10 53 c 0
 10 55 10 57 10 59 c 256
 51 320 495 406 525 594 c 256
 527 605 528 616 528 626 c 0
 528 711 466 740 403 740 c 256
 396 740 389 740 382 739 c 256
 325 733 261 703 217 648 c 256
 203 632 177 620 154 620 c 256
 149 620 145 621 140 622 c 256
EndSplineSet
EndChar

StartChar: three
Encoding: 51 51 23
Width: 690
VWidth: 0
GlyphClass: 2
Flags: HMW
LayerCount: 3
Layer: 2
SplineSet
118 633 m 256
 104 637 96 648 96 660 c 0
 96 670 99 676 106 684 c 256
 173 760 277 808 374 818 c 256
 387 819 399 820 411 820 c 256
 526 820 615 762 615 652 c 0
 615 641 614 628 612 616 c 256
 599 535 537 473 472 436 c 257
 548 420 609 366 609 273 c 0
 609 261 608 249 606 236 c 256
 589 126 519 44 419 3 c 256
 369 -18 317 -27 266 -27 c 256
 149 -27 43 23 2 98 c 256
 0 102 -1 106 -1 110 c 0
 -1 111 -1 112 -1 114 c 256
 1 129 15 144 36 153 c 256
 47 157 58 160 68 160 c 256
 85 160 100 153 106 142 c 256
 138 84 221 54 298 54 c 256
 329 54 358 59 384 69 c 256
 431 88 481 131 496 224 c 256
 498 236 499 248 499 258 c 0
 499 352 426 372 350 372 c 256
 320 372 289 369 263 366 c 256
 241 364 224 361 204 361 c 256
 185 361 179 367 179 377 c 0
 179 402 213 437 213 437 c 257
 293 457 477 446 502 604 c 256
 504 614 504 624 504 633 c 0
 504 712 446 741 383 741 c 256
 376 741 368 741 361 740 c 256
 305 734 241 707 196 656 c 256
 181 640 158 630 136 630 c 256
 130 630 124 631 118 633 c 256
EndSplineSet
EndChar

StartChar: four
Encoding: 52 52 24
Width: 720
VWidth: 0
GlyphClass: 2
Flags: HMW
LayerCount: 3
Layer: 2
SplineSet
401 829 m 256
 404 829 407 829 409 829 c 256
 433 829 450 817 450 800 c 0
 450 799 450 797 450 796 c 256
 409 545 201 340 133 262 c 257
 170 256 224 253 287 253 c 256
 333 253 385 254 437 257 c 257
 445 310 453 366 462 420 c 256
 471 474 479 527 487 575 c 256
 490 596 518 616 548 619 c 256
 550 619 553 619 555 619 c 256
 580 619 597 606 597 589 c 0
 597 588 597 586 597 585 c 256
 589 537 580 483 571 428 c 256
 562 373 555 317 546 263 c 257
 571 265 596 267 620 269 c 256
 622 269 623 269 625 269 c 256
 650 269 667 256 667 239 c 0
 667 238 666 236 666 235 c 258
 666 234 l 258
 662 213 633 193 603 191 c 256
 582 189 558 188 533 186 c 257
 523 115 516 54 512 17 c 258
 512 16 l 258
 509 -5 482 -25 452 -29 c 256
 449 -29 445 -30 442 -30 c 256
 417 -30 401 -17 401 -0 c 0
 401 1 401 2 401 3 c 256
 405 42 413 105 424 179 c 257
 368 176 309 174 254 174 c 256
 119 174 8 186 8 230 c 0
 8 231 8 233 8 234 c 256
 21 314 294 501 340 784 c 256
 343 805 371 826 401 829 c 256
EndSplineSet
EndChar

StartChar: five
Encoding: 53 53 25
Width: 710
VWidth: 0
GlyphClass: 2
Flags: HMW
LayerCount: 3
Layer: 2
SplineSet
63 154 m 256
 73 158 83 160 92 160 c 256
 110 160 126 153 132 141 c 256
 157 87 235 53 307 53 c 256
 315 53 323 53 330 54 c 256
 400 61 487 101 510 244 c 256
 513 260 514 274 514 287 c 0
 514 325 504 351 489 370 c 256
 467 397 431 409 384 409 c 256
 325 409 250 389 174 350 c 256
 174 350 143 334 119 334 c 256
 104 334 93 340 93 359 c 0
 93 362 93 365 94 368 c 256
 94 371 96 374 96 377 c 256
 117 461 152 593 168 696 c 256
 171 718 174 738 176 757 c 258
 176 757 176 758 176 760 c 0
 176 761 176 763 176 764 c 256
 178 778 189 805 235 805 c 256
 241 805 247 805 254 804 c 256
 295 799 357 794 439 794 c 256
 526 794 582 798 624 804 c 256
 627 804 631 805 634 805 c 256
 658 805 676 792 676 774 c 0
 676 773 676 772 676 770 c 256
 673 750 648 730 618 726 c 256
 564 718 501 716 410 716 c 256
 360 716 318 717 280 719 c 257
 279 714 279 709 278 704 c 256
 265 623 242 529 222 451 c 257
 286 474 353 487 414 487 c 256
 504 487 581 458 611 383 c 256
 620 361 624 336 624 308 c 0
 624 292 623 274 620 256 c 256
 594 90 464 -9 317 -24 c 256
 303 -25 290 -26 277 -26 c 256
 163 -26 63 22 26 99 c 256
 25 102 24 105 24 109 c 0
 24 110 24 112 24 113 c 256
 26 128 42 146 63 154 c 256
EndSplineSet
EndChar

StartChar: six
Encoding: 54 54 26
Width: 720
VWidth: 0
GlyphClass: 2
Flags: HMW
LayerCount: 3
Layer: 2
SplineSet
26 262 m 256
 19 266 17 272 17 278 c 0
 17 279 17 281 17 282 c 256
 19 293 28 304 42 314 c 256
 53 322 64 330 75 337 c 256
 79 340 86 343 90 346 c 256
 92 353 95 361 97 368 c 256
 148 514 263 677 450 813 c 256
 465 823 483 829 500 829 c 256
 511 829 521 827 528 822 c 256
 536 816 540 808 540 800 c 0
 540 798 540 797 540 795 c 256
 538 785 531 775 520 767 c 256
 378 663 279 539 226 423 c 257
 304 458 376 476 438 476 c 256
 589 476 649 381 649 281 c 0
 649 267 648 254 646 240 c 256
 643 222 639 205 633 188 c 256
 596 85 482 -29 302 -29 c 256
 136 -29 68 78 68 208 c 0
 68 222 68 237 70 251 c 257
 69 251 67 251 66 251 c 256
 52 251 35 256 26 262 c 256
189 318 m 257
 188 314 188 310 187 306 c 256
 186 299 184 292 183 285 c 256
 180 265 178 247 178 229 c 0
 178 115 240 49 331 49 c 256
 429 49 496 103 526 187 c 256
 531 201 534 215 536 228 c 256
 538 239 539 249 539 259 c 0
 539 337 489 397 410 397 c 256
 367 397 304 382 214 332 c 256
 206 328 197 323 189 318 c 257
EndSplineSet
EndChar

StartChar: seven
Encoding: 55 55 27
Width: 690
VWidth: 0
GlyphClass: 2
Flags: HMW
LayerCount: 3
Layer: 2
SplineSet
419 794 m 256
 521 794 589 800 655 804 c 258
 655 804 660 805 667 805 c 256
 682 805 706 801 706 782 c 0
 706 773 704 767 696 756 c 256
 527 509 427 325 311 19 c 256
 303 -2 271 -19 242 -19 c 256
 218 -19 201 -5 201 11 c 0
 201 15 203 18 203 21 c 256
 313 309 410 494 561 721 c 257
 514 718 458 716 390 716 c 256
 329 716 272 722 222 725 c 257
 225 689 229 646 229 599 c 256
 229 598 228 596 228 595 c 256
 225 577 204 560 178 555 c 256
 174 554 170 554 166 554 c 256
 144 554 128 565 128 581 c 256
 128 649 119 709 115 754 c 258
 115 754 115 756 115 760 c 0
 115 762 115 764 115 766 c 256
 117 780 128 801 175 801 c 256
 177 801 180 801 182 801 c 256
 230 799 328 794 419 794 c 256
EndSplineSet
EndChar

StartChar: eight
Encoding: 56 56 28
Width: 695
VWidth: 0
GlyphClass: 2
Flags: HMW
LayerCount: 3
Layer: 2
SplineSet
235 428 m 257
 147 471 107 530 107 590 c 0
 107 598 108 605 109 613 c 256
 111 623 113 633 117 643 c 256
 149 734 269 819 403 819 c 256
 526 819 594 764 626 713 c 256
 628 709 629 704 629 700 c 0
 629 699 629 698 629 696 c 256
 627 682 613 667 594 658 c 256
 583 653 572 651 561 651 c 256
 544 651 530 657 523 667 c 256
 497 706 449 741 374 741 c 256
 310 741 245 700 224 643 c 256
 222 637 220 631 219 625 c 256
 218 620 218 616 218 611 c 0
 218 568 247 521 335 486 c 257
 344 491 352 497 361 502 c 257
 476 569 537 607 537 607 c 258
 550 615 566 620 581 620 c 256
 594 620 606 616 614 609 c 256
 620 604 622 598 622 591 c 0
 622 590 622 588 622 587 c 256
 620 575 611 563 598 554 c 257
 596 552 539 517 433 455 c 257
 560 410 619 327 619 241 c 0
 619 231 619 221 617 211 c 256
 610 167 589 124 553 86 c 256
 492 21 389 -24 273 -24 c 256
 109 -24 29 68 29 162 c 0
 29 171 30 179 31 188 c 256
 48 293 135 367 235 428 c 257
327 394 m 256
 218 329 154 283 141 200 c 256
 140 194 140 189 140 183 c 0
 140 117 198 54 302 54 c 256
 385 54 438 84 473 127 c 256
 490 148 502 174 506 200 c 256
 507 207 508 215 508 223 c 0
 508 291 458 361 333 393 c 257
 331 393 329 394 327 394 c 256
EndSplineSet
EndChar

StartChar: nine
Encoding: 57 57 29
Width: 720
VWidth: 0
GlyphClass: 2
Flags: HMW
LayerCount: 3
Layer: 2
SplineSet
700 538 m 256
 707 534 710 528 710 521 c 0
 710 520 710 519 710 518 c 256
 708 507 699 496 685 486 c 256
 674 478 662 470 651 463 c 256
 647 460 641 457 637 454 c 256
 635 447 631 439 629 432 c 256
 578 286 464 123 277 -13 c 256
 262 -23 243 -29 226 -29 c 256
 215 -29 206 -27 199 -22 c 256
 191 -16 186 -8 186 0 c 0
 186 2 187 3 187 5 c 256
 189 15 195 25 206 33 c 256
 348 137 448 261 501 377 c 257
 423 342 350 324 288 324 c 256
 137 324 78 418 78 518 c 0
 78 532 79 546 81 560 c 256
 84 578 88 595 94 612 c 256
 131 715 244 829 424 829 c 256
 590 829 659 721 659 591 c 0
 659 577 659 563 657 549 c 257
 658 549 660 549 661 549 c 256
 675 549 691 544 700 538 c 256
537 482 m 257
 538 486 538 490 539 494 c 256
 540 501 543 508 544 515 c 256
 547 535 549 553 549 571 c 0
 549 685 487 751 396 751 c 256
 298 751 231 697 201 613 c 256
 196 599 193 585 191 572 c 256
 189 561 188 551 188 541 c 0
 188 463 238 403 317 403 c 256
 360 403 423 418 513 468 c 256
 521 472 529 477 537 482 c 257
EndSplineSet
EndChar

StartChar: colon
Encoding: 58 58 30
Width: 330
VWidth: 0
GlyphClass: 2
Flags: HMW
LayerCount: 3
Layer: 2
SplineSet
189 112 m 256
 191 110 201 99 201 80 c 0
 201 77 201 74 200 71 c 256
 199 67 199 62 197 58 c 256
 188 32 149 -5 94 -5 c 256
 49 -5 29 20 29 47 c 0
 29 50 29 53 30 56 c 256
 34 79 64 132 136 132 c 256
 142 132 148 131 152 130 c 258
 167 126 l 258
 177 123 185 118 189 112 c 256
265 592 m 256
 267 590 277 579 277 560 c 0
 277 557 277 554 276 551 c 256
 275 547 275 542 273 538 c 256
 264 512 225 475 170 475 c 256
 125 475 105 500 105 527 c 0
 105 530 105 533 106 536 c 256
 110 559 140 612 212 612 c 256
 218 612 224 611 228 610 c 258
 243 606 l 258
 253 603 261 598 265 592 c 256
EndSplineSet
EndChar

StartChar: semicolon
Encoding: 59 59 31
Width: 330
VWidth: 0
GlyphClass: 2
Flags: HMW
LayerCount: 3
Layer: 2
SplineSet
265 592 m 256
 267 590 277 579 277 560 c 0
 277 557 277 554 276 551 c 256
 275 547 275 542 273 538 c 256
 264 512 225 475 170 475 c 256
 125 475 105 500 105 527 c 0
 105 530 105 533 106 536 c 256
 110 559 140 612 212 612 c 256
 218 612 224 611 228 610 c 258
 243 606 l 258
 253 603 261 598 265 592 c 256
22 58 m 256
 19 62 17 67 17 72 c 0
 17 73 17 74 17 75 c 256
 19 85 27 95 41 103 c 256
 45 106 51 109 56 111 c 256
 77 121 101 127 123 127 c 256
 125 127 126 127 128 127 c 256
 161 125 181 110 191 94 c 256
 200 80 205 61 205 40 c 0
 205 32 204 24 203 15 c 256
 193 -50 141 -129 38 -176 c 256
 29 -180 19 -182 10 -182 c 256
 -4 -182 -15 -177 -21 -169 c 256
 -23 -166 -24 -162 -24 -158 c 0
 -24 -157 -24 -156 -24 -155 c 256
 -22 -143 -12 -131 4 -124 c 256
 69 -94 104 -36 111 9 c 256
 112 15 112 21 112 26 c 0
 112 38 110 48 106 55 c 256
 102 61 98 62 98 62 c 257
 98 62 94 62 84 57 c 256
 73 51 61 48 50 48 c 256
 38 48 28 51 22 58 c 256
EndSplineSet
EndChar

StartChar: less
Encoding: 60 60 32
Width: 600
VWidth: 0
GlyphClass: 2
Flags: HMW
LayerCount: 3
Layer: 2
SplineSet
474 80 m 0
 461 70 444 65 428 65 c 0
 418 65 409 67 402 71 c 0
 326 118 172 229 68 313 c 0
 63 317 56 324 56 334 c 0
 56 335 56 336 56 337 c 0
 57 346 65 356 87 367 c 0
 203 426 382 540 479 603 c 0
 491 611 506 616 520 616 c 0
 531 616 541 613 548 607 c 0
 554 602 557 596 557 589 c 0
 557 588 557 587 557 586 c 0
 555 576 547 565 535 557 c 0
 449 501 305 407 184 341 c 1
 283 264 415 169 479 129 c 0
 487 124 491 117 491 109 c 0
 491 108 491 107 491 106 c 0
 490 97 484 88 474 80 c 0
EndSplineSet
EndChar

StartChar: equal
Encoding: 61 61 33
Width: 600
VWidth: 0
GlyphClass: 2
Flags: HMW
LayerCount: 3
Layer: 2
SplineSet
56 249 m 0
 66 267 93 281 118 281 c 2
 123 281 l 1
 175 276 242 273 320 273 c 0
 365 273 414 274 464 276 c 2
 466 276 l 2
 488 276 503 265 503 250 c 0
 503 249 503 247 503 246 c 2
 502 242 l 2
 496 223 469 205 442 204 c 0
 390 202 341 201 294 201 c 0
 214 201 142 204 85 209 c 0
 65 211 53 221 53 235 c 0
 53 241 54 244 56 249 c 0
88 449 m 0
 98 467 124 481 149 481 c 2
 154 481 l 1
 206 476 274 473 352 473 c 0
 397 473 445 474 495 476 c 2
 497 476 l 2
 519 476 535 465 535 450 c 0
 535 449 535 447 535 446 c 2
 534 442 l 2
 528 423 501 405 474 404 c 0
 422 402 373 401 326 401 c 0
 246 401 174 404 117 409 c 0
 97 411 85 421 85 435 c 0
 85 441 86 444 88 449 c 0
EndSplineSet
EndChar

StartChar: greater
Encoding: 62 62 34
Width: 600
VWidth: 0
GlyphClass: 2
Flags: HMW
LayerCount: 3
Layer: 2
SplineSet
114 601 m 0
 127 611 144 616 160 616 c 0
 170 616 179 614 186 610 c 0
 262 563 416 452 520 368 c 0
 524 364 531 356 531 347 c 0
 531 346 531 345 531 344 c 0
 530 335 523 325 501 314 c 0
 385 255 206 141 109 78 c 0
 97 70 82 65 68 65 c 0
 57 65 47 68 40 74 c 0
 34 79 31 85 31 92 c 0
 31 93 31 94 31 95 c 0
 33 105 41 116 53 124 c 0
 139 180 283 274 404 340 c 1
 305 417 172 512 108 552 c 0
 100 557 97 564 97 572 c 0
 97 573 97 574 97 575 c 0
 98 584 104 593 114 601 c 0
EndSplineSet
EndChar

StartChar: question
Encoding: 63 63 35
Width: 480
VWidth: 0
GlyphClass: 2
Flags: HMW
LayerCount: 3
Layer: 2
SplineSet
259 112 m 256
 261 110 271 99 271 80 c 0
 271 77 271 74 270 71 c 256
 269 67 269 62 267 58 c 256
 258 32 219 -5 164 -5 c 256
 119 -5 99 20 99 47 c 0
 99 50 99 53 100 56 c 256
 104 79 134 132 206 132 c 256
 212 132 218 131 222 130 c 258
 237 126 l 258
 247 123 255 118 259 112 c 256
210 258 m 0
 203 256 195 255 189 255 c 0
 174 255 166 262 162 275 c 0
 157 293 155 309 155 324 c 0
 155 333 156 342 157 351 c 0
 179 492 379 559 396 665 c 0
 397 674 398 682 398 689 c 0
 398 706 395 720 390 732 c 0
 374 769 335 784 294 784 c 0
 272 784 250 780 230 773 c 0
 197 760 165 738 159 702 c 0
 159 699 158 696 158 693 c 0
 158 680 162 665 169 648 c 0
 170 645 171 640 171 637 c 0
 171 636 171 636 171 635 c 0
 169 621 154 607 134 599 c 0
 126 596 116 594 108 594 c 0
 91 594 76 601 71 612 c 0
 62 631 58 650 58 668 c 0
 58 675 59 682 60 689 c 0
 70 753 128 807 203 835 c 0
 240 849 281 856 319 856 c 0
 394 856 462 828 488 768 c 0
 495 751 499 732 499 710 c 0
 499 699 498 687 496 675 c 0
 469 503 265 466 247 354 c 0
 246 348 246 342 246 336 c 0
 246 326 247 316 250 305 c 0
 251 302 251 298 251 295 c 0
 249 280 232 265 210 258 c 0
EndSplineSet
EndChar

StartChar: at
Encoding: 64 64 36
Width: 1020
VWidth: 0
GlyphClass: 2
Flags: HMW
LayerCount: 3
Layer: 2
SplineSet
685 345 m 1
 673 301 660 251 655 220 c 0
 650 192 648 168 648 150 c 0
 648 120 654 104 661 99 c 0
 663 100 668 102 676 106 c 0
 780 165 849 279 867 393 c 0
 870 413 872 433 872 452 c 0
 872 523 850 589 803 638 c 0
 758 684 694 711 605 711 c 0
 405 711 232 547 159 346 c 0
 146 311 136 276 131 242 c 0
 127 217 125 194 125 170 c 0
 125 8 219 -121 429 -121 c 0
 492 -121 576 -88 602 -74 c 0
 612 -69 622 -66 632 -66 c 0
 643 -66 652 -69 657 -75 c 0
 660 -78 662 -83 662 -88 c 0
 662 -89 662 -89 662 -90 c 0
 661 -99 652 -109 640 -116 c 0
 601 -138 503 -179 408 -179 c 0
 146 -179 45 -24 45 155 c 0
 45 181 47 208 51 235 c 0
 57 272 67 310 80 346 c 0
 155 553 353 769 626 769 c 0
 739 769 821 733 873 678 c 0
 927 622 953 545 953 463 c 0
 953 442 951 420 948 398 c 0
 928 270 848 139 715 64 c 0
 694 52 669 43 644 41 c 2
 638 41 l 2
 594 41 579 76 579 129 c 0
 579 138 579 148 580 159 c 1
 542 93 489 38 411 38 c 0
 302 38 264 103 264 179 c 0
 264 193 266 208 268 222 c 0
 272 245 278 268 286 290 c 0
 328 405 443 554 613 554 c 0
 709 554 722 488 722 453 c 0
 722 446 722 439 721 436 c 0
 718 419 694 402 670 399 c 2
 663 399 l 2
 643 399 629 409 629 423 c 0
 629 426 629 429 629 432 c 0
 629 454 616 490 589 490 c 0
 510 490 415 405 374 290 c 0
 367 270 362 251 359 234 c 0
 357 222 356 211 356 200 c 0
 356 140 387 102 435 102 c 0
 481 102 541 196 595 331 c 0
 602 348 617 362 640 362 c 0
 658 362 685 345 685 345 c 1
EndSplineSet
EndChar

StartChar: A
Encoding: 65 65 37
Width: 800
VWidth: 0
GlyphClass: 2
Flags: HMW
LayerCount: 3
Layer: 2
SplineSet
198 196 m 1
 154 124 112 60 74 11 c 0
 62 -5 36 -16 13 -16 c 0
 9 -16 6 -16 2 -15 c 0
 -14 -11 -24 -1 -24 11 c 0
 -24 18 -22 23 -17 29 c 0
 13 69 49 124 88 185 c 1
 75 183 62 182 52 180 c 0
 48 179 43 179 39 179 c 0
 17 179 1 191 1 206 c 0
 1 207 l 2
 1 209 l 2
 4 227 29 245 57 250 c 0
 78 253 105 257 134 260 c 1
 244 444 361 662 418 774 c 0
 421 779 423 784 425 788 c 0
 437 812 455 820 473 820 c 0
 500 820 526 802 526 802 c 1
 628 532 694 186 712 64 c 0
 712 60 714 57 714 53 c 0
 714 50 714 48 714 45 c 0
 714 44 714 42 714 41 c 0
 710 15 679 3 652 3 c 0
 632 3 614 10 609 24 c 0
 578 119 599 209 449 209 c 0
 396 209 291 204 198 196 c 1
243 269 m 1
 332 276 424 281 479 281 c 0
 511 281 540 277 563 272 c 1
 538 389 501 529 460 659 c 1
 400 547 322 401 243 269 c 1
EndSplineSet
EndChar

StartChar: B
Encoding: 66 66 38
Width: 790
VWidth: 0
GlyphClass: 2
Flags: HMW
LayerCount: 3
Layer: 2
SplineSet
229 353 m 2
 210 239 189 126 180 72 c 1
 195 64 228 59 271 59 c 0
 352 59 466 79 539 139 c 0
 574 168 604 208 618 266 c 0
 619 271 621 276 622 281 c 0
 623 289 624 297 624 304 c 0
 624 374 564 395 485 395 c 0
 474 395 462 395 451 394 c 0
 432 393 411 390 392 387 c 0
 351 373 306 360 262 352 c 1
 262 352 244 366 234 383 c 1
 229 353 l 2
240 421 m 1
 246 424 l 2
 252 427 259 429 266 431 c 0
 300 443 339 453 379 461 c 1
 408 471 434 481 459 492 c 0
 525 520 568 572 576 622 c 0
 577 627 577 631 577 636 c 0
 577 653 573 670 564 685 c 0
 547 716 507 742 432 742 c 0
 367 742 276 722 150 668 c 0
 138 663 126 661 115 661 c 0
 98 661 84 666 78 677 c 0
 76 680 75 683 75 687 c 0
 75 689 76 692 76 694 c 0
 78 709 92 723 112 732 c 0
 253 792 370 819 462 819 c 0
 531 819 586 804 625 777 c 0
 667 747 688 705 688 659 c 0
 688 651 687 643 686 634 c 0
 677 577 637 517 572 470 c 1
 663 457 733 411 733 322 c 0
 733 313 733 302 731 292 c 0
 730 286 729 280 727 274 c 0
 682 83 476 0 317 -17 c 0
 290 -20 263 -22 237 -22 c 0
 162 -22 95 -8 74 27 c 0
 71 32 69 38 69 45 c 0
 69 48 69 51 70 54 c 0
 79 110 105 247 125 376 c 0
 139 463 149 547 150 596 c 1
 151 600 l 2
 154 620 179 638 207 643 c 0
 211 644 215 644 219 644 c 0
 243 644 261 632 261 614 c 0
 260 567 251 497 240 422 c 2
 240 421 l 1
EndSplineSet
EndChar

StartChar: C
Encoding: 67 67 39
Width: 740
VWidth: 0
GlyphClass: 2
Flags: HMW
LayerCount: 3
Layer: 2
SplineSet
642 178 m 0
 660 174 670 163 670 149 c 0
 670 141 667 135 662 128 c 0
 602 50 494 -6 384 -18 c 0
 369 -20 355 -20 340 -20 c 0
 179 -20 51 79 51 290 c 0
 51 320 54 352 59 387 c 0
 101 651 282 799 467 819 c 0
 480 820 492 821 505 821 c 0
 625 821 715 758 715 659 c 0
 715 650 714 641 713 632 c 0
 710 610 680 589 649 586 c 2
 641 586 l 2
 616 586 597 598 597 616 c 0
 597 624 599 632 599 640 c 0
 599 705 542 739 476 739 c 0
 469 739 461 739 454 738 c 0
 366 729 214 648 175 399 c 0
 170 365 167 335 167 307 c 0
 167 119 279 62 372 62 c 0
 380 62 389 62 397 63 c 0
 461 70 524 101 562 150 c 0
 576 168 603 179 628 179 c 0
 633 179 637 179 642 178 c 0
EndSplineSet
EndChar

StartChar: D
Encoding: 68 68 40
Width: 800
VWidth: 0
GlyphClass: 2
Flags: HMW
LayerCount: 3
Layer: 2
SplineSet
81 675 m 0
 77 680 76 684 76 689 c 0
 76 690 76 692 76 694 c 0
 78 707 90 721 107 730 c 0
 187 771 273 800 356 813 c 0
 387 818 416 820 445 820 c 0
 624 820 753 726 753 522 c 0
 753 513 753 503 752 494 c 0
 750 465 748 438 744 412 c 0
 698 123 490 1 307 -18 c 0
 288 -20 269 -21 250 -21 c 0
 165 -21 91 -1 74 42 c 0
 72 46 71 52 71 58 c 0
 71 60 71 62 71 64 c 0
 80 118 104 247 123 369 c 0
 137 458 149 544 150 596 c 1
 151 600 l 2
 154 620 179 638 207 643 c 0
 211 644 215 644 219 644 c 0
 243 644 261 632 261 614 c 0
 259 560 248 475 234 388 c 0
 215 265 191 137 182 80 c 1
 192 70 231 59 282 59 c 0
 335 59 400 70 459 106 c 0
 532 150 607 236 633 400 c 0
 637 424 640 449 641 476 c 0
 641 485 642 494 642 502 c 0
 642 679 542 742 419 742 c 0
 397 742 375 740 352 736 c 0
 290 726 221 704 155 670 c 0
 143 664 131 661 119 661 c 0
 103 661 89 666 81 675 c 0
EndSplineSet
EndChar

StartChar: E
Encoding: 69 69 41
Width: 720
VWidth: 0
GlyphClass: 2
Flags: HMW
LayerCount: 3
Layer: 2
SplineSet
639 32 m 2
 633 11 604 -8 574 -9 c 0
 471 -13 360 -24 269 -24 c 0
 153 -24 69 -6 69 68 c 0
 69 74 69 80 70 86 c 2
 71 96 l 1
 88 173 107 261 126 360 c 1
 122 360 119 361 115 361 c 0
 92 362 79 374 79 390 c 0
 79 395 80 399 81 403 c 0
 89 422 116 437 141 439 c 1
 146 469 152 502 157 534 c 0
 162 566 166 600 171 634 c 0
 174 653 175 668 175 680 c 0
 175 711 166 722 151 729 c 0
 148 730 144 732 139 733 c 1
 139 733 139 742 141 754 c 0
 145 777 155 809 187 809 c 2
 189 809 l 1
 273 805 348 804 412 804 c 0
 546 804 635 810 679 814 c 1
 687 814 l 2
 711 814 728 802 728 785 c 0
 728 761 698 739 667 736 c 0
 617 731 528 726 395 726 c 0
 361 726 324 726 284 727 c 1
 285 719 286 711 286 701 c 0
 286 685 284 666 281 646 c 0
 275 608 271 572 265 537 c 0
 259 502 253 468 248 435 c 1
 284 434 316 433 348 433 c 0
 405 433 462 435 544 439 c 1
 547 439 l 2
 572 439 588 427 588 410 c 0
 588 409 588 407 588 406 c 2
 588 403 l 2
 583 382 553 362 523 361 c 0
 439 357 378 355 317 355 c 0
 290 355 262 355 233 356 c 1
 215 262 197 179 180 104 c 1
 180 101 l 2
 180 99 179 96 179 94 c 0
 179 65 212 56 290 56 c 0
 357 56 456 63 596 69 c 1
 599 69 l 2
 624 69 640 57 640 40 c 0
 640 39 640 37 640 36 c 2
 639 32 l 2
EndSplineSet
EndChar

StartChar: F
Encoding: 70 70 42
Width: 690
VWidth: 0
GlyphClass: 2
Flags: HMW
LayerCount: 3
Layer: 2
SplineSet
667 736 m 0
 617 731 526 726 394 726 c 0
 360 726 324 726 284 727 c 1
 285 718 286 709 286 700 c 0
 286 684 284 666 281 646 c 0
 271 575 261 504 250 435 c 1
 286 434 317 433 349 433 c 0
 406 433 463 435 544 439 c 1
 547 439 l 2
 572 439 588 427 588 410 c 0
 588 409 588 407 588 406 c 2
 588 403 l 2
 583 382 553 362 523 361 c 0
 440 357 380 355 319 355 c 0
 293 355 266 355 238 356 c 1
 220 241 201 131 179 29 c 0
 175 8 146 -12 116 -14 c 2
 111 -14 l 2
 86 -14 69 -1 69 16 c 0
 69 17 69 19 69 20 c 2
 69 21 l 1
 91 125 112 240 131 360 c 1
 126 360 120 361 115 361 c 0
 92 362 79 374 79 390 c 0
 79 392 79 393 79 395 c 0
 79 398 80 400 81 403 c 0
 89 422 117 437 143 439 c 1
 152 503 162 568 171 634 c 0
 174 653 175 668 175 680 c 0
 175 711 166 722 151 729 c 0
 148 730 144 732 139 733 c 0
 130 736 127 741 127 746 c 0
 127 747 127 747 127 748 c 0
 131 771 189 809 189 809 c 1
 273 805 348 804 412 804 c 0
 546 804 635 810 679 814 c 1
 687 814 l 2
 711 814 728 802 728 785 c 0
 728 761 698 739 667 736 c 0
EndSplineSet
EndChar

StartChar: G
Encoding: 71 71 43
Width: 770
VWidth: 0
GlyphClass: 2
Flags: HMW
LayerCount: 3
Layer: 2
SplineSet
367 316 m 0
 367 317 367 318 367 319 c 0
 367 321 367 323 367 325 c 0
 370 343 390 360 416 367 c 0
 457 378 540 395 589 399 c 0
 593 399 596 400 599 400 c 0
 608 400 617 399 625 397 c 0
 681 386 700 345 700 298 c 0
 700 287 699 275 697 264 c 0
 694 244 689 225 682 206 c 0
 646 107 534 -24 338 -24 c 0
 163 -24 54 90 54 288 c 0
 54 319 56 352 62 387 c 0
 104 651 285 799 468 818 c 0
 481 819 493 820 506 820 c 0
 625 820 712 758 712 660 c 0
 712 651 712 642 710 632 c 0
 707 611 679 590 649 587 c 2
 641 587 l 2
 617 587 600 599 600 616 c 0
 600 624 602 632 602 640 c 0
 602 706 544 741 477 741 c 0
 470 741 462 741 455 740 c 0
 363 730 211 648 172 399 c 0
 167 366 164 336 164 308 c 0
 164 128 266 54 367 54 c 0
 475 54 544 121 574 206 c 0
 579 219 581 231 583 242 c 0
 585 251 585 260 585 268 c 0
 585 296 577 316 571 321 c 1
 543 318 455 300 428 293 c 0
 422 291 415 290 409 290 c 0
 387 290 369 300 367 316 c 0
EndSplineSet
EndChar

StartChar: H
Encoding: 72 72 44
Width: 810
VWidth: 0
GlyphClass: 2
Flags: HMW
LayerCount: 3
Layer: 2
SplineSet
600 -9 m 0
 597 -9 593 -10 590 -10 c 0
 565 -10 550 3 550 21 c 0
 550 22 550 23 550 24 c 0
 561 107 578 228 598 358 c 1
 528 356 451 355 374 355 c 0
 319 355 265 356 213 357 c 1
 196 247 176 134 159 31 c 0
 156 10 128 -11 98 -14 c 2
 90 -14 l 2
 66 -14 49 -2 49 15 c 0
 49 16 49 18 49 19 c 0
 67 126 87 246 105 361 c 1
 100 361 l 2
 77 362 63 375 63 391 c 0
 63 392 64 394 64 395 c 0
 64 398 65 400 66 403 c 0
 74 420 94 434 117 438 c 1
 136 563 152 678 157 762 c 1
 157 765 l 2
 160 785 184 803 214 808 c 0
 218 809 222 809 226 809 c 0
 250 809 267 796 267 779 c 0
 267 778 l 0
 261 688 245 566 225 436 c 1
 295 434 372 433 449 433 c 0
 504 433 559 434 610 435 c 1
 619 490 626 545 635 600 c 0
 644 655 653 709 661 759 c 0
 664 780 692 801 722 804 c 2
 730 804 l 2
 754 804 771 792 771 775 c 0
 771 774 771 772 771 771 c 0
 763 719 753 664 744 608 c 0
 735 552 728 495 719 439 c 1
 741 437 754 427 754 411 c 0
 754 410 753 408 753 406 c 2
 753 403 l 2
 748 386 730 370 707 364 c 1
 688 236 671 118 660 36 c 2
 660 35 l 2
 657 14 630 -5 600 -9 c 0
EndSplineSet
EndChar

StartChar: I
Encoding: 73 73 45
Width: 460
VWidth: 0
GlyphClass: 2
Flags: HMW
LayerCount: 3
Layer: 2
SplineSet
-9 38 m 0
 2 55 31 69 57 69 c 2
 60 69 l 2
 86 68 110 66 132 65 c 1
 132 69 131 73 131 77 c 0
 131 82 132 87 133 93 c 0
 162 273 188 406 215 574 c 0
 220 606 224 638 230 673 c 0
 231 680 231 685 231 690 c 0
 231 725 205 716 135 732 c 0
 131 733 127 733 123 734 c 1
 124 739 l 2
 126 754 136 798 173 798 c 2
 175 798 l 2
 228 796 278 795 324 795 c 0
 365 795 403 796 437 798 c 2
 442 798 l 2
 464 798 478 789 478 775 c 0
 478 774 478 773 478 772 c 2
 478 768 l 2
 472 750 443 734 415 732 c 0
 389 730 363 730 333 729 c 1
 336 721 337 712 337 702 c 0
 337 697 337 692 336 687 c 0
 330 652 326 619 321 587 c 0
 294 418 267 286 239 107 c 2
 239 105 l 2
 238 98 237 93 237 89 c 0
 237 77 244 77 271 77 c 2
 279 77 l 2
 294 77 315 76 342 75 c 0
 359 74 364 69 364 62 c 0
 364 61 364 61 364 60 c 0
 361 41 322 11 322 11 c 1
 266 1 219 -3 171 -3 c 0
 123 -3 75 1 21 3 c 0
 0 4 -12 13 -12 26 c 0
 -12 31 -10 34 -9 38 c 0
EndSplineSet
EndChar

StartChar: J
Encoding: 74 74 46
Width: 520
VWidth: 0
GlyphClass: 2
Flags: HMW
LayerCount: 3
Layer: 2
SplineSet
388 229 m 0
 373 134 344 4 179 -13 c 0
 169 -14 158 -14 148 -14 c 0
 58 -14 -9 31 -37 78 c 0
 -39 81 -40 85 -40 88 c 0
 -40 90 -39 92 -39 94 c 0
 -37 108 -23 123 -3 132 c 0
 8 137 19 139 30 139 c 0
 47 139 62 133 68 122 c 0
 86 91 136 64 176 64 c 0
 182 64 187 65 191 65 c 0
 232 69 264 102 282 216 c 0
 301 336 334 567 334 674 c 0
 334 727 285 710 198 734 c 1
 199 739 l 2
 201 754 211 798 248 798 c 2
 250 798 l 2
 303 796 353 795 399 795 c 0
 440 795 478 796 512 798 c 2
 517 798 l 2
 540 798 554 788 554 774 c 0
 554 773 554 772 554 771 c 2
 554 768 l 2
 548 750 518 734 490 732 c 0
 472 731 454 731 434 730 c 1
 438 720 441 708 441 695 c 0
 441 693 441 691 441 689 c 0
 436 579 407 351 388 229 c 0
EndSplineSet
EndChar

StartChar: K
Encoding: 75 75 47
Width: 770
VWidth: 0
GlyphClass: 2
Flags: HMW
LayerCount: 3
Layer: 2
SplineSet
192 807 m 0
 198 809 205 809 211 809 c 0
 233 809 250 800 252 784 c 0
 254 769 255 750 255 728 c 0
 255 682 251 621 242 544 c 1
 414 632 580 734 655 792 c 0
 669 803 688 809 705 809 c 0
 716 809 727 807 734 802 c 0
 743 797 747 789 747 781 c 0
 747 779 747 778 747 776 c 0
 746 767 739 757 728 748 c 0
 630 673 436 559 240 463 c 1
 466 353 653 97 682 54 c 0
 684 50 685 46 685 41 c 0
 685 40 685 38 685 37 c 0
 683 23 670 8 651 -1 c 0
 639 -6 627 -9 615 -9 c 0
 599 -9 584 -4 578 6 c 0
 555 41 397 253 219 367 c 1
 206 270 189 158 169 31 c 0
 166 10 138 -11 108 -14 c 2
 100 -14 l 2
 76 -14 59 -2 59 15 c 0
 59 16 59 18 59 19 c 0
 84 174 102 308 117 419 c 0
 113 421 109 422 105 423 c 2
 105 423 70 428 70 444 c 0
 70 445 70 445 70 446 c 0
 71 455 83 466 115 481 c 0
 118 483 122 484 125 486 c 0
 137 588 144 665 144 715 c 0
 144 732 144 745 142 756 c 0
 142 757 141 757 141 758 c 0
 141 760 142 762 142 764 c 0
 145 782 166 801 192 807 c 0
EndSplineSet
EndChar

StartChar: L
Encoding: 76 76 48
Width: 650
VWidth: 0
GlyphClass: 2
Flags: HMW
LayerCount: 3
Layer: 2
SplineSet
569 32 m 2
 563 11 534 -8 504 -9 c 0
 403 -13 308 -23 233 -23 c 0
 133 -23 67 -6 67 63 c 0
 67 70 68 76 69 84 c 2
 71 96 l 1
 92 188 130 355 155 514 c 0
 169 601 179 686 181 756 c 1
 181 760 l 2
 184 780 209 798 237 803 c 0
 241 804 245 804 249 804 c 0
 273 804 292 792 292 774 c 0
 290 701 279 613 265 525 c 0
 239 363 201 197 180 104 c 1
 179 94 l 2
 178 90 178 86 178 83 c 0
 178 62 193 55 241 55 c 0
 292 55 380 63 526 69 c 1
 529 69 l 2
 554 69 570 57 570 40 c 0
 570 39 570 37 570 36 c 2
 569 32 l 2
EndSplineSet
EndChar

StartChar: M
Encoding: 77 77 49
Width: 890
VWidth: 0
GlyphClass: 2
Flags: HMW
LayerCount: 3
Layer: 2
SplineSet
47 -19 m 2
 44 -19 l 2
 19 -19 3 -7 3 10 c 0
 3 11 3 13 3 14 c 2
 4 18 l 1
 46 169 100 440 140 650 c 0
 147 687 155 723 161 755 c 1
 161 755 214 793 247 793 c 0
 257 793 265 789 269 779 c 0
 282 747 295 716 306 687 c 0
 373 514 412 353 436 270 c 1
 498 372 608 567 754 784 c 1
 754 784 799 805 828 805 c 0
 842 805 853 800 853 786 c 0
 853 784 853 783 853 781 c 0
 851 771 851 761 849 751 c 0
 817 517 778 170 775 39 c 1
 775 35 l 2
 772 15 747 -3 719 -8 c 0
 715 -9 711 -9 707 -9 c 0
 683 -9 664 3 664 21 c 0
 667 128 695 391 721 598 c 1
 560 352 493 195 445 158 c 0
 424 142 410 137 399 137 c 0
 382 137 372 149 369 153 c 0
 341 184 326 337 235 586 c 1
 198 395 149 154 112 22 c 0
 106 1 77 -18 47 -19 c 2
EndSplineSet
EndChar

StartChar: N
Encoding: 78 78 50
Width: 810
VWidth: 0
GlyphClass: 2
Flags: HMW
LayerCount: 3
Layer: 2
SplineSet
98 -14 m 2
 90 -14 l 2
 66 -14 49 -2 49 15 c 0
 49 16 49 18 49 19 c 0
 58 76 68 136 78 197 c 0
 110 398 139 609 150 747 c 0
 151 752 151 757 152 762 c 1
 152 762 203 804 237 804 c 0
 246 804 254 801 259 792 c 0
 349 638 488 345 576 177 c 1
 587 249 l 2
 616 431 648 652 656 757 c 1
 656 760 l 2
 659 780 684 800 714 804 c 0
 717 804 721 805 724 805 c 0
 748 805 766 793 766 775 c 0
 766 774 766 774 766 773 c 0
 757 661 726 441 697 258 c 0
 683 170 670 90 660 35 c 0
 654 1 630 -8 607 -8 c 0
 582 -8 556 3 556 3 c 2
 553 7 550 9 548 13 c 0
 509 70 366 375 245 602 c 1
 232 496 213 369 194 246 c 0
 182 171 170 98 159 31 c 0
 156 10 128 -11 98 -14 c 2
EndSplineSet
EndChar

StartChar: O
Encoding: 79 79 51
Width: 820
VWidth: 0
GlyphClass: 2
Flags: HMW
LayerCount: 3
Layer: 2
SplineSet
627 623 m 1
 614 703 546 742 474 742 c 0
 456 742 438 740 420 735 c 0
 332 713 207 620 172 397 c 0
 167 367 165 340 165 315 c 0
 165 132 277 57 372 57 c 0
 378 57 385 57 391 58 c 0
 482 68 619 155 654 378 c 0
 657 393 658 409 658 425 c 0
 658 490 639 551 625 559 c 0
 610 564 601 574 601 587 c 0
 601 595 602 601 608 608 c 0
 613 614 619 619 627 623 c 1
719 616 m 1
 756 585 770 525 770 463 c 0
 770 438 768 413 764 390 c 0
 727 156 567 0 379 -20 c 0
 366 -21 354 -22 341 -22 c 0
 174 -22 55 96 55 296 c 0
 55 324 57 354 62 385 c 0
 99 620 241 766 409 809 c 0
 441 817 473 821 503 821 c 0
 626 821 720 755 737 652 c 0
 737 651 737 650 737 649 c 0
 737 647 737 646 737 644 c 0
 736 635 729 624 719 616 c 1
EndSplineSet
EndChar

StartChar: P
Encoding: 80 80 52
Width: 745
VWidth: 0
GlyphClass: 2
Flags: HMW
LayerCount: 3
Layer: 2
SplineSet
110 -24 m 2
 103 -24 l 2
 79 -24 62 -12 62 5 c 0
 62 6 62 8 62 9 c 2
 63 10 l 2
 79 91 93 178 106 262 c 2
 119 339 l 1
 97 346 73 355 51 365 c 0
 39 370 33 380 33 390 c 0
 33 391 33 393 33 394 c 0
 34 402 39 410 47 418 c 0
 61 431 84 439 104 439 c 0
 112 439 119 438 126 435 c 0
 128 434 129 434 131 433 c 1
 139 498 143 554 145 596 c 1
 146 600 l 2
 149 620 174 638 202 643 c 0
 206 644 210 644 214 644 c 0
 238 644 256 632 256 614 c 0
 255 559 248 483 236 397 c 1
 284 384 326 379 363 379 c 0
 454 379 516 411 555 447 c 0
 589 479 610 521 616 562 c 0
 618 572 618 582 618 591 c 0
 618 648 590 700 530 726 c 0
 505 737 473 744 432 744 c 0
 363 744 269 724 146 668 c 0
 135 663 124 661 113 661 c 0
 96 661 81 667 74 677 c 0
 72 681 71 686 71 690 c 0
 71 691 71 692 71 694 c 0
 73 708 87 723 106 732 c 0
 245 795 365 823 461 823 c 0
 517 823 565 813 604 796 c 0
 691 759 732 687 732 611 c 0
 732 599 731 588 729 576 c 0
 720 519 689 460 637 412 c 0
 564 344 459 302 333 302 c 0
 298 302 261 305 223 312 c 1
 208 216 190 114 172 20 c 0
 168 -1 140 -21 110 -24 c 2
EndSplineSet
EndChar

StartChar: Q
Encoding: 81 81 53
Width: 820
VWidth: 0
GlyphClass: 2
Flags: HMW
LayerCount: 3
Layer: 2
SplineSet
497 93 m 1
 573 138 646 228 670 380 c 0
 672 395 673 409 673 422 c 0
 673 485 646 514 614 514 c 0
 582 514 539 489 507 401 c 0
 498 376 491 348 487 320 c 0
 483 291 480 262 480 231 c 0
 480 185 486 138 497 93 c 1
404 58 m 1
 390 110 384 165 384 218 c 0
 384 250 386 282 391 312 c 0
 396 344 404 373 414 401 c 0
 446 488 512 586 640 586 c 0
 742 586 771 514 771 440 c 0
 771 423 770 406 767 390 c 0
 740 222 643 91 519 27 c 1
 550 -47 601 -109 672 -138 c 0
 682 -142 688 -151 688 -160 c 0
 688 -161 688 -163 688 -164 c 0
 687 -171 683 -179 676 -186 c 0
 663 -198 641 -206 623 -206 c 0
 616 -206 610 -205 604 -202 c 0
 520 -164 463 -92 427 -7 c 1
 413 -10 397 -13 382 -15 c 0
 368 -17 353 -17 340 -17 c 0
 174 -17 55 97 55 296 c 0
 55 324 57 354 62 385 c 0
 99 620 241 766 409 809 c 0
 441 817 473 821 503 821 c 0
 626 821 720 755 737 652 c 0
 737 651 737 650 737 649 c 0
 737 647 737 646 737 644 c 0
 734 626 714 608 688 601 c 0
 682 599 675 598 669 598 c 0
 647 598 629 608 627 624 c 0
 614 704 546 742 474 742 c 0
 456 742 438 740 420 735 c 0
 332 713 207 620 172 397 c 0
 167 368 165 341 165 316 c 0
 165 132 279 56 376 56 c 0
 382 56 387 56 393 57 c 0
 397 57 400 57 404 58 c 1
EndSplineSet
EndChar

StartChar: R
Encoding: 82 82 54
Width: 770
VWidth: 0
GlyphClass: 2
Flags: HMW
LayerCount: 3
Layer: 2
SplineSet
110 -24 m 2
 103 -24 l 2
 79 -24 62 -12 62 5 c 0
 62 6 62 8 62 9 c 2
 63 10 l 2
 78 88 92 173 105 255 c 0
 127 391 143 519 145 596 c 1
 146 600 l 2
 149 620 174 638 202 643 c 0
 206 644 210 644 214 644 c 0
 238 644 256 632 256 614 c 0
 255 565 249 500 239 426 c 1
 248 434 259 440 273 440 c 0
 279 440 285 439 293 436 c 0
 344 418 388 411 425 411 c 0
 463 411 493 418 517 428 c 0
 577 454 621 513 631 574 c 0
 632 582 633 591 633 599 c 0
 633 623 628 647 615 668 c 0
 590 711 538 745 446 745 c 0
 373 745 275 724 145 668 c 0
 134 663 123 661 112 661 c 0
 95 661 79 667 73 678 c 0
 71 681 70 685 70 688 c 0
 70 690 71 692 71 694 c 0
 73 708 87 723 107 732 c 0
 254 795 377 822 474 822 c 0
 599 822 682 778 720 713 c 0
 737 684 745 652 745 617 c 0
 745 606 744 594 742 582 c 0
 729 498 668 412 555 364 c 0
 508 344 453 332 397 332 c 2
 390 332 l 1
 470 242 596 104 673 39 c 0
 679 34 682 27 682 19 c 0
 682 18 682 17 682 16 c 0
 680 5 671 -7 657 -16 c 0
 644 -25 627 -29 612 -29 c 0
 599 -29 588 -26 580 -19 c 0
 471 73 289 280 228 350 c 1
 216 273 l 2
 203 189 188 101 172 20 c 0
 168 -1 140 -21 110 -24 c 2
EndSplineSet
EndChar

StartChar: S
Encoding: 83 83 55
Width: 690
VWidth: 0
GlyphClass: 2
Flags: HMW
LayerCount: 3
Layer: 2
SplineSet
75 199 m 0
 83 201 91 202 98 202 c 0
 118 202 133 194 137 179 c 0
 156 102 218 56 319 56 c 0
 391 56 446 84 482 124 c 0
 504 148 518 176 522 203 c 0
 523 209 523 214 523 220 c 0
 523 265 495 308 427 330 c 0
 391 343 266 389 225 404 c 0
 130 438 86 499 86 565 c 0
 86 573 87 582 88 590 c 0
 90 601 93 611 97 622 c 0
 134 725 274 822 455 822 c 0
 581 822 644 752 644 672 c 0
 644 664 643 656 642 648 c 0
 641 640 638 633 636 625 c 0
 630 604 598 585 569 584 c 2
 567 584 l 2
 543 584 527 596 527 613 c 0
 527 614 527 616 527 617 c 2
 527 621 l 2
 529 626 530 631 531 636 c 0
 532 641 532 646 532 651 c 0
 532 703 490 744 427 744 c 0
 306 744 228 686 205 622 c 0
 203 615 200 609 199 602 c 0
 198 597 198 593 198 588 c 0
 198 546 226 506 295 482 c 0
 338 467 462 420 496 408 c 0
 593 375 635 311 635 243 c 0
 635 234 634 225 633 216 c 0
 626 174 604 131 570 94 c 0
 510 29 408 -22 291 -22 c 0
 138 -22 52 50 28 147 c 0
 28 148 28 149 28 150 c 0
 28 152 28 155 28 157 c 0
 31 174 50 192 75 199 c 0
EndSplineSet
EndChar

StartChar: T
Encoding: 84 84 56
Width: 710
VWidth: 0
GlyphClass: 2
Flags: HMW
LayerCount: 3
Layer: 2
SplineSet
741 772 m 2
 735 751 705 732 676 731 c 0
 607 728 527 723 451 722 c 1
 452 715 454 708 454 701 c 0
 454 697 453 692 453 688 c 0
 445 601 429 488 406 341 c 0
 391 249 374 145 353 25 c 0
 350 4 321 -16 291 -19 c 2
 284 -19 l 2
 260 -19 243 -6 243 11 c 0
 243 12 243 14 243 15 c 0
 264 135 282 239 296 330 c 0
 319 476 334 586 342 672 c 0
 342 675 343 678 343 681 c 0
 343 705 330 707 315 709 c 0
 247 717 139 715 104 738 c 0
 88 749 82 758 82 766 c 0
 82 767 82 768 82 769 c 0
 86 795 148 808 148 808 c 2
 156 809 166 810 178 810 c 0
 230 810 319 800 444 800 c 0
 525 800 615 806 698 809 c 2
 700 809 l 2
 724 809 742 797 742 780 c 0
 742 779 742 777 742 776 c 2
 741 772 l 2
EndSplineSet
EndChar

StartChar: U
Encoding: 85 85 57
Width: 810
VWidth: 0
GlyphClass: 2
Flags: HMW
LayerCount: 3
Layer: 2
SplineSet
718 799 m 2
 726 799 l 2
 751 799 768 787 768 770 c 0
 768 769 767 767 767 766 c 0
 743 595 727 425 711 326 c 0
 705 287 696 249 683 214 c 0
 637 87 527 -24 333 -24 c 0
 154 -24 72 56 72 216 c 0
 72 246 75 278 81 314 c 0
 97 413 139 615 161 754 c 0
 164 775 193 796 223 799 c 2
 231 799 l 2
 255 799 272 787 272 770 c 0
 272 769 271 767 271 766 c 0
 249 625 206 421 191 326 c 0
 185 289 182 256 182 228 c 0
 182 93 248 54 362 54 c 0
 476 54 536 102 576 214 c 0
 587 244 595 278 601 314 c 0
 616 409 633 581 657 754 c 0
 660 775 688 796 718 799 c 2
EndSplineSet
EndChar

StartChar: V
Encoding: 86 86 58
Width: 790
VWidth: 0
GlyphClass: 2
Flags: HMW
LayerCount: 3
Layer: 2
SplineSet
782 791 m 2
 805 790 819 778 819 762 c 0
 819 757 818 753 817 749 c 0
 766 637 584 294 387 11 c 1
 387 11 344 -21 313 -21 c 0
 299 -21 287 -14 283 6 c 0
 283 10 282 14 281 19 c 0
 250 188 171 573 93 745 c 0
 92 748 91 751 91 755 c 0
 91 756 91 758 91 759 c 0
 93 774 110 791 131 799 c 0
 141 803 149 804 158 804 c 0
 177 804 194 797 199 785 c 0
 267 633 331 335 369 142 c 1
 528 388 672 665 712 755 c 0
 721 775 751 791 779 791 c 2
 782 791 l 2
EndSplineSet
EndChar

StartChar: W
Encoding: 87 87 59
Width: 1080
VWidth: 0
GlyphClass: 2
Flags: HMW
LayerCount: 3
Layer: 2
SplineSet
1071 799 m 2
 1093 797 1106 785 1106 770 c 0
 1106 764 1105 760 1103 755 c 0
 1002 561 915 342 780 23 c 1
 780 23 730 -10 698 -10 c 0
 685 -10 677 -5 674 10 c 0
 673 13 673 17 672 20 c 0
 646 149 601 448 567 608 c 1
 480 430 340 116 289 16 c 1
 289 16 239 -13 208 -13 c 0
 194 -13 183 -8 182 8 c 0
 158 269 122 587 95 746 c 0
 95 747 95 748 95 749 c 0
 95 751 95 752 95 754 c 0
 98 772 118 790 144 797 c 0
 150 799 158 800 164 800 c 0
 186 800 204 790 206 774 c 0
 227 648 257 386 275 169 c 1
 370 377 510 694 542 736 c 0
 562 763 580 772 595 772 c 0
 621 772 638 746 638 746 c 1
 658 704 715 384 751 168 c 1
 839 392 921 606 1003 765 c 0
 1014 785 1039 799 1066 799 c 2
 1071 799 l 2
EndSplineSet
EndChar

StartChar: X
Encoding: 88 88 60
Width: 770
VWidth: 0
GlyphClass: 2
Flags: HMW
LayerCount: 3
Layer: 2
SplineSet
183 793 m 0
 194 797 204 799 214 799 c 0
 232 799 247 793 253 781 c 0
 305 681 351 595 398 513 c 1
 476 595 559 681 656 777 c 0
 670 791 694 800 714 800 c 0
 721 800 727 798 734 796 c 0
 747 791 753 782 753 771 c 0
 753 760 749 751 741 743 c 0
 627 629 532 532 443 436 c 1
 511 321 584 207 683 67 c 0
 686 62 687 58 687 53 c 0
 687 51 687 50 687 48 c 0
 685 34 672 21 654 12 c 0
 642 7 630 4 619 4 c 0
 603 4 588 9 581 19 c 0
 494 143 426 248 364 350 c 1
 270 246 179 140 71 16 c 0
 57 0 33 -9 11 -9 c 0
 5 -9 -1 -9 -7 -7 c 0
 -22 -3 -30 9 -30 21 c 0
 -30 30 -27 37 -21 44 c 0
 103 187 208 306 319 427 c 1
 263 523 209 622 148 739 c 0
 147 743 146 747 146 751 c 0
 146 752 146 754 146 755 c 0
 148 770 162 784 183 793 c 0
EndSplineSet
EndChar

StartChar: Y
Encoding: 89 89 61
Width: 710
VWidth: 0
GlyphClass: 2
Flags: HMW
LayerCount: 3
Layer: 2
SplineSet
709 799 m 2
 730 797 741 786 741 771 c 0
 741 769 741 768 741 766 c 0
 740 762 739 758 736 754 c 0
 661 626 597 537 546 472 c 0
 447 348 405 317 396 265 c 0
 391 241 388 218 384 194 c 0
 375 140 368 86 363 28 c 1
 363 25 l 2
 360 5 335 -15 305 -19 c 0
 302 -19 298 -20 295 -20 c 0
 271 -20 253 -7 253 11 c 0
 253 70 265 128 274 183 c 0
 278 207 281 231 286 255 c 0
 289 273 294 289 302 305 c 1
 254 332 219 383 188 448 c 0
 146 535 113 646 92 755 c 0
 91 758 91 761 91 764 c 0
 94 782 114 800 140 807 c 0
 147 809 153 810 160 810 c 0
 182 810 199 800 202 785 c 0
 221 680 256 571 295 490 c 0
 316 449 336 404 356 382 c 1
 382 413 415 449 452 496 c 0
 501 557 561 642 634 766 c 0
 645 785 676 799 702 799 c 2
 709 799 l 2
EndSplineSet
EndChar

StartChar: Z
Encoding: 90 90 62
Width: 730
VWidth: 0
GlyphClass: 2
Flags: HMW
LayerCount: 3
Layer: 2
SplineSet
647 51 m 2
 642 29 607 8 572 5 c 0
 507 -1 370 -13 244 -13 c 0
 108 -13 -15 1 -15 52 c 0
 -15 54 -15 56 -15 58 c 0
 0 152 272 410 560 715 c 1
 486 711 425 709 360 709 c 0
 299 709 234 711 154 715 c 0
 129 717 114 727 114 742 c 0
 114 748 115 753 119 758 c 0
 131 779 168 795 200 795 c 2
 205 795 l 1
 283 791 344 789 402 789 c 0
 488 789 567 793 683 800 c 1
 697 800 l 2
 732 800 742 792 742 781 c 0
 742 766 724 749 724 749 c 0
 434 441 156 162 119 85 c 1
 149 77 223 74 307 74 c 0
 406 74 519 78 592 85 c 1
 601 85 l 2
 628 85 647 74 647 57 c 0
 647 56 647 54 647 53 c 2
 647 51 l 2
EndSplineSet
EndChar

StartChar: bracketleft
Encoding: 91 91 63
Width: 360
VWidth: 0
GlyphClass: 2
Flags: HMW
LayerCount: 3
Layer: 2
SplineSet
229 -60 m 2
 223 -76 201 -89 180 -89 c 0
 165 -89 115 -91 61 -91 c 2
 34 -91 l 2
 16 -91 5 -81 5 -69 c 0
 5 -68 5 -67 5 -66 c 2
 5 -65 l 1
 44 104 74 265 96 407 c 0
 126 594 142 749 146 853 c 1
 147 858 l 2
 149 868 156 889 195 889 c 2
 199 889 l 2
 228 888 268 887 299 887 c 0
 318 887 335 887 343 888 c 2
 348 888 l 2
 366 888 377 879 377 867 c 0
 377 866 377 865 377 864 c 2
 377 863 l 2
 373 847 352 834 330 832 c 0
 313 831 286 830 257 830 c 2
 224 830 l 1
 218 724 202 577 175 406 c 0
 154 272 127 124 91 -34 c 1
 138 -34 182 -31 201 -31 c 0
 219 -31 230 -40 230 -53 c 0
 230 -54 230 -55 230 -56 c 2
 229 -60 l 2
EndSplineSet
EndChar

StartChar: backslash
Encoding: 92 92 64
Width: 480
VWidth: 0
GlyphClass: 2
Flags: HMW
LayerCount: 3
Layer: 2
SplineSet
142 827 m 0
 147 828 151 829 156 829 c 0
 172 829 185 822 187 810 c 0
 234 535 296 276 380 13 c 0
 381 10 381 8 381 5 c 0
 379 -7 365 -20 348 -26 c 0
 342 -28 336 -29 330 -29 c 0
 316 -29 303 -23 300 -13 c 0
 216 252 153 513 106 790 c 0
 106 791 106 791 106 792 c 0
 106 793 106 795 106 796 c 0
 108 809 123 822 142 827 c 0
EndSplineSet
EndChar

StartChar: bracketright
Encoding: 93 93 65
Width: 360
VWidth: 0
GlyphClass: 2
Flags: HMW
LayerCount: 3
Layer: 2
SplineSet
137 858 m 2
 143 874 165 887 186 887 c 0
 201 887 252 889 306 889 c 2
 333 889 l 2
 351 889 362 879 362 867 c 0
 362 866 362 865 362 864 c 2
 362 863 l 1
 323 694 292 533 270 391 c 0
 240 204 224 49 220 -55 c 1
 219 -60 l 2
 217 -70 211 -91 172 -91 c 2
 168 -91 l 2
 139 -90 98 -89 67 -89 c 0
 48 -89 32 -89 24 -90 c 2
 19 -90 l 2
 1 -90 -10 -81 -10 -69 c 0
 -10 -68 -10 -67 -10 -66 c 2
 -10 -65 l 2
 -6 -49 15 -36 37 -34 c 0
 54 -33 80 -32 109 -32 c 2
 142 -32 l 1
 148 74 164 221 191 392 c 0
 212 526 240 674 276 832 c 1
 229 832 184 829 165 829 c 0
 147 829 136 838 136 851 c 0
 136 852 136 853 136 854 c 2
 137 858 l 2
EndSplineSet
EndChar

StartChar: asciicircum
Encoding: 94 94 66
Width: 510
VWidth: 0
GlyphClass: 2
Flags: HMW
LayerCount: 3
Layer: 2
SplineSet
360 834 m 0
 434 746 507 594 514 573 c 1
 514 573 499 531 471 531 c 0
 465 531 459 532 452 537 c 0
 427 554 369 649 311 724 c 1
 228 645 139 558 101 538 c 1
 101 538 83 532 68 532 c 0
 58 532 50 535 50 544 c 0
 50 545 50 546 50 547 c 0
 51 552 53 558 57 565 c 0
 73 591 204 731 292 826 c 1
 292 826 309 849 331 849 c 0
 340 849 351 845 360 834 c 0
EndSplineSet
EndChar

StartChar: underscore
Encoding: 95 95 67
Width: 600
VWidth: 0
GlyphClass: 2
Flags: HMW
LayerCount: 3
Layer: 2
SplineSet
-31 -21 m 0
 -21 -3 5 11 30 11 c 2
 35 11 l 1
 88 6 200 4 308 4 c 0
 364 4 420 4 466 6 c 2
 468 6 l 2
 490 6 505 -5 505 -20 c 0
 505 -21 505 -23 505 -24 c 2
 505 -28 l 2
 499 -47 472 -65 445 -66 c 0
 389 -68 322 -69 256 -69 c 0
 154 -69 53 -66 -3 -61 c 0
 -23 -59 -35 -49 -35 -35 c 0
 -35 -29 -33 -26 -31 -21 c 0
EndSplineSet
EndChar

StartChar: grave
Encoding: 96 96 68
Width: 360
VWidth: 0
GlyphClass: 2
Flags: HMW
LayerCount: 3
Layer: 2
SplineSet
93 798 m 2
 124 828 l 1
 124 828 142 848 163 848 c 0
 172 848 182 844 191 834 c 0
 266 751 348 606 355 583 c 1
 355 583 347 541 322 541 c 0
 317 541 311 542 304 547 c 0
 278 564 162 699 90 764 c 0
 86 768 84 774 84 779 c 0
 84 780 84 781 84 782 c 0
 85 788 88 793 93 798 c 2
EndSplineSet
EndChar

StartChar: a
Encoding: 97 97 69
Width: 675
VWidth: 0
GlyphClass: 2
Flags: HMW
LayerCount: 3
Layer: 2
SplineSet
532 360 m 1
 532 92 561 63 577 59 c 0
 591 55 599 45 599 34 c 0
 599 26 597 19 591 13 c 0
 579 -1 559 -11 540 -11 c 0
 535 -11 531 -10 526 -9 c 0
 483 4 460 43 450 150 c 1
 409 64 344 -21 215 -21 c 0
 75 -21 27 68 27 172 c 0
 27 192 29 212 32 232 c 0
 37 262 45 292 55 320 c 0
 103 455 228 621 419 621 c 0
 534 621 550 536 550 493 c 0
 550 484 550 476 549 472 c 0
 546 453 520 435 493 432 c 2
 486 432 l 2
 464 432 449 443 449 458 c 0
 449 462 450 465 450 470 c 0
 450 499 432 549 394 549 c 0
 305 549 203 456 153 320 c 0
 144 294 137 268 133 244 c 0
 130 227 129 210 129 195 c 0
 129 109 170 51 240 51 c 0
 299 51 357 111 398 226 c 0
 411 263 421 301 429 336 c 0
 432 350 448 372 467 372 c 0
 508 372 532 360 532 360 c 1
EndSplineSet
EndChar

StartChar: b
Encoding: 98 98 70
Width: 660
VWidth: 0
GlyphClass: 2
Flags: HMW
LayerCount: 3
Layer: 2
SplineSet
235 542 m 0
 234 545 234 547 234 550 c 0
 234 551 234 553 234 554 c 0
 236 568 251 583 271 591 c 0
 319 608 363 617 404 617 c 2
 406 617 l 2
 547 617 598 521 598 412 c 0
 598 391 596 371 593 350 c 0
 588 321 581 292 571 264 c 0
 524 133 401 -21 205 -21 c 0
 112 -21 45 38 45 108 c 0
 45 114 45 119 46 125 c 0
 63 232 84 356 102 470 c 0
 124 612 143 739 143 797 c 0
 143 799 143 800 143 801 c 1
 143 805 l 2
 146 823 167 840 193 845 c 0
 197 846 201 846 205 846 c 0
 227 846 244 835 244 819 c 0
 244 817 244 816 244 814 c 0
 244 754 227 638 207 507 c 0
 188 385 163 251 145 135 c 0
 145 132 144 129 144 126 c 0
 144 84 192 51 230 51 c 0
 333 51 428 136 474 264 c 0
 483 289 488 313 492 336 c 0
 495 353 496 370 496 386 c 0
 496 479 451 546 378 546 c 0
 357 546 331 541 297 529 c 0
 289 526 279 524 271 524 c 0
 254 524 240 531 235 542 c 0
EndSplineSet
EndChar

StartChar: c
Encoding: 99 99 71
Width: 590
VWidth: 0
GlyphClass: 2
Flags: HMW
LayerCount: 3
Layer: 2
SplineSet
489 141 m 0
 505 137 514 126 514 114 c 0
 514 106 512 100 507 94 c 0
 459 32 374 -11 289 -20 c 0
 278 -21 266 -22 255 -22 c 0
 129 -22 33 56 33 216 c 0
 33 239 35 264 39 290 c 0
 71 490 210 607 356 622 c 0
 366 623 376 624 385 624 c 0
 479 624 549 575 549 497 c 0
 549 490 548 482 547 475 c 0
 544 455 517 436 489 433 c 2
 482 433 l 2
 459 433 442 445 442 461 c 0
 442 467 443 473 443 479 c 0
 443 525 404 548 359 548 c 0
 354 548 349 548 344 547 c 0
 285 541 174 485 145 300 c 0
 141 274 139 251 139 230 c 0
 139 92 221 54 284 54 c 0
 290 54 296 54 301 55 c 0
 346 60 390 82 416 116 c 0
 429 132 453 143 475 143 c 0
 480 143 484 142 489 141 c 0
EndSplineSet
EndChar

StartChar: d
Encoding: 100 100 72
Width: 710
VWidth: 0
GlyphClass: 2
Flags: HMW
LayerCount: 3
Layer: 2
SplineSet
597 875 m 0
 600 875 604 876 607 876 c 0
 629 876 643 865 643 850 c 0
 643 802 631 751 623 702 c 0
 607 598 582 463 569 381 c 2
 562 336 l 2
 556 293 554 254 554 220 c 0
 554 191 555 166 558 144 c 0
 567 77 595 51 603 49 c 0
 618 45 627 36 627 24 c 0
 627 17 626 11 621 5 c 0
 610 -10 587 -21 566 -21 c 0
 561 -21 556 -20 552 -19 c 0
 498 -5 477 51 468 120 c 0
 467 123 468 125 467 128 c 1
 424 60 359 -21 245 -21 c 0
 89 -21 35 93 35 210 c 0
 35 232 37 254 40 275 c 0
 44 302 52 330 61 357 c 0
 104 478 216 616 400 616 c 0
 448 616 483 604 507 586 c 1
 524 692 l 2
 532 741 539 788 543 833 c 2
 543 834 l 2
 546 853 570 871 597 875 c 0
478 422 m 1
 475 474 457 544 374 544 c 0
 282 544 200 474 158 357 c 0
 149 334 143 309 139 285 c 0
 136 266 135 248 135 231 c 0
 135 125 188 51 270 51 c 0
 303 51 351 79 396 151 c 0
 423 193 443 242 458 285 c 0
 459 298 460 310 462 324 c 2
 470 371 l 1
 478 422 l 1
EndSplineSet
EndChar

StartChar: e
Encoding: 101 101 73
Width: 620
VWidth: 0
GlyphClass: 2
Flags: HMW
LayerCount: 3
Layer: 2
SplineSet
148 229 m 1
 152 120 204 73 256 58 c 0
 269 54 284 52 298 52 c 0
 351 52 407 77 440 117 c 0
 452 131 474 141 494 141 c 0
 499 141 505 140 510 139 c 0
 524 135 532 125 532 114 c 0
 532 106 530 99 524 93 c 0
 466 26 366 -20 271 -20 c 0
 246 -20 221 -17 198 -10 c 0
 106 16 47 92 47 225 c 1
 30 229 20 238 20 250 c 0
 20 251 20 252 20 253 c 2
 21 256 l 2
 24 268 37 281 52 288 c 1
 54 302 l 2
 84 489 222 603 370 621 c 0
 382 622 395 623 406 623 c 0
 506 623 578 569 578 482 c 0
 578 473 577 464 576 455 c 0
 552 304 383 252 221 235 c 2
 148 229 l 1
151 299 m 1
 179 301 207 303 232 306 c 0
 383 322 461 349 476 445 c 0
 477 452 478 460 478 466 c 0
 478 526 429 552 378 552 c 0
 372 552 367 552 361 551 c 0
 293 543 181 482 154 313 c 2
 152 301 l 1
 151 299 l 1
EndSplineSet
EndChar

StartChar: f
Encoding: 102 102 74
Width: 460
VWidth: 0
GlyphClass: 2
Flags: HMW
LayerCount: 3
Layer: 2
SplineSet
152 -20 m 2
 145 -20 l 2
 123 -20 108 -9 108 6 c 0
 108 37 118 68 122 96 c 0
 149 265 164 400 172 523 c 1
 142 524 114 526 81 529 c 0
 61 531 49 541 49 555 c 0
 49 561 50 564 52 569 c 0
 62 587 88 601 113 601 c 2
 118 601 l 2
 140 599 163 597 181 596 c 1
 181 630 182 664 183 697 c 0
 183 703 184 709 185 715 c 0
 192 762 219 806 268 837 c 0
 306 862 349 874 392 874 c 0
 444 874 496 856 538 822 c 0
 544 817 546 811 546 805 c 0
 546 804 546 802 546 801 c 0
 544 791 536 780 524 772 c 0
 512 764 496 759 482 759 c 0
 471 759 461 762 454 768 c 0
 422 795 393 803 370 803 c 0
 350 803 334 797 324 790 c 0
 306 778 288 755 283 724 c 0
 282 720 283 717 282 713 c 0
 278 674 274 634 271 593 c 1
 304 593 347 594 399 596 c 2
 401 596 l 2
 423 596 439 585 439 570 c 0
 439 569 439 567 439 566 c 2
 438 562 l 2
 432 543 405 525 378 524 c 0
 336 522 301 521 271 521 c 1
 262 401 248 269 222 106 c 0
 218 78 212 50 207 20 c 0
 204 1 179 -17 152 -20 c 2
EndSplineSet
EndChar

StartChar: g
Encoding: 103 103 75
Width: 640
VWidth: 0
GlyphClass: 2
Flags: HMW
LayerCount: 3
Layer: 2
SplineSet
530 356 m 1
 535 307 537 259 537 213 c 0
 537 157 534 104 526 57 c 0
 520 16 511 -22 498 -57 c 0
 458 -169 370 -266 226 -266 c 0
 153 -266 86 -238 60 -190 c 0
 58 -187 57 -183 57 -179 c 0
 57 -178 57 -177 57 -176 c 0
 59 -163 73 -148 92 -140 c 0
 102 -136 111 -134 120 -134 c 0
 136 -134 150 -140 156 -150 c 0
 172 -178 210 -194 251 -194 c 0
 313 -194 368 -163 406 -57 c 0
 420 -18 432 27 440 78 c 0
 444 106 448 135 449 166 c 1
 407 75 339 -21 215 -21 c 0
 75 -21 27 68 27 172 c 0
 27 192 29 212 32 232 c 0
 37 262 45 292 55 320 c 0
 103 455 228 621 419 621 c 0
 534 621 550 536 550 493 c 0
 550 484 550 476 549 472 c 0
 546 453 520 435 493 432 c 2
 486 432 l 2
 464 432 449 443 449 458 c 0
 449 462 450 465 450 470 c 0
 450 499 432 549 394 549 c 0
 305 549 203 456 153 320 c 0
 144 294 137 268 133 244 c 0
 130 227 129 210 129 195 c 0
 129 109 170 51 240 51 c 0
 299 51 357 111 398 226 c 0
 411 263 421 301 429 336 c 0
 433 355 447 376 472 376 c 0
 496 376 530 356 530 356 c 1
EndSplineSet
EndChar

StartChar: h
Encoding: 104 104 76
Width: 660
VWidth: 0
GlyphClass: 2
Flags: HMW
LayerCount: 3
Layer: 2
SplineSet
66 -14 m 0
 52 -14 43 -2 43 11 c 0
 43 12 43 14 43 15 c 0
 84 276 132 675 132 786 c 0
 132 798 131 806 130 811 c 0
 130 813 130 816 130 818 c 0
 130 819 130 819 130 820 c 0
 133 836 150 851 173 858 c 0
 179 860 187 861 193 861 c 0
 212 861 228 853 231 839 c 0
 233 830 234 816 234 797 c 0
 234 722 218 575 199 425 c 1
 248 523 325 621 465 621 c 0
 564 621 593 560 593 476 c 0
 593 443 589 407 583 370 c 0
 563 244 549 136 534 31 c 0
 531 12 506 -7 479 -10 c 2
 471 -10 l 2
 449 -10 434 0 434 15 c 0
 434 16 434 18 434 19 c 0
 449 124 463 234 483 360 c 0
 489 396 491 426 491 450 c 0
 491 525 467 549 440 549 c 0
 355 549 287 461 235 324 c 0
 170 153 164 106 141 12 c 1
 141 12 97 -14 66 -14 c 0
EndSplineSet
EndChar

StartChar: i
Encoding: 105 105 77
Width: 330
VWidth: 0
GlyphClass: 2
Flags: HMW
LayerCount: 3
Layer: 2
SplineSet
304 842 m 0
 305 840 317 828 317 809 c 0
 317 806 316 804 316 801 c 0
 315 797 315 792 313 788 c 0
 304 762 265 725 210 725 c 0
 165 725 145 750 145 777 c 0
 145 780 145 783 145 786 c 0
 149 809 180 862 252 862 c 0
 258 862 263 861 267 860 c 2
 283 856 l 2
 293 853 300 848 304 842 c 0
162 -8 m 0
 150 -16 133 -21 119 -21 c 0
 108 -21 98 -18 91 -13 c 0
 68 5 61 29 61 57 c 0
 61 70 63 83 65 98 c 0
 68 117 72 137 76 158 c 0
 89 227 98 282 106 333 c 0
 117 403 126 469 140 564 c 0
 143 583 169 602 196 605 c 2
 204 605 l 2
 225 605 241 595 241 580 c 0
 241 579 240 577 240 576 c 0
 226 481 216 415 205 344 c 0
 197 292 189 238 176 168 c 2
 172 145 l 2
 167 116 165 94 165 78 c 0
 165 58 169 47 174 43 c 0
 180 38 183 32 183 25 c 0
 183 24 182 22 182 21 c 0
 180 11 174 0 162 -8 c 0
EndSplineSet
LCarets2: 1 0
EndChar

StartChar: j
Encoding: 106 106 78
Width: 330
VWidth: 0
GlyphClass: 2
Flags: HMW
LayerCount: 3
Layer: 2
SplineSet
198 605 m 0
 201 605 205 606 208 606 c 0
 230 606 245 595 245 579 c 0
 245 454 216 265 176 15 c 0
 154 -125 97 -202 -10 -241 c 0
 -18 -244 -28 -246 -36 -246 c 0
 -53 -246 -67 -239 -72 -228 c 0
 -73 -225 -73 -223 -73 -220 c 0
 -73 -219 -73 -217 -73 -216 c 0
 -71 -202 -56 -187 -36 -179 c 0
 12 -162 56 -129 77 5 c 0
 116 254 137 440 145 563 c 1
 146 566 l 2
 149 584 171 601 198 605 c 0
304 842 m 0
 306 840 317 828 317 809 c 0
 317 806 316 804 316 801 c 0
 315 797 315 792 313 788 c 0
 304 762 265 725 210 725 c 0
 165 725 144 750 144 777 c 0
 144 780 145 783 145 786 c 0
 149 809 180 862 252 862 c 0
 258 862 263 861 267 860 c 2
 283 856 l 2
 293 853 300 848 304 842 c 0
EndSplineSet
LCarets2: 2 0 0
EndChar

StartChar: k
Encoding: 107 107 79
Width: 610
VWidth: 0
GlyphClass: 2
Flags: HMW
LayerCount: 3
Layer: 2
SplineSet
181 843 m 0
 187 845 195 846 201 846 c 0
 220 846 236 838 239 824 c 0
 241 815 242 802 242 784 c 0
 242 711 226 569 205 414 c 1
 329 477 440 549 492 590 c 0
 505 600 524 606 540 606 c 0
 549 606 558 604 564 600 c 0
 572 595 576 588 576 580 c 0
 576 579 575 577 575 576 c 0
 574 567 568 558 558 550 c 0
 486 495 349 417 207 347 c 1
 370 261 505 78 526 46 c 0
 529 42 530 37 530 33 c 0
 530 32 530 31 530 30 c 0
 528 17 515 4 497 -4 c 0
 487 -9 476 -11 466 -11 c 0
 451 -11 438 -6 432 4 c 0
 415 29 311 180 184 265 c 1
 172 182 160 99 148 25 c 0
 145 6 120 -12 93 -15 c 2
 86 -15 l 2
 64 -15 48 -4 48 11 c 0
 48 12 48 14 48 15 c 0
 62 105 77 208 91 311 c 0
 90 311 90 312 89 312 c 2
 89 312 57 318 57 332 c 0
 57 333 l 0
 58 341 69 351 98 364 c 1
 121 543 140 709 140 773 c 0
 140 784 139 791 138 796 c 0
 138 798 137 801 137 803 c 0
 137 804 137 804 137 805 c 0
 140 821 158 836 181 843 c 0
EndSplineSet
EndChar

StartChar: l
Encoding: 108 108 80
Width: 340
VWidth: 0
GlyphClass: 2
Flags: HMW
LayerCount: 3
Layer: 2
SplineSet
255 3 m 0
 243 -12 220 -23 199 -23 c 0
 194 -23 190 -22 186 -21 c 0
 134 -8 67 26 67 120 c 0
 67 128 68 136 69 145 c 0
 81 246 94 333 107 415 c 0
 126 536 147 651 173 800 c 0
 176 819 201 837 228 840 c 2
 235 840 l 2
 257 840 273 829 273 814 c 0
 273 813 272 811 272 810 c 0
 246 661 225 546 206 425 c 0
 193 343 181 258 169 157 c 0
 168 148 167 140 167 133 c 0
 167 67 208 54 238 47 c 0
 254 43 263 34 263 22 c 0
 263 21 263 19 263 18 c 0
 262 13 259 8 255 3 c 0
EndSplineSet
EndChar

StartChar: m
Encoding: 109 109 81
Width: 945
VWidth: 0
GlyphClass: 2
Flags: HMW
LayerCount: 3
Layer: 2
SplineSet
391 -10 m 0
 377 -10 369 2 369 15 c 0
 369 16 369 18 369 19 c 0
 386 128 406 218 417 290 c 0
 427 355 432 404 432 441 c 0
 432 529 406 549 370 549 c 0
 317 549 253 501 212 366 c 0
 159 194 146 101 125 7 c 1
 125 7 86 -19 50 -19 c 0
 36 -19 27 -7 27 6 c 0
 27 7 28 9 28 10 c 0
 49 149 92 466 97 572 c 1
 97 575 l 2
 100 593 121 611 148 615 c 0
 152 616 156 616 159 616 c 0
 180 616 192 605 192 589 c 0
 192 588 l 0
 190 558 186 513 180 461 c 1
 222 547 286 621 395 621 c 0
 488 621 522 566 526 474 c 1
 568 555 631 621 735 621 c 0
 838 621 871 557 871 453 c 0
 871 409 866 357 857 300 c 0
 845 226 825 134 809 30 c 0
 806 11 780 -7 753 -10 c 2
 746 -10 l 2
 724 -10 709 1 709 16 c 0
 709 17 709 19 709 20 c 0
 726 126 746 218 757 290 c 0
 767 355 772 404 772 441 c 0
 772 529 746 549 710 549 c 0
 657 549 593 501 552 366 c 0
 499 194 488 111 467 16 c 1
 467 16 427 -10 391 -10 c 0
EndSplineSet
EndChar

StartChar: n
Encoding: 110 110 82
Width: 655
VWidth: 0
GlyphClass: 2
Flags: HMW
LayerCount: 3
Layer: 2
SplineSet
63 -15 m 0
 46 -15 33 -3 33 11 c 0
 33 12 33 14 33 15 c 0
 68 242 86 417 86 509 c 0
 86 535 85 554 82 566 c 0
 82 568 81 571 81 573 c 0
 81 574 81 574 81 575 c 0
 84 591 101 606 124 613 c 0
 130 615 139 616 145 616 c 0
 164 616 179 608 182 594 c 0
 186 577 188 554 188 525 c 0
 188 491 185 449 181 399 c 1
 228 505 303 621 455 621 c 0
 554 621 583 560 583 476 c 0
 583 443 579 407 573 370 c 0
 553 244 539 136 524 31 c 0
 521 12 496 -7 469 -10 c 2
 461 -10 l 2
 439 -10 424 0 424 15 c 0
 424 16 424 18 424 19 c 0
 439 124 453 234 473 360 c 0
 479 396 481 426 481 450 c 0
 481 525 457 549 430 549 c 0
 345 549 282 461 230 324 c 0
 165 153 154 106 131 10 c 1
 131 10 94 -15 63 -15 c 0
EndSplineSet
EndChar

StartChar: o
Encoding: 111 111 83
Width: 650
VWidth: 0
GlyphClass: 2
Flags: HMW
LayerCount: 3
Layer: 2
SplineSet
466 471 m 1
 455 527 405 552 356 552 c 0
 343 552 331 550 319 547 c 0
 259 531 168 464 142 300 c 0
 138 278 137 257 137 238 c 0
 137 102 221 51 286 51 c 0
 290 51 294 52 298 52 c 0
 358 58 460 119 486 285 c 0
 488 296 489 308 489 320 c 0
 489 365 477 408 467 416 c 1
 454 421 446 429 446 440 c 0
 446 447 448 454 454 460 c 0
 457 464 462 468 466 471 c 1
555 465 m 1
 581 439 591 395 591 350 c 0
 591 332 589 313 586 295 c 0
 558 119 438 -3 288 -19 c 0
 278 -20 267 -21 257 -21 c 0
 126 -21 37 72 37 223 c 0
 37 244 38 266 42 290 c 0
 70 468 177 580 309 614 c 0
 335 621 360 624 384 624 c 0
 480 624 554 572 566 493 c 0
 566 492 566 492 566 491 c 0
 566 489 566 487 566 486 c 0
 565 479 561 472 555 465 c 1
EndSplineSet
EndChar

StartChar: p
Encoding: 112 112 84
Width: 675
VWidth: 0
GlyphClass: 2
Flags: HMW
LayerCount: 3
Layer: 2
SplineSet
43 -246 m 2
 38 -246 l 2
 16 -246 2 -233 2 -218 c 0
 2 -217 2 -215 2 -214 c 2
 2 -213 l 1
 17 -147 39 -24 57 89 c 0
 68 156 77 219 83 264 c 0
 90 318 94 370 94 415 c 0
 94 484 86 538 70 565 c 0
 69 569 68 572 68 576 c 0
 68 577 68 579 68 580 c 0
 70 593 82 606 100 614 c 0
 110 618 120 620 129 620 c 0
 143 620 155 615 160 605 c 0
 175 574 182 530 182 476 c 1
 223 552 288 621 400 621 c 0
 556 621 613 509 613 387 c 0
 613 365 612 342 608 320 c 0
 603 291 595 262 586 235 c 0
 543 118 438 -16 265 -16 c 0
 208 -16 169 4 143 33 c 1
 133 -32 l 2
 122 -101 111 -165 101 -207 c 0
 97 -226 70 -244 43 -246 c 2
165 174 m 1
 174 116 209 56 291 56 c 0
 370 56 447 121 488 235 c 0
 497 259 503 283 507 307 c 0
 510 326 511 344 511 362 c 0
 511 468 460 549 375 549 c 0
 299 549 241 468 198 348 c 0
 192 332 187 316 182 301 c 2
 165 174 l 1
EndSplineSet
EndChar

StartChar: q
Encoding: 113 113 85
Width: 660
VWidth: 0
GlyphClass: 2
Flags: HMW
LayerCount: 3
Layer: 2
SplineSet
395 58 m 0
 396 55 396 53 396 50 c 0
 396 49 396 47 396 46 c 0
 394 32 379 17 359 9 c 0
 311 -8 266 -17 225 -17 c 0
 81 -17 29 80 29 191 c 0
 29 211 31 232 34 253 c 0
 39 282 47 312 57 339 c 0
 104 469 225 621 420 621 c 0
 513 621 580 562 580 492 c 0
 580 486 580 481 579 475 c 0
 555 322 516 151 495 17 c 0
 485 -47 476 -104 476 -142 c 0
 476 -162 478 -177 484 -186 c 1
 485 -185 486 -185 487 -184 c 0
 499 -177 511 -174 523 -174 c 0
 536 -174 549 -178 556 -185 c 0
 560 -190 562 -196 562 -202 c 0
 562 -203 562 -204 562 -205 c 0
 560 -216 551 -228 537 -236 c 0
 514 -249 484 -261 454 -261 c 0
 449 -261 444 -261 439 -260 c 0
 420 -257 405 -251 399 -241 c 0
 384 -220 379 -188 379 -148 c 0
 379 -104 386 -51 395 7 c 0
 417 143 456 314 480 465 c 0
 480 468 481 471 481 474 c 0
 481 516 433 549 395 549 c 0
 293 549 200 465 155 339 c 0
 146 314 140 289 136 266 c 0
 133 248 132 231 132 215 c 0
 132 121 178 54 251 54 c 0
 272 54 299 59 333 71 c 0
 341 74 351 76 359 76 c 0
 376 76 390 69 395 58 c 0
EndSplineSet
EndChar

StartChar: r
Encoding: 114 114 86
Width: 480
VWidth: 0
GlyphClass: 2
Flags: HMW
LayerCount: 3
Layer: 2
SplineSet
124 -13 m 0
 111 -13 103 0 103 12 c 0
 103 13 103 13 103 14 c 0
 118 143 132 225 132 341 c 0
 132 344 132 348 132 351 c 0
 132 456 100 527 62 536 c 0
 47 540 39 550 39 561 c 0
 39 562 39 564 39 565 c 0
 40 571 43 577 48 582 c 0
 60 596 84 606 104 606 c 0
 109 606 114 605 119 604 c 0
 182 586 204 523 211 453 c 1
 241 533 290 615 389 621 c 1
 401 621 l 2
 438 621 469 609 498 589 c 0
 506 584 509 577 509 570 c 0
 509 569 509 567 509 566 c 0
 508 557 501 547 490 539 c 0
 476 529 460 524 445 524 c 0
 435 524 425 526 419 531 c 0
 395 548 378 549 372 549 c 0
 353 549 296 494 270 382 c 0
 247 284 238 229 229 175 c 2
 224 147 l 2
 218 112 213 80 201 15 c 1
 201 15 166 -13 124 -13 c 0
EndSplineSet
EndChar

StartChar: s
Encoding: 115 115 87
Width: 560
VWidth: 0
GlyphClass: 2
Flags: HMW
LayerCount: 3
Layer: 2
SplineSet
57 158 m 0
 63 160 72 161 78 161 c 0
 97 161 112 153 115 139 c 0
 128 83 172 52 244 52 c 0
 299 52 338 70 363 98 c 0
 378 114 387 132 390 150 c 0
 391 154 391 158 391 162 c 0
 391 196 369 228 318 245 c 0
 291 255 197 289 167 300 c 0
 94 326 60 375 60 427 c 0
 60 433 60 439 61 445 c 0
 62 453 64 461 67 469 c 0
 96 550 206 626 346 626 c 0
 446 626 494 570 494 508 c 0
 494 502 493 496 492 489 c 0
 491 483 491 477 489 471 c 0
 483 452 456 435 429 434 c 2
 427 434 l 2
 405 434 390 446 390 461 c 0
 390 462 390 464 390 465 c 2
 390 469 l 2
 392 473 392 476 393 480 c 0
 394 484 394 487 394 491 c 0
 394 527 364 554 321 554 c 0
 230 554 175 514 159 469 c 0
 157 465 157 461 156 457 c 0
 156 454 155 451 155 448 c 0
 155 418 178 388 230 370 c 0
 262 359 355 324 381 315 c 0
 456 290 489 242 489 189 c 0
 489 182 488 174 487 167 c 0
 482 134 465 100 437 71 c 0
 390 20 310 -20 219 -20 c 0
 101 -20 33 37 15 111 c 0
 14 114 14 117 14 120 c 0
 17 136 34 151 57 158 c 0
EndSplineSet
EndChar

StartChar: t
Encoding: 116 116 88
Width: 460
VWidth: 0
GlyphClass: 2
Flags: HMW
LayerCount: 3
Layer: 2
SplineSet
237 750 m 0
 240 750 244 751 247 751 c 0
 269 751 283 740 283 725 c 0
 283 710 280 694 278 679 c 0
 273 650 268 622 263 593 c 1
 296 593 342 594 394 596 c 2
 396 596 l 2
 418 596 434 585 434 570 c 0
 434 569 434 567 434 566 c 2
 433 562 l 2
 427 543 400 525 373 524 c 0
 327 522 289 522 257 522 c 1
 235 394 207 270 189 155 c 0
 188 146 187 138 187 130 c 0
 187 98 198 74 213 62 c 0
 220 56 228 51 240 51 c 0
 256 51 278 59 315 83 c 0
 327 91 343 96 357 96 c 0
 368 96 379 93 386 87 c 0
 392 82 394 76 394 69 c 0
 394 68 394 66 394 65 c 0
 392 55 386 45 374 37 c 0
 318 0 261 -18 213 -18 c 0
 180 -18 150 -9 129 8 c 0
 99 32 86 69 86 110 c 0
 86 121 87 133 89 145 c 0
 108 266 137 394 159 524 c 1
 132 525 106 526 76 529 c 0
 56 531 44 541 44 555 c 0
 44 561 45 564 47 569 c 0
 57 587 83 601 108 601 c 2
 113 601 l 2
 134 599 156 597 174 596 c 1
 179 633 180 671 183 708 c 2
 183 709 l 2
 186 728 210 746 237 750 c 0
EndSplineSet
EndChar

StartChar: u
Encoding: 117 117 89
Width: 670
VWidth: 0
GlyphClass: 2
Flags: HMW
LayerCount: 3
Layer: 2
SplineSet
593 592 m 1
 566 408 555 285 555 203 c 0
 555 110 569 68 592 45 c 0
 596 40 598 35 598 29 c 0
 598 28 598 27 598 26 c 0
 596 15 587 3 573 -5 c 0
 561 -12 545 -16 532 -16 c 0
 520 -16 510 -13 504 -5 c 0
 479 30 465 83 465 173 c 1
 418 74 346 -21 215 -21 c 0
 104 -21 51 48 51 160 c 0
 51 182 53 205 57 230 c 0
 66 289 77 347 86 402 c 0
 96 463 104 520 106 567 c 1
 106 570 l 2
 109 588 132 606 159 610 c 0
 163 611 166 611 169 611 c 0
 190 611 206 600 206 584 c 0
 206 534 195 475 185 413 c 0
 176 358 166 299 157 240 c 0
 153 217 152 196 152 178 c 0
 152 80 199 51 240 51 c 0
 308 51 368 109 417 245 c 0
 453 346 476 468 496 571 c 0
 500 590 525 611 548 611 c 0
 570 611 593 592 593 592 c 1
EndSplineSet
EndChar

StartChar: v
Encoding: 118 118 90
Width: 600
VWidth: 0
GlyphClass: 2
Flags: HMW
LayerCount: 3
Layer: 2
SplineSet
575 591 m 2
 595 590 608 579 608 565 c 0
 608 560 607 557 606 553 c 0
 568 469 434 222 288 12 c 1
 288 12 248 -18 220 -18 c 0
 207 -18 196 -11 193 7 c 0
 192 10 191 14 191 18 c 0
 168 143 108 420 51 547 c 0
 50 550 49 555 49 558 c 0
 49 559 49 559 49 560 c 0
 51 574 65 588 85 596 c 0
 93 599 103 601 111 601 c 0
 128 601 143 594 148 583 c 0
 197 475 241 270 271 129 c 1
 382 302 481 494 510 557 c 0
 519 575 548 591 573 591 c 2
 575 591 l 2
EndSplineSet
EndChar

StartChar: w
Encoding: 119 119 91
Width: 810
VWidth: 0
GlyphClass: 2
Flags: HMW
LayerCount: 3
Layer: 2
SplineSet
783 601 m 2
 803 599 815 589 815 575 c 0
 815 569 814 566 812 561 c 0
 739 419 674 253 575 18 c 1
 575 18 530 -11 501 -11 c 0
 489 -11 481 -6 478 7 c 0
 462 93 432 307 407 429 c 1
 343 297 248 80 213 11 c 1
 213 11 168 -15 140 -15 c 0
 128 -15 119 -10 117 4 c 0
 100 197 73 435 54 552 c 0
 54 553 l 0
 54 555 55 557 55 559 c 0
 58 575 76 592 99 598 c 0
 105 600 111 600 117 600 c 0
 136 600 152 592 155 578 c 0
 169 490 190 300 200 148 c 1
 267 298 362 513 386 545 c 0
 405 570 422 578 435 578 c 0
 457 578 469 554 469 554 c 1
 485 523 523 303 547 148 c 1
 604 299 665 459 722 569 c 0
 732 587 754 601 778 601 c 2
 783 601 l 2
EndSplineSet
EndChar

StartChar: x
Encoding: 120 120 92
Width: 590
VWidth: 0
GlyphClass: 2
Flags: HMW
LayerCount: 3
Layer: 2
SplineSet
128 595 m 0
 138 599 147 601 156 601 c 0
 173 601 187 594 192 584 c 0
 229 514 260 449 292 393 c 1
 345 449 403 513 471 580 c 0
 484 593 504 600 522 600 c 0
 529 600 536 599 542 597 c 0
 553 593 559 584 559 574 c 0
 559 573 559 572 559 570 c 0
 558 563 554 557 548 550 c 0
 465 466 392 397 328 329 c 1
 377 247 434 166 508 62 c 0
 510 58 511 54 511 50 c 0
 511 49 511 48 511 46 c 0
 509 34 498 20 481 12 c 0
 470 7 459 5 449 5 c 0
 434 5 422 9 415 18 c 0
 352 107 305 185 262 256 c 1
 198 185 132 106 56 18 c 0
 44 4 21 -6 1 -6 c 0
 -4 -6 -10 -5 -15 -4 c 0
 -28 0 -35 10 -35 20 c 0
 -35 29 -32 35 -26 42 c 0
 66 148 145 234 225 320 c 1
 185 389 141 460 96 546 c 0
 95 548 94 551 94 554 c 0
 94 556 95 558 95 560 c 0
 97 573 109 587 128 595 c 0
EndSplineSet
EndChar

StartChar: y
Encoding: 121 121 93
Width: 600
VWidth: 0
GlyphClass: 2
Flags: HMW
LayerCount: 3
Layer: 2
SplineSet
585 573 m 1
 535 382 507 283 463 151 c 0
 414 5 374 -131 287 -207 c 0
 248 -241 200 -257 151 -257 c 0
 112 -257 72 -247 33 -228 c 0
 23 -223 18 -215 18 -206 c 0
 18 -205 18 -203 18 -202 c 0
 19 -194 27 -183 35 -176 c 0
 48 -165 67 -154 84 -154 c 0
 92 -154 99 -156 106 -159 c 0
 139 -177 156 -185 173 -185 c 0
 193 -185 204 -177 215 -169 c 0
 268 -130 315 -24 360 106 c 1
 321 49 276 4 209 4 c 0
 62 4 73 223 65 560 c 1
 65 564 l 2
 68 582 89 599 115 604 c 0
 120 605 125 605 129 605 c 0
 149 605 166 596 166 581 c 0
 166 580 l 0
 167 247 178 89 235 76 c 1
 265 80 336 156 383 262 c 0
 424 356 459 478 485 559 c 0
 491 575 511 594 532 594 c 0
 562 594 585 573 585 573 c 1
EndSplineSet
EndChar

StartChar: z
Encoding: 122 122 94
Width: 570
VWidth: 0
GlyphClass: 2
Flags: HMW
LayerCount: 3
Layer: 2
SplineSet
485 38 m 2
 481 19 452 0 422 -3 c 0
 376 -7 271 -17 175 -17 c 0
 71 -17 -22 -5 -22 38 c 0
 -22 40 -22 41 -22 43 c 0
 -10 118 189 305 401 529 c 1
 354 527 311 525 268 525 c 0
 221 525 172 527 110 530 c 0
 88 532 75 541 75 555 c 0
 75 561 76 564 78 569 c 0
 89 588 117 602 144 602 c 2
 149 602 l 2
 207 599 253 597 296 597 c 0
 360 597 418 601 506 606 c 1
 520 606 l 2
 550 606 559 599 559 589 c 0
 559 575 540 558 540 558 c 0
 331 335 132 134 94 68 c 1
 121 63 175 61 234 61 c 0
 306 61 386 64 439 69 c 1
 447 69 l 2
 470 69 485 58 485 43 c 0
 485 42 485 40 485 39 c 2
 485 38 l 2
EndSplineSet
EndChar

StartChar: braceleft
Encoding: 123 123 95
Width: 360
VWidth: 0
GlyphClass: 2
Flags: HMW
LayerCount: 3
Layer: 2
SplineSet
375 860 m 2
 369 844 347 831 326 831 c 0
 315 831 306 831 299 830 c 0
 273 826 262 810 256 772 c 0
 252 745 251 707 249 655 c 0
 247 620 248 583 242 548 c 0
 233 491 209 437 143 399 c 1
 179 369 190 332 190 292 c 0
 190 277 188 262 186 247 c 0
 181 218 174 190 167 164 c 0
 155 121 146 85 141 55 c 0
 139 44 138 33 138 24 c 0
 138 -12 154 -31 201 -31 c 0
 219 -31 230 -40 230 -53 c 0
 230 -54 230 -55 230 -56 c 2
 229 -60 l 2
 223 -76 201 -89 180 -89 c 0
 83 -89 56 -45 56 11 c 0
 56 22 57 34 59 46 c 0
 65 85 79 126 88 160 c 0
 95 186 101 211 105 235 c 0
 107 249 109 262 109 275 c 0
 109 318 93 354 46 375 c 0
 30 382 25 389 25 395 c 0
 25 396 25 396 25 397 c 0
 28 414 69 427 69 427 c 1
 127 442 150 482 160 546 c 0
 164 573 167 605 169 641 c 0
 171 678 168 721 174 761 c 0
 183 819 212 871 302 885 c 0
 316 887 332 889 347 889 c 0
 365 889 376 880 376 867 c 0
 376 866 376 865 376 864 c 2
 375 860 l 2
EndSplineSet
EndChar

StartChar: bar
Encoding: 124 124 96
Width: 360
VWidth: 0
GlyphClass: 2
Flags: HMW
LayerCount: 3
Layer: 2
SplineSet
255 890 m 0
 257 890 258 890 260 890 c 0
 279 890 292 880 292 867 c 0
 292 866 292 865 292 864 c 0
 269 688 247 537 220 368 c 0
 200 242 178 107 151 -57 c 0
 148 -74 128 -88 106 -90 c 0
 104 -90 103 -90 101 -90 c 0
 83 -90 70 -81 70 -67 c 0
 70 -66 70 -64 70 -63 c 0
 97 101 119 237 139 362 c 0
 166 531 188 680 211 856 c 0
 214 872 233 888 255 890 c 0
EndSplineSet
EndChar

StartChar: braceright
Encoding: 125 125 97
Width: 360
VWidth: 0
GlyphClass: 2
Flags: HMW
LayerCount: 3
Layer: 2
SplineSet
-9 -60 m 2
 -3 -44 20 -31 41 -31 c 0
 52 -31 60 -31 67 -30 c 0
 93 -26 104 -10 110 28 c 0
 114 55 116 93 118 145 c 0
 120 180 119 217 125 252 c 0
 134 309 158 363 224 401 c 1
 188 431 177 468 177 508 c 0
 177 523 179 538 181 553 c 0
 186 582 193 610 200 636 c 0
 212 679 221 715 226 745 c 0
 228 756 229 767 229 776 c 0
 229 812 213 831 166 831 c 0
 148 831 137 840 137 853 c 0
 137 854 137 855 137 856 c 2
 137 860 l 2
 143 876 166 889 187 889 c 0
 284 889 310 845 310 790 c 0
 310 778 309 766 307 754 c 0
 301 715 287 674 278 640 c 0
 271 614 265 589 261 565 c 0
 259 551 257 538 257 525 c 0
 257 482 273 446 320 425 c 0
 336 418 342 411 342 404 c 0
 342 403 l 0
 339 386 298 373 298 373 c 1
 240 358 216 318 206 254 c 0
 202 227 200 195 198 159 c 0
 196 122 199 79 193 39 c 0
 184 -19 155 -71 65 -85 c 0
 51 -87 35 -89 20 -89 c 0
 2 -89 -9 -80 -9 -67 c 0
 -9 -66 -9 -65 -9 -64 c 2
 -9 -60 l 2
EndSplineSet
EndChar

StartChar: asciitilde
Encoding: 126 126 98
Width: 600
VWidth: 0
GlyphClass: 2
Flags: HMW
LayerCount: 3
Layer: 2
SplineSet
518 421 m 2
 538 419 551 408 551 394 c 0
 551 389 550 386 549 382 c 0
 538 358 517 329 489 302 c 0
 464 279 421 249 368 249 c 0
 325 249 299 267 281 283 c 0
 257 304 239 328 222 344 c 0
 209 357 199 359 194 359 c 0
 193 359 189 358 177 348 c 0
 159 332 143 308 133 290 c 0
 123 273 98 260 74 260 c 2
 67 260 l 2
 48 262 37 274 37 287 c 0
 37 293 39 295 41 300 c 0
 53 322 72 353 103 382 c 0
 127 404 168 431 219 431 c 0
 262 431 290 414 309 396 c 0
 332 376 348 350 365 335 c 0
 378 323 389 321 394 321 c 2
 395 321 l 2
 397 321 402 322 414 334 c 0
 430 349 446 374 453 388 c 0
 462 406 489 421 514 421 c 2
 518 421 l 2
EndSplineSet
EndChar

StartChar: exclamdown
Encoding: 161 161 99
Width: 330
VWidth: 0
GlyphClass: 2
Flags: HMW
LayerCount: 3
Layer: 2
SplineSet
116 489 m 256
 115 491 104 503 104 522 c 0
 104 525 105 527 105 530 c 256
 106 534 106 539 108 543 c 256
 117 569 156 606 211 606 c 256
 256 606 276 581 276 554 c 0
 276 551 275 548 275 545 c 256
 271 522 241 469 169 469 c 256
 163 469 158 470 154 471 c 258
 138 475 l 258
 128 478 120 483 116 489 c 256
98 -227 m 258
 57 -234 l 258
 54 -235 50 -235 46 -235 c 256
 32 -235 16 -230 16 -215 c 0
 16 -214 17 -212 17 -211 c 258
 17 -210 l 258
 33 -124 52 27 112 298 c 256
 116 316 147 333 170 333 c 256
 184 333 194 327 194 311 c 0
 194 309 193 308 193 306 c 256
 179 168 141 -108 138 -193 c 256
 138 -194 138 -194 138 -195 c 256
 136 -210 116 -224 98 -227 c 258
EndSplineSet
EndChar

StartChar: cent
Encoding: 162 162 100
Width: 600
VWidth: 0
GlyphClass: 2
Flags: HMW
LayerCount: 3
Layer: 2
SplineSet
255 -130 m 0
 254 -130 252 -130 251 -130 c 0
 235 -130 224 -119 224 -105 c 0
 224 -45 238 16 246 69 c 1
 134 80 52 158 52 306 c 0
 52 329 54 354 58 380 c 0
 87 566 210 680 345 707 c 1
 355 766 365 830 377 898 c 0
 380 914 398 929 417 930 c 0
 418 930 418 930 419 930 c 0
 436 930 448 919 448 905 c 0
 448 839 426 771 416 714 c 1
 504 710 568 661 568 587 c 0
 568 580 567 573 566 565 c 0
 563 545 536 526 508 523 c 2
 501 523 l 2
 478 523 461 535 461 551 c 0
 461 557 462 563 462 569 c 0
 462 606 437 629 403 636 c 1
 390 559 377 486 366 414 c 0
 352 327 339 240 326 146 c 1
 369 152 411 174 436 206 c 0
 449 222 472 233 494 233 c 0
 499 233 504 232 509 231 c 0
 525 227 534 216 534 204 c 0
 534 196 531 190 526 184 c 0
 479 124 399 82 316 71 c 1
 309 18 303 -37 295 -97 c 2
 294 -98 l 2
 292 -113 273 -128 255 -130 c 0
257 151 m 1
 269 242 282 326 295 410 c 0
 306 482 319 553 332 630 c 1
 272 610 189 546 164 390 c 0
 160 364 158 341 158 320 c 0
 158 215 206 168 257 151 c 1
EndSplineSet
EndChar

StartChar: sterling
Encoding: 163 163 101
Width: 720
VWidth: 0
GlyphClass: 2
Flags: HMW
LayerCount: 3
Layer: 2
SplineSet
92 474 m 0
 101 490 125 501 147 501 c 0
 149 501 150 501 152 501 c 0
 176 499 206 496 242 495 c 1
 244 539 248 583 252 624 c 0
 253 629 252 635 253 640 c 0
 268 737 344 819 448 831 c 0
 456 832 465 833 473 833 c 0
 544 833 602 795 633 732 c 0
 634 728 635 724 635 720 c 0
 635 718 635 717 635 715 c 0
 633 700 620 685 600 676 c 0
 590 672 579 670 569 670 c 0
 552 670 538 676 532 688 c 0
 507 738 470 751 447 751 c 0
 444 751 442 751 440 751 c 0
 418 748 371 725 359 651 c 0
 358 646 359 641 358 636 c 0
 354 591 348 543 342 493 c 1
 355 493 368 493 381 493 c 0
 434 493 489 494 539 496 c 0
 540 496 541 496 542 496 c 0
 562 496 574 487 574 474 c 0
 574 471 573 469 573 467 c 0
 567 450 543 435 519 434 c 0
 467 432 410 431 356 431 c 0
 349 431 341 431 334 431 c 1
 328 389 324 347 318 305 c 2
 304 213 l 1
 310 208 316 202 322 197 c 0
 343 178 365 161 383 145 c 0
 445 91 479 71 512 71 c 0
 514 71 515 71 516 71 c 0
 534 72 554 97 562 145 c 0
 564 157 565 171 565 186 c 0
 565 191 565 196 565 201 c 0
 565 203 566 204 566 206 c 0
 569 226 592 245 619 250 c 0
 623 251 626 251 630 251 c 0
 654 251 672 238 672 219 c 0
 672 205 671 186 668 164 c 0
 658 98 623 11 517 -8 c 0
 508 -10 496 -11 487 -11 c 0
 414 -11 363 50 306 100 c 0
 298 107 289 117 280 125 c 1
 278 118 276 106 273 100 c 0
 258 63 241 25 190 4 c 0
 175 -2 157 -6 142 -6 c 0
 39 -6 7 60 7 119 c 0
 7 128 8 137 9 145 c 0
 11 156 13 167 17 177 c 0
 34 221 86 276 171 276 c 0
 192 276 208 271 223 265 c 1
 224 274 225 285 227 295 c 0
 233 341 237 388 240 433 c 1
 192 434 150 436 117 439 c 0
 99 441 89 450 89 462 c 0
 89 467 91 470 92 474 c 0
209 182 m 1
 204 186 198 189 193 193 c 0
 170 208 150 214 147 214 c 0
 134 214 118 210 105 177 c 0
 102 170 100 163 99 155 c 0
 98 149 98 143 98 137 c 0
 98 92 124 59 161 56 c 1
 173 68 190 105 203 157 c 0
 205 165 208 173 209 182 c 1
EndSplineSet
EndChar

StartChar: brokenbar
Encoding: 166 166 102
Width: 360
VWidth: 0
GlyphClass: 2
Flags: HMW
LayerCount: 3
Layer: 2
SplineSet
255 890 m 0
 257 890 258 890 260 890 c 0
 279 890 292 880 292 867 c 0
 292 866 292 865 292 864 c 0
 276 745 257 614 241 504 c 0
 238 488 217 472 195 470 c 0
 193 470 192 470 190 470 c 0
 172 470 159 480 159 493 c 0
 159 494 160 495 160 496 c 0
 176 606 195 737 211 856 c 0
 214 872 233 888 255 890 c 0
173 330 m 0
 175 330 176 330 178 330 c 0
 196 330 209 320 209 307 c 0
 209 306 209 305 209 304 c 0
 195 217 169 49 151 -57 c 0
 148 -74 128 -88 106 -90 c 0
 104 -90 103 -90 101 -90 c 0
 83 -90 70 -81 70 -67 c 0
 70 -66 70 -64 70 -63 c 0
 88 43 114 209 128 296 c 0
 131 312 151 328 173 330 c 0
EndSplineSet
EndChar

StartChar: dieresis
Encoding: 168 168 103
Width: 450
VWidth: 0
GlyphClass: 2
Flags: HMW
LayerCount: 3
Layer: 2
SplineSet
485 842 m 0
 487 840 498 828 498 809 c 0
 498 806 497 804 497 801 c 0
 496 797 496 792 494 788 c 0
 485 762 451 725 396 725 c 0
 352 725 335 749 335 775 c 0
 335 779 335 782 336 786 c 0
 340 809 366 862 438 862 c 0
 444 862 449 861 453 860 c 2
 464 856 l 2
 474 853 481 848 485 842 c 0
233 842 m 0
 235 840 246 828 246 809 c 0
 246 806 245 804 245 801 c 0
 244 797 244 792 242 788 c 0
 233 762 199 725 144 725 c 0
 100 725 83 749 83 775 c 0
 83 779 83 782 84 786 c 0
 88 809 114 862 186 862 c 0
 192 862 197 861 201 860 c 2
 212 856 l 2
 222 853 229 848 233 842 c 0
EndSplineSet
EndChar

StartChar: copyright
Encoding: 169 169 104
Width: 1020
VWidth: 0
GlyphClass: 2
Flags: HMW
LayerCount: 3
Layer: 2
SplineSet
901 604 m 1
 932 568 946 518 946 462 c 0
 946 443 944 423 941 403 c 0
 936 374 929 344 918 314 c 0
 858 153 697 -27 440 -27 c 0
 211 -27 78 132 78 315 c 0
 78 335 80 355 83 376 c 0
 89 416 98 454 112 490 c 0
 184 684 359 827 576 827 c 0
 813 827 887 695 909 628 c 0
 910 626 910 623 910 621 c 0
 909 616 906 609 901 604 c 1
840 598 m 0
 838 600 837 602 836 604 c 0
 815 665 750 773 555 773 c 0
 397 773 253 672 186 490 c 0
 174 457 164 421 158 384 c 0
 155 365 154 347 154 329 c 0
 154 161 279 27 460 27 c 0
 653 27 789 160 845 314 c 0
 854 341 861 367 865 393 c 0
 868 412 870 431 870 449 c 0
 870 499 858 541 834 568 c 0
 832 571 830 574 830 578 c 0
 830 579 830 580 830 581 c 0
 831 587 835 593 840 598 c 0
632 292 m 0
 645 288 653 280 653 270 c 0
 653 269 653 267 653 266 c 0
 652 261 651 257 647 252 c 0
 614 208 554 177 493 171 c 0
 485 170 477 170 469 170 c 0
 379 170 312 225 312 334 c 0
 312 349 313 366 316 383 c 0
 337 517 432 601 538 612 c 0
 545 613 553 613 560 613 c 0
 628 613 677 578 677 524 c 0
 677 519 677 514 676 509 c 0
 673 492 649 475 625 472 c 2
 618 472 l 2
 598 472 584 482 584 496 c 0
 584 500 585 504 585 508 c 0
 585 536 560 549 535 549 c 2
 528 549 l 2
 498 546 426 515 407 393 c 0
 404 376 403 361 403 347 c 0
 403 256 458 234 495 234 c 2
 503 234 l 2
 528 237 555 250 570 270 c 0
 580 284 601 293 620 293 c 0
 624 293 628 293 632 292 c 0
EndSplineSet
EndChar

StartChar: guillemotleft
Encoding: 171 171 105
Width: 720
VWidth: 0
GlyphClass: 2
Flags: HMW
LayerCount: 3
Layer: 2
SplineSet
585 74 m 0
 574 68 563 65 553 65 c 0
 542 65 533 69 526 76 c 0
 477 129 381 234 332 320 c 0
 330 323 329 327 329 331 c 0
 329 332 329 333 329 334 c 0
 330 343 337 352 346 360 c 0
 437 430 556 537 593 589 c 0
 605 605 622 616 641 616 c 0
 645 616 647 616 651 615 c 0
 665 612 670 605 670 596 c 0
 670 595 670 594 670 592 c 0
 669 586 665 578 660 571 c 0
 616 510 532 417 438 341 c 1
 485 265 553 171 596 124 c 0
 602 118 604 110 604 102 c 0
 604 101 604 99 604 98 c 0
 603 89 597 80 585 74 c 0
315 74 m 0
 304 68 293 65 283 65 c 0
 272 65 263 69 256 76 c 0
 207 129 111 234 62 320 c 0
 60 323 59 327 59 331 c 0
 59 332 59 333 59 334 c 0
 60 343 67 352 76 360 c 0
 167 430 286 537 323 589 c 0
 335 605 352 616 371 616 c 0
 375 616 377 616 381 615 c 0
 395 612 400 605 400 596 c 0
 400 595 400 594 400 592 c 0
 399 586 395 578 390 571 c 0
 346 510 262 417 168 341 c 1
 215 265 283 171 326 124 c 0
 332 118 334 110 334 102 c 0
 334 101 334 99 334 98 c 0
 333 89 327 80 315 74 c 0
EndSplineSet
EndChar

StartChar: logicalnot
Encoding: 172 172 106
Width: 600
VWidth: 0
GlyphClass: 2
Flags: HMW
LayerCount: 3
Layer: 2
SplineSet
412 175 m 0
 411 175 409 175 408 175 c 0
 388 175 372 187 372 203 c 0
 372 204 372 206 372 207 c 0
 388 303 l 1
 356 302 325 302 296 302 c 0
 214 302 144 305 84 310 c 0
 65 312 54 323 54 337 c 0
 54 341 54 345 56 349 c 0
 64 367 87 380 110 380 c 0
 112 380 113 380 115 380 c 0
 168 375 232 372 307 372 c 0
 350 372 397 373 447 375 c 0
 448 375 448 375 449 375 c 0
 468 375 484 363 484 347 c 0
 484 346 484 344 484 343 c 0
 463 213 l 0
 460 194 436 177 412 175 c 0
EndSplineSet
EndChar

StartChar: registered
Encoding: 174 174 107
Width: 810
VWidth: 0
GlyphClass: 2
Flags: HMW
LayerCount: 3
Layer: 2
SplineSet
748 794 m 1
 771 767 782 728 782 686 c 0
 782 672 781 658 779 644 c 0
 776 623 769 601 762 579 c 0
 718 457 596 319 400 319 c 0
 227 319 125 438 125 576 c 0
 125 591 127 607 129 622 c 0
 134 651 141 678 150 704 c 0
 203 852 336 961 501 961 c 0
 680 961 737 862 754 812 c 0
 754 811 754 811 754 810 c 0
 754 809 754 807 754 806 c 0
 753 802 752 798 748 794 c 1
697 788 m 0
 696 789 695 791 694 792 c 0
 678 838 632 919 487 919 c 0
 369 919 259 842 209 704 c 0
 200 680 193 655 189 628 c 0
 187 614 186 600 186 587 c 0
 186 461 280 361 414 361 c 0
 559 361 662 463 703 579 c 0
 710 598 715 617 718 635 c 0
 720 648 721 661 721 674 c 0
 721 713 711 746 693 766 c 0
 691 768 690 770 690 772 c 0
 690 773 691 775 691 776 c 0
 692 780 693 784 697 788 c 0
351 469 m 2
 346 469 l 2
 330 469 319 477 319 488 c 0
 319 489 319 490 319 491 c 2
 319 492 l 2
 325 524 332 559 337 592 c 0
 344 639 350 683 350 710 c 1
 351 713 l 2
 352 718 354 722 358 726 c 1
 355 726 353 725 351 725 c 0
 339 725 329 730 324 737 c 0
 322 739 321 742 321 745 c 0
 321 746 321 747 321 748 c 0
 323 758 333 768 347 774 c 0
 405 798 454 809 494 809 c 0
 546 809 581 792 598 764 c 0
 605 753 608 739 608 725 c 0
 608 720 608 716 607 711 c 0
 601 676 574 638 524 617 c 0
 512 612 498 609 484 606 c 1
 513 574 556 533 579 513 c 0
 583 510 586 504 586 499 c 0
 586 498 586 498 586 497 c 0
 585 489 578 481 569 475 c 0
 560 469 549 466 539 466 c 0
 530 466 522 468 517 473 c 0
 485 499 438 555 407 592 c 1
 402 561 397 528 391 498 c 0
 388 484 371 471 351 469 c 2
403 742 m 1
 416 740 421 733 421 722 c 0
 420 706 419 687 416 664 c 0
 420 664 425 663 430 661 c 0
 445 655 458 654 468 654 c 0
 482 654 493 657 500 660 c 0
 515 665 529 684 532 704 c 0
 532 706 533 708 533 710 c 0
 533 718 530 726 526 734 c 0
 519 746 504 757 475 757 c 0
 457 757 434 753 403 742 c 1
EndSplineSet
EndChar

StartChar: macron
Encoding: 175 175 108
Width: 510
VWidth: 0
GlyphClass: 2
Flags: HMW
LayerCount: 3
Layer: 2
SplineSet
533 812 m 0
 527 793 500 775 473 774 c 0
 421 772 375 771 333 771 c 0
 261 771 202 774 145 779 c 0
 125 781 113 791 113 805 c 0
 113 811 115 814 117 819 c 0
 127 837 153 851 178 851 c 0
 180 851 181 851 183 851 c 0
 236 846 291 843 360 843 c 0
 400 843 444 844 494 846 c 0
 495 846 495 846 496 846 c 0
 518 846 533 835 533 820 c 0
 533 818 533 815 533 812 c 0
EndSplineSet
EndChar

StartChar: degree
Encoding: 176 176 109
Width: 330
VWidth: 0
GlyphClass: 2
Flags: HMW
LayerCount: 3
Layer: 2
SplineSet
268 884 m 0
 262 882 254 880 248 880 c 0
 228 880 204 866 191 827 c 0
 189 821 188 815 187 808 c 0
 186 804 186 801 186 797 c 0
 186 758 219 740 236 740 c 0
 264 740 293 755 304 785 c 0
 305 788 307 791 307 794 c 0
 309 804 309 814 309 822 c 0
 309 851 299 871 271 883 c 0
 270 883 269 884 268 884 c 0
283 928 m 1
 289 930 297 932 303 932 c 0
 308 932 312 931 316 929 c 0
 365 909 381 873 381 833 c 0
 381 823 380 812 378 802 c 0
 377 796 375 791 373 785 c 0
 354 730 285 688 218 688 c 0
 160 688 115 727 115 783 c 0
 115 788 115 794 116 800 c 0
 117 809 120 818 123 827 c 0
 139 873 187 932 267 932 c 0
 273 932 278 930 283 928 c 1
EndSplineSet
EndChar

StartChar: plusminus
Encoding: 177 177 110
Width: 600
VWidth: 0
GlyphClass: 2
Flags: HMW
LayerCount: 3
Layer: 2
SplineSet
528 432 m 0
 524 413 499 396 475 395 c 0
 432 393 389 392 350 392 c 1
 347 367 343 339 338 304 c 0
 335 285 312 267 288 265 c 0
 286 265 285 265 283 265 c 0
 263 265 247 276 247 292 c 0
 247 331 257 366 260 393 c 1
 207 394 159 396 118 400 c 0
 99 402 88 413 88 427 c 0
 88 432 89 435 91 439 c 0
 99 457 121 470 144 470 c 0
 146 470 147 470 149 470 c 0
 183 467 223 464 269 463 c 1
 273 492 276 520 278 554 c 0
 278 555 278 556 278 557 c 0
 281 575 303 592 326 595 c 0
 328 595 331 595 333 595 c 0
 353 595 370 583 370 567 c 0
 370 528 363 495 359 462 c 1
 401 462 446 463 492 465 c 0
 493 465 493 465 494 465 c 0
 514 465 529 453 529 437 c 0
 529 436 529 434 529 433 c 0
 528 432 l 0
488 177 m 0
 484 158 458 141 434 140 c 0
 382 138 332 137 286 137 c 0
 206 137 135 140 78 145 c 0
 59 147 48 158 48 172 c 0
 48 176 48 180 50 184 c 0
 58 202 81 215 104 215 c 0
 106 215 107 215 109 215 c 0
 161 210 229 207 307 207 c 0
 352 207 401 208 451 210 c 0
 452 210 452 210 453 210 c 0
 473 210 488 198 488 182 c 0
 488 181 488 179 488 178 c 0
 488 177 l 0
EndSplineSet
EndChar

StartChar: acute
Encoding: 180 180 111
Width: 360
VWidth: 0
GlyphClass: 2
Flags: HMW
LayerCount: 3
Layer: 2
SplineSet
394 770 m 0
 293 676 146 564 114 547 c 0
 114 547 94 541 77 541 c 0
 64 541 52 544 52 556 c 0
 52 557 52 558 52 559 c 0
 53 564 55 570 59 577 c 0
 78 608 216 729 312 829 c 0
 312 829 331 851 352 851 c 0
 361 851 371 847 380 834 c 0
 401 804 l 0
 403 801 405 796 405 792 c 0
 405 791 405 790 405 789 c 0
 404 782 400 776 394 770 c 0
EndSplineSet
EndChar

StartChar: uni00B5
Encoding: 181 181 112
Width: 680
VWidth: 0
GlyphClass: 2
Flags: HMW
LayerCount: 3
Layer: 2
SplineSet
164 610 m 0
 168 611 171 611 174 611 c 0
 196 611 211 600 211 584 c 0
 211 583 l 0
 207 534 200 470 186 382 c 0
 177 327 166 263 153 188 c 1
 153 186 153 185 153 183 c 0
 153 89 193 51 245 51 c 0
 313 51 373 109 422 245 c 0
 458 346 481 468 501 571 c 0
 505 590 530 611 553 611 c 0
 575 611 598 592 598 592 c 1
 571 409 560 286 560 204 c 0
 560 111 574 68 597 45 c 0
 601 40 603 36 603 30 c 0
 603 29 603 27 603 26 c 0
 601 15 592 3 578 -5 c 0
 566 -12 550 -16 537 -16 c 0
 525 -16 515 -13 509 -5 c 0
 484 30 470 83 470 171 c 0
 470 172 470 172 470 173 c 1
 423 74 351 -21 235 -21 c 0
 188 -21 151 -3 126 29 c 1
 114 -41 102 -119 87 -205 c 0
 84 -224 58 -242 31 -245 c 0
 29 -245 26 -245 24 -245 c 0
 2 -245 -13 -234 -13 -219 c 0
 -13 -218 -13 -216 -13 -215 c 0
 31 51 65 238 86 370 c 0
 100 457 108 521 111 567 c 0
 111 568 111 569 111 570 c 0
 114 588 137 606 164 610 c 0
EndSplineSet
EndChar

StartChar: periodcentered
Encoding: 183 183 113
Width: 340
VWidth: 0
GlyphClass: 2
Flags: HMW
LayerCount: 3
Layer: 2
SplineSet
240 402 m 0
 242 400 252 389 252 370 c 0
 252 367 252 364 251 361 c 0
 250 357 250 352 248 348 c 0
 239 322 200 285 145 285 c 0
 100 285 80 310 80 337 c 0
 80 340 80 343 81 346 c 0
 85 369 115 422 187 422 c 0
 193 422 199 421 203 420 c 2
 218 416 l 2
 228 413 236 408 240 402 c 0
EndSplineSet
EndChar

StartChar: cedilla
Encoding: 184 184 114
Width: 300
VWidth: 0
GlyphClass: 2
Flags: HMW
LayerCount: 3
Layer: 2
SplineSet
109 23 m 0
 119 21 125 15 125 7 c 0
 125 6 125 5 125 4 c 0
 125 1 123 -3 121 -6 c 0
 70 -76 l 1
 77 -75 86 -75 95 -75 c 0
 113 -75 133 -77 145 -82 c 0
 174 -94 186 -115 186 -139 c 0
 186 -143 186 -146 185 -150 c 0
 181 -173 167 -197 146 -215 c 0
 117 -240 77 -255 35 -255 c 0
 6 -255 -26 -248 -54 -232 c 0
 -60 -228 -64 -222 -64 -216 c 0
 -64 -215 -64 -215 -64 -214 c 0
 -63 -208 -59 -202 -53 -197 c 0
 -44 -189 -31 -185 -19 -185 c 0
 -13 -185 -8 -186 -3 -188 c 0
 19 -200 38 -204 53 -204 c 0
 74 -204 88 -196 97 -188 c 0
 106 -180 112 -170 114 -160 c 0
 114 -158 114 -157 114 -155 c 0
 114 -144 109 -134 94 -126 c 0
 82 -120 65 -115 37 -115 c 0
 34 -115 32 -115 29 -115 c 0
 28 -115 26 -115 25 -115 c 0
 4 -115 -2 -107 -2 -100 c 0
 -2 -99 -2 -99 -2 -98 c 0
 -1 -91 5 -85 5 -84 c 0
 64 6 l 0
 72 18 86 24 100 24 c 0
 103 24 106 24 109 23 c 0
EndSplineSet
EndChar

StartChar: guillemotright
Encoding: 187 187 115
Width: 720
VWidth: 0
GlyphClass: 2
Flags: HMW
LayerCount: 3
Layer: 2
SplineSet
123 607 m 0
 134 613 145 616 155 616 c 0
 166 616 175 612 182 605 c 0
 231 552 327 447 376 361 c 0
 378 358 379 354 379 350 c 0
 379 349 379 348 379 347 c 0
 378 338 371 329 362 321 c 0
 271 251 152 144 115 92 c 0
 103 76 86 65 67 65 c 0
 63 65 60 65 56 66 c 0
 42 69 38 75 38 84 c 0
 38 86 38 87 38 89 c 0
 39 95 42 103 47 110 c 0
 91 171 176 264 270 340 c 1
 223 416 155 510 112 557 c 0
 106 563 104 571 104 579 c 0
 104 580 104 582 104 583 c 0
 105 592 111 601 123 607 c 0
393 607 m 0
 404 613 415 616 425 616 c 0
 436 616 445 612 452 605 c 0
 501 552 597 447 646 361 c 0
 648 358 649 354 649 350 c 0
 649 349 649 348 649 347 c 0
 648 338 641 329 632 321 c 0
 541 251 422 144 385 92 c 0
 373 76 356 65 337 65 c 0
 333 65 330 65 326 66 c 0
 312 69 308 75 308 84 c 0
 308 86 308 87 308 89 c 0
 309 95 312 103 317 110 c 0
 361 171 446 264 540 340 c 1
 493 416 425 510 382 557 c 0
 376 563 374 571 374 579 c 0
 374 580 374 582 374 583 c 0
 375 592 381 601 393 607 c 0
EndSplineSet
EndChar

StartChar: onequarter
Encoding: 188 188 116
Width: 720
VWidth: 0
GlyphClass: 2
Flags: HMW
LayerCount: 3
Layer: 2
SplineSet
713 790 m 0
 725 787 731 780 731 772 c 0
 731 771 731 771 731 770 c 0
 730 766 729 762 725 758 c 0
 536 539 256 222 68 27 c 0
 57 17 39 9 23 9 c 0
 19 9 16 10 12 11 c 0
 0 14 -4 21 -4 28 c 0
 -4 29 -4 29 -4 30 c 0
 -3 34 -2 39 3 43 c 0
 189 236 468 553 657 772 c 0
 667 784 686 791 703 791 c 0
 707 791 710 791 713 790 c 0
100 705 m 0
 98 708 98 712 98 715 c 0
 100 725 110 735 125 741 c 0
 158 753 191 767 217 788 c 0
 217 788 244 803 263 803 c 0
 273 803 282 798 282 786 c 0
 282 784 281 782 281 780 c 0
 281 779 280 780 280 779 c 0
 269 723 262 682 256 644 c 0
 249 601 244 562 238 509 c 1
 247 506 272 508 296 504 c 0
 300 503 316 487 316 473 c 0
 316 460 303 453 270 453 c 0
 269 453 268 453 267 453 c 0
 255 453 245 454 234 454 c 0
 186 454 146 451 89 449 c 0
 88 449 88 449 87 449 c 0
 70 449 60 457 60 468 c 0
 60 470 60 471 60 473 c 0
 64 487 85 500 105 501 c 0
 126 502 145 502 163 503 c 1
 169 554 174 592 181 635 c 0
 185 660 189 686 195 717 c 1
 179 710 161 703 146 697 c 0
 140 694 133 693 126 693 c 0
 114 693 104 697 100 705 c 0
660 111 m 2
 657 97 636 85 616 83 c 0
 612 83 609 82 605 82 c 1
 602 64 599 45 596 24 c 0
 594 10 574 -3 554 -5 c 0
 552 -5 551 -5 549 -5 c 0
 534 -5 526 1 526 12 c 0
 526 13 526 15 526 16 c 0
 529 38 531 58 534 76 c 1
 511 74 488 73 465 73 c 0
 410 73 365 81 365 105 c 0
 365 150 480 215 498 328 c 0
 500 342 520 355 540 357 c 0
 542 357 544 357 546 357 c 0
 563 357 573 350 573 339 c 0
 573 250 472 153 443 122 c 1
 452 122 460 122 469 122 c 0
 492 122 517 123 542 124 c 0
 542 125 542 127 542 128 c 0
 547 162 553 197 562 241 c 0
 564 255 580 268 600 270 c 0
 602 270 603 270 605 270 c 0
 621 270 632 263 632 252 c 0
 632 209 618 168 613 136 c 0
 613 134 611 131 611 129 c 1
 616 129 623 130 628 131 c 0
 630 131 632 131 634 131 c 0
 650 131 660 125 660 115 c 0
 660 114 660 113 660 112 c 2
 660 111 l 2
EndSplineSet
Colour: ff0000
EndChar

StartChar: onehalf
Encoding: 189 189 117
Width: 720
VWidth: 0
GlyphClass: 2
Flags: HMW
LayerCount: 3
Layer: 2
SplineSet
713 790 m 0
 725 787 731 780 731 772 c 0
 731 771 731 771 731 770 c 0
 730 766 729 762 725 758 c 0
 536 539 256 222 68 27 c 0
 57 17 39 9 23 9 c 0
 19 9 16 10 12 11 c 0
 0 14 -4 21 -4 28 c 0
 -4 29 -4 29 -4 30 c 0
 -3 34 -2 39 3 43 c 0
 189 236 468 553 657 772 c 0
 667 784 686 791 703 791 c 0
 707 791 710 791 713 790 c 0
100 705 m 0
 98 708 98 712 98 715 c 0
 100 725 110 735 125 741 c 0
 158 753 191 767 217 788 c 0
 217 788 244 803 263 803 c 0
 273 803 282 798 282 786 c 0
 282 784 281 782 281 780 c 0
 281 779 280 780 280 779 c 0
 269 723 262 682 256 644 c 0
 249 601 244 562 238 509 c 1
 247 506 272 508 296 504 c 0
 300 503 316 487 316 473 c 0
 316 460 303 453 270 453 c 0
 269 453 268 453 267 453 c 0
 255 453 245 454 234 454 c 0
 186 454 146 451 89 449 c 0
 88 449 88 449 87 449 c 0
 70 449 60 457 60 468 c 0
 60 470 60 471 60 473 c 0
 64 487 85 500 105 501 c 0
 126 502 145 502 163 503 c 1
 169 554 174 592 181 635 c 0
 185 660 189 686 195 717 c 1
 179 710 161 703 146 697 c 0
 140 694 133 693 126 693 c 0
 114 693 104 697 100 705 c 0
634 38 m 0
 631 24 609 10 588 8 c 0
 570 6 515 -1 464 -1 c 0
 414 -1 368 6 368 33 c 0
 368 147 564 192 574 251 c 0
 575 255 575 259 575 263 c 0
 575 289 558 299 545 301 c 0
 543 301 540 302 537 302 c 0
 522 302 500 294 484 274 c 0
 474 262 456 254 438 254 c 0
 435 254 432 255 429 255 c 0
 416 257 410 263 410 271 c 0
 410 272 410 274 410 275 c 0
 410 278 411 282 414 286 c 0
 446 327 506 354 560 354 c 0
 568 354 577 353 585 352 c 0
 629 345 654 318 654 278 c 0
 654 273 654 267 653 261 c 0
 637 157 470 110 450 56 c 1
 459 55 472 54 487 54 c 0
 523 54 572 57 601 60 c 0
 603 60 604 60 606 60 c 0
 623 60 634 53 634 42 c 0
 634 41 634 40 634 39 c 0
 634 38 l 0
EndSplineSet
Colour: ff0000
EndChar

StartChar: threequarters
Encoding: 190 190 118
Width: 720
VWidth: 0
GlyphClass: 2
Flags: HMW
LayerCount: 3
Layer: 2
SplineSet
713 790 m 0
 725 787 731 780 731 772 c 0
 731 771 731 771 731 770 c 0
 730 766 729 762 725 758 c 0
 536 539 256 222 68 27 c 0
 57 17 39 9 23 9 c 0
 19 9 16 10 12 11 c 0
 0 14 -4 21 -4 28 c 0
 -4 29 -4 29 -4 30 c 0
 -3 34 -2 39 3 43 c 0
 189 236 468 553 657 772 c 0
 667 784 686 791 703 791 c 0
 707 791 710 791 713 790 c 0
660 111 m 2
 657 97 636 85 616 83 c 0
 612 83 609 82 605 82 c 1
 602 64 599 45 596 24 c 0
 594 10 574 -3 554 -5 c 0
 552 -5 551 -5 549 -5 c 0
 534 -5 526 1 526 12 c 0
 526 13 526 15 526 16 c 0
 529 38 531 58 534 76 c 1
 511 74 488 73 465 73 c 0
 410 73 365 81 365 105 c 0
 365 150 480 215 498 328 c 0
 500 342 520 355 540 357 c 0
 542 357 544 357 546 357 c 0
 563 357 573 350 573 339 c 0
 573 250 472 153 443 122 c 1
 452 122 460 122 469 122 c 0
 492 122 517 123 542 124 c 0
 542 125 542 127 542 128 c 0
 547 162 553 197 562 241 c 0
 564 255 580 268 600 270 c 0
 602 270 603 270 605 270 c 0
 621 270 632 263 632 252 c 0
 632 209 618 168 613 136 c 0
 613 134 611 131 611 129 c 1
 616 129 623 130 628 131 c 0
 630 131 632 131 634 131 c 0
 650 131 660 125 660 115 c 0
 660 114 660 113 660 112 c 2
 660 111 l 2
103 706 m 0
 91 709 85 716 85 724 c 0
 85 725 85 725 85 726 c 0
 86 730 87 734 91 738 c 0
 120 770 167 794 213 800 c 0
 221 801 229 802 237 802 c 0
 292 802 328 774 328 728 c 0
 328 723 328 717 327 712 c 0
 323 684 306 659 283 642 c 1
 311 630 327 609 327 578 c 0
 327 572 326 567 325 560 c 0
 318 513 286 475 233 455 c 0
 210 446 186 442 164 442 c 0
 110 442 65 466 48 497 c 0
 46 500 46 503 46 506 c 0
 48 516 58 527 74 533 c 0
 81 536 90 537 97 537 c 0
 110 537 120 533 124 525 c 0
 137 503 167 494 190 494 c 0
 198 494 205 495 210 497 c 0
 219 500 239 512 245 550 c 0
 246 555 246 561 246 565 c 0
 246 595 226 602 202 602 c 0
 182 602 159 597 140 597 c 0
 126 597 122 602 122 608 c 0
 122 609 122 609 122 610 c 0
 124 625 148 647 148 647 c 0
 189 656 238 648 247 702 c 0
 248 706 248 710 248 713 c 0
 248 742 227 749 211 749 c 0
 209 749 207 749 205 749 c 0
 192 747 174 741 159 724 c 0
 149 713 130 705 113 705 c 0
 110 705 106 705 103 706 c 0
EndSplineSet
LCarets2: 2 0 0
Colour: ff0000
EndChar

StartChar: questiondown
Encoding: 191 191 119
Width: 480
VWidth: 0
GlyphClass: 2
Flags: HMW
LayerCount: 3
Layer: 2
SplineSet
196 489 m 256
 194 491 184 502 184 521 c 0
 184 524 184 527 185 530 c 256
 186 534 186 539 188 543 c 256
 197 569 236 606 291 606 c 256
 336 606 356 581 356 554 c 0
 356 551 356 548 355 545 c 256
 351 522 321 469 249 469 c 256
 243 469 238 470 234 471 c 258
 218 475 l 258
 208 478 200 483 196 489 c 256
245 343 m 0
 252 345 260 346 266 346 c 0
 281 346 290 339 294 326 c 0
 299 308 301 292 301 277 c 0
 301 268 300 259 299 250 c 0
 277 109 76 42 59 -64 c 0
 58 -73 57 -81 57 -88 c 0
 57 -105 60 -119 65 -131 c 0
 81 -168 120 -183 161 -183 c 0
 183 -183 205 -179 225 -172 c 0
 258 -159 290 -137 296 -101 c 0
 296 -98 297 -94 297 -90 c 0
 297 -77 294 -63 287 -47 c 0
 286 -44 285 -39 285 -36 c 0
 285 -35 285 -35 285 -34 c 0
 287 -20 301 -6 321 2 c 0
 329 5 339 7 347 7 c 0
 364 7 379 0 384 -11 c 0
 393 -30 397 -49 397 -67 c 0
 397 -74 396 -81 395 -88 c 0
 385 -152 327 -206 252 -234 c 0
 215 -248 175 -255 137 -255 c 0
 62 -255 -6 -227 -32 -167 c 0
 -40 -149 -44 -130 -44 -107 c 0
 -44 -97 -43 -85 -41 -74 c 0
 -14 98 190 135 208 247 c 0
 209 253 209 259 209 265 c 0
 209 275 208 285 205 296 c 0
 204 299 204 303 204 306 c 0
 206 321 223 336 245 343 c 0
EndSplineSet
EndChar

StartChar: Ccedilla
Encoding: 199 199 126
Width: 740
VWidth: 0
GlyphClass: 2
Flags: HMW
LayerCount: 3
Layer: 2
SplineSet
642 178 m 0
 660 174 670 163 670 149 c 0
 670 141 667 135 662 128 c 0
 602 51 496 -5 387 -18 c 1
 345 -76 l 1
 352 -75 361 -75 370 -75 c 0
 388 -75 408 -77 420 -82 c 0
 449 -94 461 -115 461 -139 c 0
 461 -143 461 -146 460 -150 c 0
 456 -173 442 -197 421 -215 c 0
 392 -240 352 -255 310 -255 c 0
 281 -255 249 -248 221 -232 c 0
 214 -228 210 -221 211 -214 c 0
 212 -208 216 -202 222 -197 c 0
 231 -189 244 -185 256 -185 c 0
 262 -185 267 -186 272 -188 c 0
 294 -200 313 -204 328 -204 c 0
 349 -204 363 -196 372 -188 c 0
 381 -180 387 -170 389 -160 c 0
 389 -158 389 -157 389 -155 c 0
 389 -144 384 -134 369 -126 c 0
 357 -120 340 -115 312 -115 c 0
 309 -115 307 -115 304 -115 c 0
 303 -115 301 -115 300 -115 c 0
 277 -115 272 -106 273 -98 c 0
 274 -91 280 -85 280 -84 c 2
 322 -20 l 1
 170 -13 51 86 51 289 c 0
 51 319 53 352 59 387 c 0
 101 651 282 799 467 819 c 0
 480 820 492 821 505 821 c 0
 625 821 715 758 715 659 c 0
 715 650 714 641 713 632 c 0
 710 610 680 589 649 586 c 2
 641 586 l 2
 616 586 597 598 597 616 c 0
 597 624 599 632 599 640 c 0
 599 705 542 739 476 739 c 0
 469 739 461 739 454 738 c 0
 366 729 214 648 175 399 c 0
 170 365 167 335 167 307 c 0
 167 119 279 62 372 62 c 0
 380 62 389 62 397 63 c 0
 461 70 524 101 562 150 c 0
 576 168 603 179 628 179 c 0
 633 179 637 179 642 178 c 0
EndSplineSet
Colour: ff0000
EndChar

StartChar: Eth
Encoding: 208 208 135
Width: 800
VWidth: 0
GlyphClass: 2
Flags: HMW
LayerCount: 3
Layer: 2
SplineSet
438 372 m 0
 432 355 408 340 384 339 c 0
 332 337 282 336 235 336 c 0
 232 336 229 336 226 336 c 0
 208 230 190 129 182 80 c 1
 192 70 231 59 282 59 c 0
 335 59 400 70 459 106 c 0
 532 150 607 236 633 400 c 0
 637 424 640 449 641 476 c 0
 641 485 642 494 642 502 c 0
 642 679 542 742 419 742 c 0
 397 742 375 740 352 736 c 0
 290 726 221 704 155 670 c 0
 143 664 131 661 119 661 c 0
 103 661 89 666 81 675 c 0
 76 681 75 687 76 694 c 0
 78 707 90 721 107 730 c 0
 187 771 273 800 356 813 c 0
 387 818 416 820 445 820 c 0
 624 820 753 726 753 522 c 0
 753 513 753 503 752 494 c 0
 750 465 748 438 744 412 c 0
 698 123 490 1 307 -18 c 0
 288 -20 269 -21 250 -21 c 0
 165 -21 91 -1 74 42 c 0
 71 48 70 56 71 64 c 0
 79 113 100 226 119 338 c 1
 85 339 54 342 26 344 c 0
 9 346 -1 355 -1 367 c 0
 -1 372 1 375 2 379 c 0
 11 395 35 406 57 406 c 0
 59 406 60 406 62 406 c 0
 82 404 105 402 129 401 c 1
 141 478 149 550 150 596 c 1
 151 600 l 2
 154 620 179 638 207 643 c 0
 211 644 215 644 219 644 c 0
 243 644 261 632 261 614 c 0
 260 562 249 481 236 398 c 1
 244 398 252 398 260 398 c 0
 305 398 354 399 404 401 c 0
 405 401 406 401 407 401 c 0
 427 401 439 392 439 379 c 0
 439 376 438 374 438 372 c 0
EndSplineSet
Colour: ff0000
EndChar

StartChar: multiply
Encoding: 215 215 142
Width: 600
VWidth: 0
GlyphClass: 2
Flags: HMW
LayerCount: 3
Layer: 2
SplineSet
522 546 m 0
 533 540 539 531 537 521 c 0
 536 513 530 504 522 497 c 0
 461 444 408 397 359 351 c 1
 401 298 443 242 483 187 c 0
 487 182 488 176 487 170 c 0
 485 158 474 145 457 137 c 0
 446 132 436 130 425 130 c 0
 410 130 397 134 390 143 c 0
 355 190 320 237 285 282 c 1
 240 240 195 196 143 148 c 0
 130 136 110 129 92 129 c 0
 84 129 79 130 72 133 c 0
 60 138 54 149 56 160 c 0
 57 167 62 175 69 182 c 0
 131 240 184 290 238 341 c 1
 196 395 153 446 112 491 c 0
 107 496 106 502 107 509 c 0
 109 520 118 533 133 541 c 0
 144 547 157 550 169 550 c 0
 182 550 194 546 201 539 c 0
 237 499 274 456 312 410 c 1
 354 449 399 489 451 533 c 0
 464 544 483 551 500 551 c 0
 508 551 515 549 522 546 c 0
EndSplineSet
Colour: ff0000
EndChar

StartChar: Oslash
Encoding: 216 216 143
Width: 820
VWidth: 0
GlyphClass: 2
Flags: HMW
LayerCount: 3
Layer: 2
SplineSet
829 788 m 0
 838 784 842 777 841 769 c 0
 840 764 838 759 833 754 c 0
 804 725 772 692 736 657 c 0
 737 655 736 654 737 652 c 0
 738 649 737 647 737 644 c 0
 736 635 729 624 719 616 c 1
 756 585 770 525 770 463 c 0
 770 438 768 413 764 390 c 0
 727 156 567 0 379 -20 c 0
 366 -21 354 -22 341 -22 c 0
 247 -22 168 15 117 83 c 1
 92 61 67 41 45 22 c 0
 36 14 23 10 11 10 c 0
 5 10 0 11 -5 13 c 0
 -12 17 -15 24 -14 32 c 0
 -13 38 -10 43 -4 48 c 0
 24 72 55 99 89 129 c 1
 66 174 55 229 55 293 c 0
 55 322 57 353 62 385 c 0
 99 620 241 766 409 809 c 0
 441 817 473 821 503 821 c 0
 600 821 679 780 716 713 c 1
 738 735 760 756 779 776 c 0
 787 785 801 791 814 791 c 0
 819 791 824 790 829 788 c 0
620 619 m 0
 622 621 624 623 626 625 c 0
 612 704 545 742 474 742 c 0
 456 742 438 740 420 735 c 0
 332 713 207 620 172 397 c 0
 167 368 165 340 165 315 c 0
 165 274 171 239 180 209 c 1
 316 332 475 479 607 607 c 0
 608 608 l 0
 612 612 616 616 620 619 c 0
630 554 m 1
 493 423 336 277 202 158 c 1
 243 87 311 57 372 57 c 0
 378 57 385 57 391 58 c 0
 482 68 619 155 654 378 c 0
 656 393 657 408 657 423 c 0
 657 481 643 536 630 554 c 1
EndSplineSet
Colour: ff0000
EndChar

StartChar: Thorn
Encoding: 222 222 149
Width: 810
VWidth: 0
GlyphClass: 2
Flags: HMW
LayerCount: 3
Layer: 2
SplineSet
432 779 m 0
 426 759 396 741 367 739 c 0
 362 739 358 739 353 739 c 0
 344 739 336 739 327 739 c 0
 319 739 306 739 298 738 c 1
 301 730 302 723 302 714 c 0
 302 707 301 700 300 692 c 0
 295 659 291 628 286 597 c 1
 388 640 478 660 551 660 c 0
 599 660 640 652 674 635 c 0
 746 599 781 534 781 465 c 0
 781 454 780 442 778 431 c 0
 769 375 739 317 689 270 c 0
 625 210 537 176 433 176 c 0
 370 176 301 189 228 216 c 1
 222 178 215 138 209 97 c 0
 208 89 208 83 207 79 c 0
 206 70 206 68 217 68 c 0
 224 68 242 69 260 69 c 0
 271 69 285 72 301 73 c 1
 301 73 314 53 314 34 c 0
 314 32 314 31 314 29 c 0
 312 17 303 6 279 2 c 0
 227 -7 185 -10 142 -10 c 0
 103 -10 62 -7 10 -5 c 0
 -13 -4 -26 6 -26 20 c 0
 -26 26 -25 28 -23 33 c 0
 -13 52 19 67 47 67 c 0
 48 67 49 67 50 67 c 0
 71 66 86 61 104 60 c 1
 103 68 103 78 105 88 c 0
 139 301 161 458 194 678 c 0
 195 688 196 696 196 701 c 0
 196 726 177 706 103 726 c 0
 94 728 92 733 93 738 c 0
 96 759 154 796 154 796 c 1
 166 795 177 795 188 795 c 0
 261 795 312 806 388 811 c 0
 390 811 391 811 393 811 c 0
 416 811 433 801 433 786 c 0
 433 783 432 781 432 779 c 0
274 516 m 1
 264 444 252 375 241 304 c 1
 323 264 390 250 445 250 c 0
 522 250 574 279 607 310 c 0
 639 340 659 379 665 418 c 0
 666 427 667 435 667 444 c 0
 667 494 645 540 597 563 c 0
 575 574 546 582 508 582 c 0
 452 582 376 565 274 516 c 1
EndSplineSet
Colour: ff0000
EndChar

StartChar: germandbls
Encoding: 223 223 150
Width: 770
VWidth: 0
GlyphClass: 2
Flags: HMW
AnchorPoint: "LatinAbove.mark_1" 360 0 basechar 0
LayerCount: 3
Layer: 2
SplineSet
271 146 m 0
 279 149 289 151 297 151 c 0
 314 151 328 144 333 133 c 0
 349 95 385 52 458 52 c 0
 498 52 525 63 549 84 c 0
 577 108 594 142 600 177 c 0
 601 185 602 193 602 201 c 0
 602 240 587 277 551 294 c 1
 533 303 438 339 409 354 c 1
 359 381 336 419 335 460 c 0
 335 466 335 473 336 479 c 0
 347 549 425 622 541 644 c 1
 518 763 448 795 396 795 c 0
 390 795 385 795 380 794 c 0
 325 786 251 736 237 650 c 0
 236 646 236 641 235 637 c 1
 222 486 202 328 176 163 c 0
 169 116 161 68 152 20 c 0
 149 1 123 -17 96 -20 c 0
 94 -20 91 -20 89 -20 c 0
 68 -20 53 -9 53 6 c 0
 53 54 69 106 76 152 c 0
 102 316 122 474 135 623 c 0
 136 628 135 634 136 639 c 0
 153 749 258 846 386 864 c 0
 399 866 411 867 424 867 c 0
 544 867 634 785 648 626 c 0
 648 622 649 618 648 614 c 0
 643 582 604 579 590 579 c 0
 587 579 585 579 585 579 c 0
 503 579 455 543 441 503 c 0
 439 499 439 494 438 490 c 0
 437 487 437 483 437 480 c 0
 437 457 450 433 483 416 c 1
 502 405 598 368 622 356 c 1
 680 327 706 275 706 219 c 0
 706 210 705 201 704 191 c 0
 696 140 668 89 622 49 c 0
 576 9 508 -20 433 -20 c 0
 304 -20 254 53 235 97 c 0
 234 101 233 105 234 109 c 0
 236 123 251 138 271 146 c 0
EndSplineSet
Colour: ff0000
EndChar

StartChar: ccedilla
Encoding: 231 231 157
Width: 590
VWidth: 0
GlyphClass: 2
Flags: HMW
LayerCount: 3
Layer: 2
SplineSet
489 141 m 0
 505 137 514 126 514 114 c 0
 514 106 512 100 507 94 c 0
 460 34 380 -8 297 -19 c 1
 255 -76 l 1
 262 -75 271 -75 280 -75 c 0
 298 -75 318 -77 330 -82 c 0
 359 -94 371 -115 371 -139 c 0
 371 -143 371 -146 370 -150 c 0
 366 -173 352 -197 331 -215 c 0
 302 -240 262 -255 220 -255 c 0
 191 -255 159 -248 131 -232 c 0
 124 -228 120 -221 121 -214 c 0
 122 -208 126 -202 132 -197 c 0
 141 -189 154 -185 166 -185 c 0
 172 -185 177 -186 182 -188 c 0
 204 -200 223 -204 238 -204 c 0
 259 -204 273 -196 282 -188 c 0
 291 -180 297 -170 299 -160 c 0
 299 -158 299 -157 299 -155 c 0
 299 -144 294 -134 279 -126 c 0
 267 -120 250 -115 222 -115 c 0
 219 -115 217 -115 214 -115 c 0
 213 -115 211 -115 210 -115 c 0
 187 -115 182 -106 183 -98 c 0
 184 -91 190 -85 190 -84 c 2
 231 -21 l 1
 117 -11 33 67 33 217 c 0
 33 240 35 264 39 290 c 0
 71 490 210 607 356 622 c 0
 366 623 376 624 385 624 c 0
 479 624 549 575 549 497 c 0
 549 490 548 482 547 475 c 0
 544 455 517 436 489 433 c 2
 482 433 l 2
 459 433 442 445 442 461 c 0
 442 467 443 473 443 479 c 0
 443 525 404 548 359 548 c 0
 354 548 349 548 344 547 c 0
 285 541 174 485 145 300 c 0
 141 274 139 251 139 230 c 0
 139 92 221 54 284 54 c 0
 290 54 296 54 301 55 c 0
 346 60 390 82 416 116 c 0
 429 132 453 143 475 143 c 0
 480 143 484 142 489 141 c 0
EndSplineSet
Colour: ff0000
EndChar

StartChar: eth
Encoding: 240 240 166
Width: 655
VWidth: 0
GlyphClass: 2
Flags: HMW
LayerCount: 3
Layer: 2
SplineSet
324 893 m 0
 335 900 347 903 357 903 c 2
 385 895 l 1
 411 878 442 850 472 811 c 1
 526 827 575 845 618 865 c 0
 627 869 635 871 643 871 c 0
 655 871 666 866 671 858 c 0
 673 855 674 851 674 847 c 0
 674 846 674 845 674 844 c 0
 672 833 662 822 648 815 c 0
 605 795 558 777 506 761 c 1
 530 721 550 674 565 620 c 0
 583 558 595 488 595 410 c 0
 595 373 592 335 586 295 c 0
 558 119 438 -3 288 -19 c 0
 277 -20 267 -21 257 -21 c 0
 127 -21 37 71 37 223 c 0
 37 244 38 267 42 290 c 0
 70 468 176 579 309 614 c 0
 334 621 358 624 380 624 c 0
 417 624 448 615 474 600 c 1
 459 655 438 700 417 737 c 1
 359 723 296 713 228 705 c 0
 226 705 225 705 223 705 c 0
 204 705 191 715 191 729 c 0
 191 730 191 730 191 731 c 2
 191 732 l 2
 194 748 214 763 235 765 c 0
 288 771 336 778 382 788 c 1
 361 813 340 831 320 840 c 0
 312 844 308 853 308 862 c 0
 308 864 308 865 308 867 c 0
 310 877 315 887 324 893 c 0
142 300 m 0
 138 278 137 257 137 238 c 0
 137 102 221 51 286 51 c 0
 290 51 294 52 298 52 c 0
 358 58 460 119 486 285 c 0
 494 336 498 385 498 431 c 0
 498 436 498 441 498 446 c 1
 488 448 483 456 481 467 c 0
 472 524 423 553 367 553 c 0
 352 553 337 551 321 547 c 0
 261 530 168 466 142 300 c 0
EndSplineSet
Colour: ff0000
EndChar

StartChar: divide
Encoding: 247 247 173
Width: 600
VWidth: 0
GlyphClass: 2
Flags: HMW
LayerCount: 3
Layer: 2
SplineSet
72 349 m 256
 82 367 108 381 133 381 c 256
 135 381 136 381 138 381 c 256
 190 376 258 373 336 373 c 256
 381 373 430 374 480 376 c 256
 481 376 481 376 482 376 c 256
 504 376 519 365 519 350 c 0
 519 347 518 344 518 342 c 256
 512 323 485 305 458 304 c 256
 406 302 357 301 310 301 c 256
 230 301 158 304 101 309 c 256
 81 311 69 321 69 335 c 0
 69 341 70 344 72 349 c 256
380 548 m 0
 382 545 392 534 392 516 c 0
 392 514 392 512 392 510 c 0
 391 506 390 502 388 498 c 0
 380 474 345 442 297 442 c 0
 257 442 239 464 239 489 c 0
 239 492 240 494 240 497 c 0
 243 518 272 565 334 565 c 0
 339 565 344 565 347 564 c 2
 363 560 l 2
 371 558 377 553 380 548 c 0
329 226 m 0
 331 223 341 212 341 194 c 0
 341 192 341 190 341 188 c 0
 340 184 339 180 337 176 c 0
 329 152 294 120 246 120 c 0
 206 120 188 142 188 167 c 0
 188 170 189 172 189 175 c 0
 192 196 221 243 283 243 c 0
 288 243 293 243 296 242 c 2
 312 238 l 2
 320 236 326 231 329 226 c 0
EndSplineSet
Colour: ff0000
EndChar

StartChar: oslash
Encoding: 248 248 174
Width: 650
VWidth: 0
GlyphClass: 2
Flags: HMW
LayerCount: 3
Layer: 2
SplineSet
630 608 m 0
 639 604 643 597 642 589 c 0
 641 584 640 579 635 574 c 0
 611 550 589 526 565 502 c 0
 566 499 565 496 566 493 c 0
 567 491 566 488 566 486 c 0
 565 479 561 472 555 465 c 1
 581 439 591 395 591 350 c 0
 591 332 589 313 586 295 c 0
 558 119 438 -3 288 -19 c 0
 278 -20 267 -21 257 -21 c 0
 186 -21 126 6 87 56 c 1
 73 44 59 33 45 21 c 0
 36 13 23 9 11 9 c 0
 5 9 0 11 -5 13 c 0
 -12 17 -15 24 -14 32 c 0
 -13 38 -10 44 -4 49 c 0
 18 67 38 85 59 103 c 1
 44 137 36 176 36 221 c 0
 36 243 38 266 42 290 c 0
 70 468 177 580 309 614 c 0
 335 621 360 624 384 624 c 0
 452 624 508 598 540 555 c 1
 553 569 567 582 580 596 c 0
 588 605 603 611 616 611 c 0
 621 611 625 610 630 608 c 0
472 410 m 1
 371 312 271 217 164 123 c 1
 194 72 244 51 286 51 c 0
 290 51 294 52 298 52 c 0
 358 58 460 119 486 285 c 0
 488 297 489 309 489 321 c 0
 489 359 480 395 472 410 c 1
143 176 m 1
 254 274 358 373 464 478 c 1
 450 529 403 552 356 552 c 0
 343 552 331 550 319 547 c 0
 259 531 168 464 142 300 c 0
 138 277 136 256 136 236 c 0
 136 214 139 194 143 176 c 1
EndSplineSet
Colour: ff0000
EndChar

StartChar: thorn
Encoding: 254 254 180
Width: 670
VWidth: 0
GlyphClass: 2
Flags: HMW
LayerCount: 3
Layer: 2
SplineSet
171 843 m 0
 177 845 185 846 191 846 c 0
 210 846 226 838 229 824 c 0
 231 817 231 805 231 790 c 0
 231 739 223 647 209 534 c 1
 252 584 309 621 390 621 c 0
 546 621 603 509 603 387 c 0
 603 365 602 342 598 320 c 0
 593 291 585 262 576 235 c 0
 533 118 428 -16 255 -16 c 0
 198 -16 160 2 134 29 c 1
 120 -55 105 -135 91 -206 c 0
 87 -225 62 -244 35 -246 c 0
 33 -246 32 -246 30 -246 c 0
 8 -246 -8 -234 -8 -219 c 0
 -8 -218 -8 -216 -8 -215 c 2
 -8 -214 l 2
 8 -129 26 -28 43 78 c 0
 89 370 129 694 129 778 c 0
 129 786 129 793 128 796 c 0
 127 799 127 802 127 805 c 0
 130 821 148 836 171 843 c 0
160 189 m 1
 167 137 192 56 281 56 c 0
 360 56 437 121 478 235 c 0
 487 259 493 283 497 307 c 0
 500 326 501 344 501 362 c 0
 501 468 450 549 365 549 c 0
 280 549 226 469 183 350 c 1
 176 297 169 243 160 189 c 1
EndSplineSet
Colour: ff0000
EndChar

StartChar: dotlessi
Encoding: 305 305 182
Width: 330
VWidth: 0
GlyphClass: 2
Flags: HMW
LayerCount: 3
Layer: 2
SplineSet
162 -8 m 0
 150 -16 133 -21 119 -21 c 0
 108 -21 98 -18 91 -13 c 0
 68 5 61 28 61 56 c 0
 61 69 63 83 65 98 c 0
 68 117 72 137 76 158 c 0
 89 227 98 282 106 333 c 0
 117 403 126 469 140 564 c 0
 143 583 169 602 196 605 c 2
 204 605 l 2
 225 605 240 595 240 580 c 0
 240 487 216 412 205 344 c 0
 197 292 189 238 176 168 c 2
 172 145 l 2
 167 117 165 94 165 78 c 0
 165 58 169 47 174 43 c 0
 181 37 183 30 182 21 c 0
 180 11 174 0 162 -8 c 0
EndSplineSet
Colour: ff0000
EndChar

StartChar: Lslash
Encoding: 321 321 183
Width: 660
VWidth: 0
GlyphClass: 2
Flags: HMW
LayerCount: 3
Layer: 2
SplineSet
479 606 m 0
 485 603 487 598 487 592 c 0
 487 591 487 590 487 589 c 0
 486 583 483 577 476 571 c 0
 405 512 331 455 254 402 c 1
 231 283 205 173 190 104 c 1
 189 94 l 2
 188 90 188 86 188 83 c 0
 188 62 203 55 251 55 c 0
 302 55 390 63 536 69 c 1
 539 69 l 2
 564 69 580 57 580 40 c 0
 580 39 580 37 580 36 c 2
 579 32 l 2
 573 11 544 -8 514 -9 c 0
 413 -13 318 -23 243 -23 c 0
 143 -23 77 -6 77 63 c 0
 77 70 78 76 79 84 c 2
 81 96 l 2
 94 151 112 232 130 323 c 1
 98 303 65 284 31 266 c 0
 23 262 14 260 6 260 c 0
 -4 260 -13 263 -17 268 c 0
 -19 271 -20 273 -20 276 c 0
 -20 278 -19 279 -19 281 c 0
 -18 289 -12 298 -1 304 c 0
 48 331 97 359 144 389 c 1
 151 430 158 472 165 514 c 0
 179 601 189 686 191 756 c 1
 191 760 l 2
 194 780 219 798 247 803 c 0
 251 804 255 804 259 804 c 0
 283 804 302 792 302 774 c 0
 300 701 289 613 275 525 c 0
 272 508 270 490 267 473 c 1
 322 513 376 555 429 599 c 0
 437 606 450 610 461 610 c 0
 468 610 474 609 479 606 c 0
EndSplineSet
Colour: ff0000
EndChar

StartChar: lslash
Encoding: 322 322 184
Width: 375
VWidth: 0
GlyphClass: 2
Flags: HMW
LayerCount: 3
Layer: 2
SplineSet
412 607 m 0
 419 604 422 598 422 591 c 0
 422 590 422 589 422 588 c 0
 421 583 419 577 413 572 c 0
 375 538 300 474 219 408 c 1
 207 331 195 251 184 157 c 0
 183 148 182 140 182 133 c 0
 182 67 223 54 253 47 c 0
 269 43 278 34 278 22 c 0
 278 21 278 19 278 18 c 0
 277 13 274 8 270 3 c 0
 258 -12 235 -23 214 -23 c 0
 209 -23 205 -22 201 -21 c 0
 149 -8 82 26 82 120 c 0
 82 128 83 136 84 145 c 0
 91 209 100 267 108 322 c 1
 82 302 55 284 30 268 c 0
 21 263 12 260 2 260 c 0
 -6 260 -14 262 -19 266 c 0
 -23 269 -25 273 -25 278 c 0
 -25 279 -24 281 -24 282 c 0
 -23 289 -19 297 -10 302 c 0
 29 328 74 360 119 395 c 1
 120 402 121 409 122 415 c 0
 141 536 162 651 188 800 c 0
 191 819 216 837 243 840 c 2
 250 840 l 2
 272 840 288 829 288 814 c 0
 288 813 287 811 287 810 c 0
 265 686 248 586 231 486 c 1
 287 532 335 574 363 598 c 0
 372 606 385 610 397 610 c 0
 403 610 407 609 412 607 c 0
EndSplineSet
Colour: ff0000
EndChar

StartChar: florin
Encoding: 402 402 190
Width: 460
VWidth: 0
GlyphClass: 2
Flags: HMW
LayerCount: 3
Layer: 2
SplineSet
-52 -227 m 0
 -53 -223 -54 -220 -53 -216 c 0
 -51 -202 -36 -186 -15 -179 c 0
 5 -172 33 -150 57 -110 c 0
 79 -75 95 -34 103 10 c 0
 111 52 118 93 124 133 c 0
 146 274 159 404 167 523 c 1
 137 524 109 526 76 529 c 0
 56 531 44 541 44 555 c 0
 44 561 45 564 47 569 c 0
 57 587 83 601 108 601 c 0
 110 601 111 601 113 601 c 0
 135 599 153 597 171 596 c 1
 173 631 175 664 176 697 c 0
 176 703 177 709 178 715 c 0
 185 762 214 806 263 837 c 0
 301 862 344 874 387 874 c 0
 439 874 491 856 533 822 c 0
 540 816 542 809 541 801 c 0
 539 791 531 780 519 772 c 0
 507 764 491 759 477 759 c 0
 466 759 456 762 449 768 c 0
 417 795 388 803 365 803 c 0
 345 803 329 797 319 790 c 0
 301 778 283 755 278 724 c 0
 277 720 278 717 277 713 c 0
 276 675 274 635 271 593 c 1
 304 593 343 594 394 596 c 0
 395 596 395 596 396 596 c 0
 418 596 434 585 434 570 c 0
 434 567 433 564 433 562 c 0
 427 543 400 525 373 524 c 0
 331 522 297 521 267 521 c 1
 259 407 246 281 224 145 c 0
 218 104 210 63 202 20 c 0
 193 -30 175 -81 148 -124 c 0
 118 -172 76 -218 9 -241 c 0
 1 -244 -8 -245 -16 -245 c 0
 -33 -245 -48 -239 -52 -227 c 0
EndSplineSet
Colour: ff0000
EndChar

StartChar: circumflex
Encoding: 710 710 191
Width: 420
VWidth: 0
GlyphClass: 2
Flags: HMW
LayerCount: 3
Layer: 2
SplineSet
320 873 m 0
 375 813 439 744 447 722 c 0
 447 722 428 688 403 688 c 0
 397 688 392 690 386 694 c 0
 371 703 318 747 270 790 c 1
 211 749 152 709 126 696 c 0
 126 696 102 686 86 686 c 0
 78 686 72 689 73 697 c 0
 74 701 77 706 81 713 c 0
 99 740 186 807 253 866 c 0
 253 866 271 886 293 886 c 0
 302 886 311 882 320 873 c 0
EndSplineSet
EndChar

StartChar: caron
Encoding: 711 711 192
Width: 420
VWidth: 0
GlyphClass: 2
Flags: HMW
LayerCount: 3
Layer: 2
SplineSet
225 699 m 0
 170 759 106 828 98 850 c 0
 98 850 117 884 142 884 c 0
 148 884 153 882 159 878 c 0
 174 869 227 825 275 782 c 1
 334 823 393 863 419 876 c 0
 419 876 443 886 459 886 c 0
 467 886 473 883 472 875 c 0
 471 871 468 866 464 859 c 0
 446 832 359 765 292 706 c 0
 292 706 274 686 252 686 c 0
 243 686 234 690 225 699 c 0
EndSplineSet
EndChar

StartChar: breve
Encoding: 728 728 193
Width: 420
VWidth: 0
GlyphClass: 2
Flags: HMW
LayerCount: 3
Layer: 2
SplineSet
254 705 m 0
 128 705 99 782 99 833 c 0
 99 839 99 844 100 849 c 0
 101 850 l 0
 104 869 126 883 144 883 c 0
 155 883 164 878 166 865 c 0
 171 831 198 772 282 772 c 0
 285 772 289 772 292 772 c 0
 354 775 392 815 408 863 c 0
 412 878 437 894 454 894 c 0
 465 894 473 888 472 872 c 0
 472 867 472 861 471 856 c 0
 469 844 465 833 460 821 c 0
 435 767 363 705 254 705 c 0
EndSplineSet
EndChar

StartChar: dotaccent
Encoding: 729 729 194
Width: 300
VWidth: 0
GlyphClass: 2
Flags: HMW
LayerCount: 3
Layer: 2
SplineSet
289 842 m 0
 291 840 302 828 302 809 c 0
 302 806 301 804 301 801 c 0
 300 797 300 792 298 788 c 0
 289 762 250 725 195 725 c 0
 150 725 129 750 129 777 c 0
 129 780 130 783 130 786 c 0
 134 809 165 862 237 862 c 0
 243 862 248 861 252 860 c 2
 268 856 l 2
 278 853 285 848 289 842 c 0
EndSplineSet
EndChar

StartChar: ring
Encoding: 730 730 195
Width: 360
VWidth: 0
GlyphClass: 2
Flags: HMW
LayerCount: 3
Layer: 2
SplineSet
257 836 m 0
 252 835 246 833 241 833 c 0
 233 833 217 827 205 796 c 0
 203 790 201 785 200 779 c 0
 200 776 199 773 199 770 c 0
 199 739 228 727 236 727 c 0
 253 727 274 736 282 758 c 0
 283 761 284 763 284 766 c 0
 285 774 286 781 286 787 c 0
 286 811 277 827 257 836 c 0
275 884 m 0
 281 886 286 886 291 886 c 0
 296 886 302 886 306 884 c 0
 349 865 362 833 362 799 c 0
 362 791 361 782 360 774 c 0
 359 768 357 763 355 758 c 0
 337 710 276 673 216 673 c 0
 162 673 124 708 124 756 c 0
 124 761 124 766 125 771 c 0
 126 779 129 788 132 796 c 0
 146 834 188 887 261 887 c 0
 266 887 271 886 275 884 c 0
EndSplineSet
EndChar

StartChar: ogonek
Encoding: 731 731 196
Width: 300
VWidth: 0
GlyphClass: 2
Flags: HMW
LayerCount: 3
Layer: 2
SplineSet
156 -195 m 0
 158 -198 158 -202 157 -206 c 0
 155 -218 143 -231 127 -237 c 0
 95 -249 67 -255 42 -255 c 0
 -2 -255 -34 -238 -50 -210 c 0
 -57 -196 -61 -181 -61 -164 c 0
 -61 -157 -60 -151 -59 -144 c 0
 -49 -80 8 -4 108 40 c 0
 115 43 124 45 132 45 c 0
 144 45 155 41 160 32 c 0
 162 28 163 24 162 19 c 0
 160 8 150 -4 136 -10 c 0
 66 -41 29 -97 22 -139 c 0
 21 -144 21 -148 21 -152 c 0
 21 -161 23 -169 26 -176 c 0
 31 -186 40 -194 58 -194 c 0
 70 -194 85 -191 106 -183 c 0
 112 -181 120 -179 126 -179 c 0
 140 -179 152 -185 156 -195 c 0
EndSplineSet
EndChar

StartChar: tilde
Encoding: 732 732 197
Width: 420
VWidth: 0
GlyphClass: 2
Flags: HMW
LayerCount: 3
Layer: 2
SplineSet
458 870 m 0
 474 868 483 859 483 848 c 0
 483 843 481 840 480 836 c 0
 467 811 424 730 338 730 c 0
 284 730 260 762 243 782 c 1
 221 807 206 818 198 818 c 0
 193 818 168 798 149 763 c 0
 142 749 122 738 103 738 c 0
 101 738 98 738 96 738 c 0
 80 740 71 750 71 762 c 0
 71 767 73 769 74 773 c 0
 87 796 130 878 217 878 c 0
 273 878 296 844 314 824 c 1
 334 800 349 790 357 790 c 0
 361 790 390 811 406 844 c 0
 414 859 434 870 453 870 c 0
 455 870 456 870 458 870 c 0
EndSplineSet
EndChar

StartChar: hungarumlaut
Encoding: 733 733 198
Width: 420
VWidth: 0
GlyphClass: 2
Flags: HMW
LayerCount: 3
Layer: 2
SplineSet
486 889 m 0
 414 819 356 746 327 722 c 0
 327 722 308 717 293 717 c 0
 283 717 275 719 276 726 c 0
 276 727 277 729 278 731 c 0
 287 745 325 823 402 918 c 0
 402 918 419 940 441 940 c 0
 449 940 457 937 465 930 c 0
 488 910 l 0
 492 907 493 904 492 900 c 0
 491 896 489 892 486 889 c 0
281 889 m 0
 209 819 151 747 123 723 c 0
 123 723 102 718 87 718 c 0
 78 718 70 720 71 726 c 0
 71 727 72 729 73 731 c 0
 82 746 122 823 197 918 c 0
 197 918 214 940 236 940 c 0
 244 940 251 937 260 930 c 0
 283 910 l 0
 287 907 288 904 287 900 c 0
 286 896 284 892 281 889 c 0
EndSplineSet
EndChar

StartChar: endash
Encoding: 8211 8211 199
Width: 660
VWidth: 0
GlyphClass: 2
Flags: HMW
LayerCount: 3
Layer: 2
SplineSet
72 349 m 0
 82 367 108 381 133 381 c 2
 138 381 l 1
 191 376 289 374 389 374 c 0
 441 374 494 374 540 376 c 2
 542 376 l 2
 564 376 579 365 579 350 c 0
 579 349 579 347 579 346 c 2
 578 342 l 2
 572 323 545 305 518 304 c 0
 462 302 401 301 341 301 c 0
 247 301 157 304 101 309 c 0
 81 311 69 321 69 335 c 0
 69 341 70 344 72 349 c 0
EndSplineSet
Colour: ff00
EndChar

StartChar: emdash
Encoding: 8212 8212 200
Width: 1200
VWidth: 0
GlyphClass: 2
Flags: HMW
LayerCount: 3
Layer: 2
SplineSet
87 349 m 0
 97 367 123 381 148 381 c 2
 153 381 l 1
 227 374 439 371 649 371 c 0
 809 371 969 373 1065 376 c 2
 1067 376 l 2
 1089 376 1104 365 1104 350 c 0
 1104 349 1104 347 1104 346 c 2
 1103 342 l 2
 1097 323 1070 305 1043 304 c 0
 936 301 761 299 589 299 c 0
 390 299 196 301 116 309 c 0
 96 311 84 321 84 335 c 0
 84 341 85 344 87 349 c 0
EndSplineSet
Colour: ff00
EndChar

StartChar: quoteleft
Encoding: 8216 8216 201
Width: 330
VWidth: 0
GlyphClass: 2
Flags: HMW
LayerCount: 3
Layer: 2
SplineSet
292 607 m 0
 296 603 297 599 297 594 c 0
 297 593 297 591 297 590 c 0
 295 580 288 570 275 563 c 0
 271 560 265 558 260 556 c 0
 239 547 217 540 195 540 c 0
 193 540 192 540 190 540 c 0
 157 541 137 554 126 569 c 0
 116 583 110 603 110 625 c 0
 110 633 111 641 112 649 c 0
 122 714 174 792 277 839 c 0
 287 843 297 845 306 845 c 0
 319 845 330 841 336 834 c 0
 338 831 339 828 339 825 c 0
 339 824 339 822 339 821 c 0
 337 810 327 798 311 791 c 0
 246 762 210 702 203 656 c 0
 202 651 202 646 202 641 c 0
 202 627 205 615 210 608 c 0
 213 604 216 601 217 601 c 1
 218 601 222 603 230 607 c 0
 241 613 254 616 265 616 c 0
 276 616 286 613 292 607 c 0
EndSplineSet
Colour: ff00
EndChar

StartChar: quoteright
Encoding: 8217 8217 202
Width: 330
VWidth: 0
GlyphClass: 2
Flags: HMW
LayerCount: 3
Layer: 2
SplineSet
136 778 m 256
 133 782 131 787 131 792 c 0
 131 793 131 794 131 795 c 256
 133 805 141 815 155 823 c 256
 159 826 165 829 170 831 c 256
 191 841 215 847 237 847 c 256
 239 847 240 847 242 847 c 256
 275 845 295 830 305 814 c 256
 314 800 319 781 319 760 c 0
 319 752 318 744 317 735 c 256
 307 670 255 591 152 544 c 256
 143 540 133 538 124 538 c 256
 110 538 99 543 93 551 c 256
 91 554 90 558 90 562 c 0
 90 563 90 564 90 565 c 256
 92 577 102 589 118 596 c 256
 183 626 218 684 225 729 c 256
 226 735 226 741 226 746 c 0
 226 758 224 768 220 775 c 256
 216 781 212 782 212 782 c 257
 212 782 208 782 198 777 c 256
 187 771 175 768 164 768 c 256
 152 768 142 771 136 778 c 256
EndSplineSet
Colour: ff00
EndChar

StartChar: quotesinglbase
Encoding: 8218 8218 203
Width: 330
VWidth: 0
GlyphClass: 2
Flags: HMW
LayerCount: 3
Layer: 2
SplineSet
22 58 m 256
 19 62 17 67 17 72 c 0
 17 73 17 74 17 75 c 256
 19 85 27 95 41 103 c 256
 45 106 51 109 56 111 c 256
 77 121 101 127 123 127 c 256
 125 127 126 127 128 127 c 256
 161 125 181 110 191 94 c 256
 200 80 205 61 205 40 c 0
 205 32 204 24 203 15 c 256
 193 -50 141 -129 38 -176 c 256
 29 -180 19 -182 10 -182 c 256
 -4 -182 -15 -177 -21 -169 c 256
 -23 -166 -24 -162 -24 -158 c 0
 -24 -157 -24 -156 -24 -155 c 256
 -22 -143 -12 -131 4 -124 c 256
 69 -94 104 -36 111 9 c 256
 112 15 112 21 112 26 c 0
 112 38 110 48 106 55 c 256
 102 61 98 62 98 62 c 257
 98 62 94 62 84 57 c 256
 73 51 61 48 50 48 c 256
 38 48 28 51 22 58 c 256
EndSplineSet
Colour: ff00
EndChar

StartChar: quotedblleft
Encoding: 8220 8220 204
Width: 540
VWidth: 0
GlyphClass: 2
Flags: HMW
LayerCount: 3
Layer: 2
SplineSet
276 608 m 0
 280 604 284 599 284 593 c 0
 284 592 284 592 284 591 c 0
 283 582 274 572 262 565 c 0
 258 562 253 559 249 557 c 0
 228 547 206 540 183 540 c 0
 181 540 180 540 178 540 c 0
 151 541 135 552 125 563 c 0
 112 577 105 599 105 625 c 0
 105 633 106 641 107 650 c 0
 117 714 166 791 259 838 c 0
 270 843 281 846 291 846 c 0
 303 846 314 842 320 835 c 0
 323 831 325 827 325 822 c 0
 325 821 325 820 325 819 c 0
 323 809 314 799 299 792 c 0
 239 762 207 700 200 654 c 0
 199 647 198 640 198 634 c 0
 198 621 201 610 207 604 c 0
 207 604 207 603 208 603 c 1
 209 604 211 604 213 605 c 0
 224 612 239 616 251 616 c 0
 261 616 270 613 276 608 c 0
501 608 m 0
 505 604 509 599 509 593 c 0
 509 592 509 592 509 591 c 0
 508 582 499 572 487 565 c 0
 483 562 478 559 474 557 c 0
 453 547 431 540 408 540 c 0
 406 540 405 540 403 540 c 0
 376 541 360 552 350 563 c 0
 337 577 330 599 330 625 c 0
 330 633 331 641 332 650 c 0
 342 714 391 791 484 838 c 0
 495 843 506 846 516 846 c 0
 528 846 539 842 545 835 c 0
 548 831 550 827 550 822 c 0
 550 821 550 820 550 819 c 0
 548 809 539 799 524 792 c 0
 464 762 432 700 425 654 c 0
 424 647 423 640 423 634 c 0
 423 621 426 610 432 604 c 0
 432 604 432 603 433 603 c 1
 434 604 436 604 438 605 c 0
 449 612 464 616 476 616 c 0
 486 616 495 613 501 608 c 0
EndSplineSet
Colour: ff00
EndChar

StartChar: quotedblright
Encoding: 8221 8221 205
Width: 540
VWidth: 0
GlyphClass: 2
Flags: HMW
LayerCount: 3
Layer: 2
SplineSet
363 777 m 0
 359 781 356 785 356 791 c 0
 356 792 356 793 356 794 c 0
 357 803 365 813 377 820 c 0
 381 823 386 826 390 828 c 0
 411 838 434 845 457 845 c 0
 459 845 460 845 462 845 c 0
 489 844 504 833 514 822 c 0
 527 808 534 786 534 760 c 0
 534 752 533 744 532 735 c 0
 522 671 474 594 381 547 c 0
 370 542 358 539 348 539 c 0
 336 539 325 543 319 550 c 0
 316 554 315 558 315 562 c 0
 315 563 315 565 315 566 c 0
 317 576 325 586 340 593 c 0
 400 623 433 685 440 731 c 0
 441 738 442 745 442 751 c 0
 442 764 439 775 433 781 c 0
 433 781 433 782 432 782 c 1
 431 781 429 781 427 780 c 0
 416 773 401 769 389 769 c 0
 379 769 369 772 363 777 c 0
138 777 m 0
 134 781 131 785 131 791 c 0
 131 792 131 793 131 794 c 0
 132 803 140 813 152 820 c 0
 156 823 161 826 165 828 c 0
 186 838 209 845 232 845 c 0
 234 845 235 845 237 845 c 0
 264 844 279 833 289 822 c 0
 302 808 309 786 309 760 c 0
 309 752 308 744 307 735 c 0
 297 671 249 594 156 547 c 0
 145 542 133 539 123 539 c 0
 111 539 100 543 94 550 c 0
 91 554 90 558 90 562 c 0
 90 563 90 565 90 566 c 0
 92 576 100 586 115 593 c 0
 175 623 208 685 215 731 c 0
 216 738 217 745 217 751 c 0
 217 764 214 775 208 781 c 0
 208 781 208 782 207 782 c 1
 206 781 204 781 202 780 c 0
 191 773 176 769 164 769 c 0
 154 769 144 772 138 777 c 0
EndSplineSet
Colour: ff00
EndChar

StartChar: quotedblbase
Encoding: 8222 8222 206
Width: 540
VWidth: 0
GlyphClass: 2
Flags: HMW
LayerCount: 3
Layer: 2
SplineSet
249 57 m 0
 245 61 242 65 242 71 c 0
 242 72 242 73 242 74 c 0
 243 83 251 93 263 100 c 0
 267 103 272 106 276 108 c 0
 297 118 320 125 343 125 c 0
 345 125 346 125 348 125 c 0
 375 124 390 113 400 102 c 0
 413 88 420 66 420 40 c 0
 420 32 419 24 418 15 c 0
 408 -49 360 -126 267 -173 c 0
 256 -178 244 -181 234 -181 c 0
 222 -181 211 -177 205 -170 c 0
 202 -166 201 -162 201 -158 c 0
 201 -157 201 -155 201 -154 c 0
 203 -144 211 -134 226 -127 c 0
 286 -97 319 -35 326 11 c 0
 327 18 328 25 328 31 c 0
 328 44 325 55 319 61 c 0
 319 61 319 62 318 62 c 1
 317 61 315 61 313 60 c 0
 302 53 287 49 275 49 c 0
 265 49 255 52 249 57 c 0
24 57 m 0
 20 61 17 65 17 71 c 0
 17 72 17 73 17 74 c 0
 18 83 26 93 38 100 c 0
 42 103 47 106 51 108 c 0
 72 118 95 125 118 125 c 0
 120 125 121 125 123 125 c 0
 150 124 165 113 175 102 c 0
 188 88 195 66 195 40 c 0
 195 32 194 24 193 15 c 0
 183 -49 135 -126 42 -173 c 0
 31 -178 19 -181 9 -181 c 0
 -3 -181 -14 -177 -20 -170 c 0
 -23 -166 -24 -162 -24 -158 c 0
 -24 -157 -24 -155 -24 -154 c 0
 -22 -144 -14 -134 1 -127 c 0
 61 -97 94 -35 101 11 c 0
 102 18 103 25 103 31 c 0
 103 44 100 55 94 61 c 0
 94 61 94 62 93 62 c 1
 92 61 90 61 88 60 c 0
 77 53 62 49 50 49 c 0
 40 49 30 52 24 57 c 0
EndSplineSet
Colour: ff00
EndChar

StartChar: dagger
Encoding: 8224 8224 207
Width: 450
VWidth: 0
GlyphClass: 2
Flags: HMW
LayerCount: 3
Layer: 2
SplineSet
300 890 m 0
 302 890 303 890 305 890 c 0
 324 890 337 880 337 867 c 0
 337 866 337 865 337 864 c 0
 329 799 320 737 311 676 c 1
 362 676 413 678 455 680 c 0
 456 680 457 680 458 680 c 0
 476 680 489 671 489 657 c 0
 489 656 488 654 488 653 c 0
 488 652 l 0
 484 635 463 621 441 620 c 0
 400 618 352 617 303 616 c 1
 291 537 280 459 267 376 c 0
 247 248 223 110 196 -57 c 0
 193 -74 173 -88 151 -90 c 0
 149 -90 148 -90 146 -90 c 0
 128 -90 115 -81 115 -67 c 0
 115 -66 115 -64 115 -63 c 0
 143 106 166 245 186 374 c 0
 199 457 211 536 223 616 c 1
 172 616 122 618 76 620 c 0
 59 621 47 631 47 644 c 0
 47 645 47 646 47 647 c 0
 47 649 49 650 49 652 c 0
 56 668 78 680 98 680 c 0
 99 680 99 680 100 680 c 0
 140 678 185 676 231 676 c 1
 239 734 248 793 256 856 c 0
 259 872 278 888 300 890 c 0
EndSplineSet
Colour: ff00
EndChar

StartChar: daggerdbl
Encoding: 8225 8225 208
Width: 450
VWidth: 0
GlyphClass: 2
Flags: HMW
LayerCount: 3
Layer: 2
SplineSet
300 890 m 0
 302 890 303 890 305 890 c 0
 324 890 337 881 337 867 c 0
 337 802 320 736 311 676 c 1
 362 676 413 678 455 680 c 0
 456 680 457 680 458 680 c 0
 476 680 488 671 488 657 c 0
 488 656 488 655 488 653 c 0
 488 652 l 0
 484 635 463 621 441 620 c 0
 400 618 352 617 303 616 c 1
 291 534 279 453 265 367 c 0
 255 306 245 243 234 175 c 1
 285 175 335 177 375 180 c 0
 376 180 377 180 378 180 c 0
 396 180 409 172 409 158 c 0
 409 157 409 155 409 154 c 0
 409 153 l 0
 405 136 385 121 363 120 c 0
 322 117 273 115 224 115 c 1
 215 61 206 4 196 -57 c 0
 193 -74 173 -88 151 -90 c 0
 149 -90 148 -90 146 -90 c 0
 128 -90 115 -81 115 -67 c 0
 115 -4 135 60 144 115 c 1
 93 116 43 118 -2 120 c 0
 -20 121 -31 131 -31 144 c 0
 -31 148 -29 149 -29 152 c 0
 -22 168 0 180 20 180 c 0
 21 180 21 180 22 180 c 0
 63 178 107 177 154 176 c 1
 165 244 175 306 185 367 c 0
 199 453 211 534 223 616 c 1
 172 616 122 618 76 620 c 0
 58 621 47 631 47 644 c 0
 47 648 49 649 49 652 c 0
 56 668 78 680 98 680 c 0
 99 680 99 680 100 680 c 0
 140 678 185 676 231 676 c 1
 239 734 248 793 256 856 c 0
 259 872 278 888 300 890 c 0
EndSplineSet
Colour: ff00
EndChar

StartChar: bullet
Encoding: 8226 8226 209
Width: 720
VWidth: 0
GlyphClass: 2
Flags: HMW
LayerCount: 3
Layer: 2
SplineSet
390 464 m 0
 395 465 401 466 406 466 c 0
 414 466 420 464 426 462 c 0
 473 442 486 407 486 371 c 0
 486 362 485 354 484 345 c 0
 475 290 412 242 342 235 c 0
 336 234 331 234 325 234 c 0
 264 234 224 272 224 323 c 0
 224 329 224 334 225 340 c 0
 231 379 256 435 329 458 c 0
 339 461 350 464 361 465 c 0
 366 465 371 466 376 466 c 0
 381 466 385 465 390 464 c 0
EndSplineSet
Colour: ff00
EndChar

StartChar: ellipsis
Encoding: 8230 8230 210
Width: 720
VWidth: 0
GlyphClass: 3
Flags: HMW
LayerCount: 3
Layer: 2
SplineSet
374 108 m 0
 376 105 386 94 386 76 c 0
 386 74 386 72 386 70 c 0
 385 66 384 62 382 58 c 0
 374 34 339 2 291 2 c 0
 251 2 233 24 233 49 c 0
 233 52 234 54 234 57 c 0
 237 78 267 125 329 125 c 0
 334 125 339 125 342 124 c 2
 357 120 l 2
 365 118 371 113 374 108 c 0
599 108 m 0
 601 105 611 94 611 76 c 0
 611 74 611 72 611 70 c 0
 610 66 609 62 607 58 c 0
 599 34 564 2 516 2 c 0
 476 2 458 24 458 49 c 0
 458 52 459 54 459 57 c 0
 462 78 492 125 554 125 c 0
 559 125 564 125 567 124 c 2
 582 120 l 2
 590 118 596 113 599 108 c 0
149 108 m 0
 151 105 161 94 161 76 c 0
 161 74 161 72 161 70 c 0
 160 66 159 62 157 58 c 0
 149 34 114 2 66 2 c 0
 26 2 8 24 8 49 c 0
 8 52 9 54 9 57 c 0
 12 78 42 125 104 125 c 0
 109 125 114 125 117 124 c 2
 132 120 l 2
 140 118 146 113 149 108 c 0
EndSplineSet
Colour: ff00
EndChar

StartChar: guilsinglleft
Encoding: 8249 8249 211
Width: 450
VWidth: 0
GlyphClass: 2
Flags: HMW
LayerCount: 3
Layer: 2
SplineSet
315 74 m 0
 304 68 293 65 283 65 c 0
 272 65 263 69 256 76 c 0
 207 129 111 234 62 320 c 0
 60 323 59 327 59 331 c 0
 59 332 59 333 59 334 c 0
 60 343 67 352 76 360 c 0
 167 430 286 537 323 589 c 0
 335 605 352 616 371 616 c 0
 375 616 377 616 381 615 c 0
 395 612 400 605 400 596 c 0
 400 595 400 594 400 592 c 0
 399 586 395 578 390 571 c 0
 346 510 262 417 168 341 c 1
 215 265 283 171 326 124 c 0
 332 118 334 110 334 102 c 0
 334 101 334 99 334 98 c 0
 333 89 327 80 315 74 c 0
EndSplineSet
Colour: ff00
EndChar

StartChar: guilsinglright
Encoding: 8250 8250 212
Width: 450
VWidth: 0
GlyphClass: 2
Flags: HMW
LayerCount: 3
Layer: 2
SplineSet
123 607 m 0
 134 613 145 616 155 616 c 0
 166 616 175 612 182 605 c 0
 231 552 327 447 376 361 c 0
 378 358 379 354 379 350 c 0
 379 349 379 348 379 347 c 0
 378 338 371 329 362 321 c 0
 271 251 152 144 115 92 c 0
 103 76 86 65 67 65 c 0
 63 65 60 65 56 66 c 0
 42 69 38 75 38 84 c 0
 38 86 38 87 38 89 c 0
 39 95 42 103 47 110 c 0
 91 171 176 264 270 340 c 1
 223 416 155 510 112 557 c 0
 106 563 104 571 104 579 c 0
 104 580 104 582 104 583 c 0
 105 592 111 601 123 607 c 0
EndSplineSet
Colour: ff00
EndChar

StartChar: fraction
Encoding: 8260 8260 213
Width: 60
VWidth: 0
GlyphClass: 2
Flags: HMW
LayerCount: 3
Layer: 2
SplineSet
383 790 m 0
 395 787 401 780 401 772 c 0
 401 771 401 771 401 770 c 0
 400 766 399 762 395 758 c 0
 206 539 -74 222 -262 27 c 0
 -273 17 -291 9 -307 9 c 0
 -311 9 -314 10 -318 11 c 0
 -330 14 -334 21 -334 28 c 0
 -334 29 -334 29 -334 30 c 0
 -333 34 -332 39 -327 43 c 0
 -141 236 138 553 327 772 c 0
 337 784 356 791 373 791 c 0
 377 791 380 791 383 790 c 0
EndSplineSet
Colour: ff00
EndChar

StartChar: Euro
Encoding: 8364 8364 214
Width: 720
VWidth: 0
GlyphClass: 2
Flags: HMW
LayerCount: 3
Layer: 2
SplineSet
608 173 m 0
 623 169 632 160 632 148 c 0
 632 141 630 135 625 129 c 0
 567 54 473 -3 373 -13 c 0
 362 -14 351 -15 340 -15 c 0
 204 -15 107 78 107 272 c 1
 79 273 55 275 34 277 c 0
 18 279 9 287 9 298 c 0
 9 302 9 305 11 308 c 0
 19 322 39 333 58 333 c 2
 63 333 l 2
 77 332 91 331 109 330 c 1
 111 349 113 368 116 388 c 0
 119 410 125 432 130 453 c 1
 105 454 81 455 62 457 c 0
 46 459 37 467 37 478 c 0
 37 482 37 485 39 488 c 0
 47 502 67 513 86 513 c 2
 91 513 l 2
 107 512 125 510 146 509 c 1
 203 681 314 784 444 810 c 0
 465 814 485 816 504 816 c 0
 620 816 701 741 705 636 c 0
 705 634 705 633 705 631 c 0
 702 614 682 597 656 592 c 0
 651 591 645 590 640 590 c 0
 619 590 605 601 604 616 c 0
 600 705 534 745 474 745 c 0
 465 745 456 744 448 742 c 0
 389 730 293 667 241 506 c 1
 300 506 l 2
 360 506 423 507 480 509 c 2
 482 509 l 2
 500 509 511 500 511 487 c 0
 511 486 511 485 511 484 c 2
 510 481 l 2
 505 465 483 452 462 451 c 0
 413 449 360 448 309 448 c 0
 281 448 253 448 226 449 c 1
 222 433 219 416 216 398 c 0
 212 372 209 348 208 326 c 1
 267 326 l 2
 328 326 393 327 451 329 c 2
 453 329 l 2
 471 329 482 320 482 307 c 0
 482 306 482 305 482 304 c 2
 482 301 l 2
 477 285 455 272 434 271 c 0
 388 269 338 268 289 268 c 0
 261 268 234 269 207 269 c 1
 214 104 300 57 369 57 c 0
 374 57 379 58 384 58 c 0
 436 63 496 94 539 149 c 0
 550 164 574 175 595 175 c 0
 600 175 604 174 608 173 c 0
EndSplineSet
Colour: ff00
EndChar

StartChar: trademark
Encoding: 8482 8482 215
Width: 720
VWidth: 0
GlyphClass: 2
Flags: HMW
LayerCount: 3
Layer: 2
SplineSet
404 549 m 0
 403 549 402 549 401 549 c 0
 384 549 373 557 373 568 c 0
 373 570 374 572 374 573 c 0
 392 638 415 762 432 848 c 0
 433 855 435 861 436 867 c 0
 436 867 474 893 496 893 c 0
 503 893 508 890 511 884 c 0
 538 817 556 750 568 712 c 1
 593 753 628 816 673 882 c 0
 673 882 707 896 728 896 c 0
 738 896 745 893 745 885 c 0
 745 884 745 883 745 882 c 0
 744 877 743 871 742 866 c 0
 729 772 715 637 714 586 c 0
 714 585 713 585 713 584 c 0
 711 572 696 558 676 554 c 0
 673 553 669 553 666 553 c 0
 650 553 638 561 638 572 c 0
 638 606 645 679 653 747 c 1
 614 685 601 650 575 630 c 0
 561 620 552 616 545 616 c 0
 535 616 530 623 527 626 c 0
 511 641 507 676 486 743 c 1
 474 686 459 616 448 577 c 0
 444 563 424 550 404 549 c 0
199 545 m 0
 197 545 195 545 193 545 c 0
 176 545 166 552 166 563 c 0
 166 614 182 664 188 700 c 0
 196 753 202 794 205 826 c 1
 205 827 205 828 205 829 c 0
 205 832 204 832 204 832 c 1
 204 832 203 833 202 833 c 1
 173 836 135 833 114 845 c 0
 114 845 110 854 110 864 c 0
 110 866 110 867 110 869 c 0
 112 881 121 893 152 893 c 0
 162 893 206 889 266 889 c 0
 297 889 333 892 367 893 c 0
 368 893 368 893 369 893 c 0
 386 893 396 885 396 874 c 0
 396 872 395 870 395 868 c 0
 391 854 369 842 349 841 c 0
 329 840 306 839 281 838 c 1
 281 838 280 837 280 836 c 1
 277 803 272 762 263 708 c 0
 257 670 250 626 241 574 c 0
 239 560 219 547 199 545 c 0
EndSplineSet
Colour: ff00
EndChar

StartChar: minus
Encoding: 8722 8722 216
Width: 600
VWidth: 0
GlyphClass: 2
Flags: HMW
LayerCount: 3
Layer: 2
SplineSet
72 349 m 256
 82 367 108 381 133 381 c 256
 135 381 136 381 138 381 c 256
 190 376 258 373 336 373 c 256
 381 373 430 374 480 376 c 256
 481 376 481 376 482 376 c 256
 504 376 519 365 519 350 c 0
 519 347 518 344 518 342 c 256
 512 323 485 305 458 304 c 256
 406 302 357 301 310 301 c 256
 230 301 158 304 101 309 c 256
 81 311 69 321 69 335 c 0
 69 341 70 344 72 349 c 256
EndSplineSet
EndChar

StartChar: uni0300
Encoding: 768 768 219
Width: 0
VWidth: 0
GlyphClass: 4
Flags: HMW
AnchorPoint: "LatinAbove.mark_1" -60 0 mark 0
LayerCount: 3
Layer: 2
SplineSet
-81 847 m 2
 -55 877 l 0
 -55 877 -38 901 -14 901 c 0
 -5 901 4 898 14 889 c 0
 88 821 153 742 165 726 c 0
 165 726 141 699 115 699 c 0
 110 699 104 701 99 703 c 0
 76 715 -6 770 -80 820 c 0
 -85 824 -88 829 -87 835 c 0
 -86 839 -85 843 -81 847 c 2
EndSplineSet
EndChar

StartChar: uni0301
Encoding: 769 769 220
Width: 0
VWidth: 0
GlyphClass: 4
Flags: HMW
AnchorPoint: "LatinAbove.mark_1" -60 0 mark 0
LayerCount: 3
Layer: 2
SplineSet
218 825 m 0
 124 765 36 712 -12 701 c 0
 -12 701 -23 699 -34 699 c 0
 -46 699 -59 701 -58 710 c 0
 -57 714 -53 721 -43 729 c 0
 -31 739 53 805 148 882 c 0
 148 882 169 901 189 901 c 0
 199 901 208 897 215 884 c 0
 231 854 l 0
 233 851 233 847 233 844 c 0
 232 837 227 831 218 825 c 0
EndSplineSet
EndChar

StartChar: uni0302
Encoding: 770 770 221
Width: 0
VWidth: 0
GlyphClass: 4
Flags: HMW
AnchorPoint: "LatinAbove.mark_1" -60 0 mark 0
LayerCount: 3
Layer: 2
SplineSet
110 873 m 0
 165 813 229 744 237 722 c 0
 237 722 218 688 193 688 c 0
 187 688 182 690 176 694 c 0
 161 703 108 747 60 790 c 1
 1 749 -58 709 -84 696 c 0
 -84 696 -108 686 -124 686 c 0
 -132 686 -138 689 -137 697 c 0
 -136 701 -133 706 -129 713 c 0
 -111 740 -24 807 43 866 c 0
 43 866 61 886 83 886 c 0
 92 886 101 882 110 873 c 0
EndSplineSet
EndChar

StartChar: uni0303
Encoding: 771 771 222
Width: 0
VWidth: 0
GlyphClass: 4
Flags: HMW
AnchorPoint: "LatinAbove.mark_1" -60 0 mark 0
LayerCount: 3
Layer: 2
SplineSet
249 870 m 0
 265 868 274 859 274 848 c 0
 274 843 272 840 271 836 c 0
 258 811 215 730 129 730 c 0
 75 730 51 762 34 782 c 1
 12 807 -3 818 -11 818 c 0
 -16 818 -41 798 -60 763 c 0
 -67 749 -87 738 -106 738 c 0
 -108 738 -111 738 -113 738 c 0
 -129 740 -138 750 -138 762 c 0
 -138 767 -136 769 -135 773 c 0
 -122 796 -79 878 8 878 c 0
 64 878 87 844 105 824 c 1
 125 800 140 790 148 790 c 0
 152 790 181 811 197 844 c 0
 205 859 225 870 244 870 c 0
 246 870 247 870 249 870 c 0
EndSplineSet
EndChar

StartChar: uni0306
Encoding: 774 774 223
Width: 0
VWidth: 0
GlyphClass: 4
Flags: HMW
AnchorPoint: "LatinAbove.mark_1" -60 0 mark 0
LayerCount: 3
Layer: 2
SplineSet
44 705 m 0
 -82 705 -111 782 -111 833 c 0
 -111 839 -111 844 -110 849 c 0
 -109 850 l 0
 -106 869 -84 883 -66 883 c 0
 -55 883 -46 878 -44 865 c 0
 -39 831 -12 772 72 772 c 0
 75 772 79 772 82 772 c 0
 144 775 182 815 198 863 c 0
 202 878 227 894 244 894 c 0
 255 894 263 888 262 872 c 0
 262 867 262 861 261 856 c 0
 259 844 255 833 250 821 c 0
 225 767 153 705 44 705 c 0
EndSplineSet
EndChar

StartChar: uni0307
Encoding: 775 775 224
Width: 0
VWidth: 0
GlyphClass: 4
Flags: HMW
AnchorPoint: "LatinAbove.mark_1" -60 0 mark 0
LayerCount: 3
Layer: 2
SplineSet
139 842 m 0
 141 840 152 828 152 809 c 0
 152 806 151 804 151 801 c 0
 150 797 150 792 148 788 c 0
 139 762 100 725 45 725 c 0
 0 725 -21 750 -21 777 c 0
 -21 780 -20 783 -20 786 c 0
 -16 809 15 862 87 862 c 0
 93 862 98 861 102 860 c 2
 118 856 l 2
 128 853 135 848 139 842 c 0
EndSplineSet
EndChar

StartChar: uni0308
Encoding: 776 776 225
Width: 0
VWidth: 0
GlyphClass: 4
Flags: HMW
AnchorPoint: "LatinAbove.mark_1" -60 0 mark 0
LayerCount: 3
Layer: 2
SplineSet
260 842 m 0
 262 840 273 828 273 809 c 0
 273 806 272 804 272 801 c 0
 271 797 271 792 269 788 c 0
 260 762 226 725 171 725 c 0
 127 725 110 749 110 775 c 0
 110 779 110 782 111 786 c 0
 115 809 141 862 213 862 c 0
 219 862 224 861 228 860 c 2
 239 856 l 2
 249 853 256 848 260 842 c 0
8 842 m 0
 10 840 21 828 21 809 c 0
 21 806 20 804 20 801 c 0
 19 797 19 792 17 788 c 0
 8 762 -26 725 -81 725 c 0
 -125 725 -142 749 -142 775 c 0
 -142 779 -142 782 -141 786 c 0
 -137 809 -111 862 -39 862 c 0
 -33 862 -28 861 -24 860 c 2
 -13 856 l 2
 -3 853 4 848 8 842 c 0
EndSplineSet
EndChar

StartChar: uni030A
Encoding: 778 778 226
Width: 0
VWidth: 0
GlyphClass: 4
Flags: HMW
AnchorPoint: "LatinAbove.mark_1" -60 0 mark 0
LayerCount: 3
Layer: 2
SplineSet
77 836 m 0
 72 835 66 833 61 833 c 0
 53 833 37 827 25 796 c 0
 23 790 21 785 20 779 c 0
 20 776 19 773 19 770 c 0
 19 739 48 727 56 727 c 0
 73 727 94 736 102 758 c 0
 103 761 104 763 104 766 c 0
 105 774 106 781 106 787 c 0
 106 811 97 827 77 836 c 0
95 884 m 0
 101 886 106 886 111 886 c 0
 116 886 122 886 126 884 c 0
 169 865 182 833 182 799 c 0
 182 791 181 782 180 774 c 0
 179 768 177 763 175 758 c 0
 157 710 96 673 36 673 c 0
 -18 673 -56 708 -56 756 c 0
 -56 761 -56 766 -55 771 c 0
 -54 779 -51 788 -48 796 c 0
 -34 834 8 887 81 887 c 0
 86 887 91 886 95 884 c 0
EndSplineSet
EndChar

StartChar: uni0327
Encoding: 807 807 227
Width: 0
VWidth: 0
GlyphClass: 4
Flags: HMW
LayerCount: 3
Layer: 2
SplineSet
-46 23 m 0
 -35 21 -28 14 -30 4 c 0
 -30 1 -32 -3 -34 -6 c 0
 -85 -76 l 1
 -78 -75 -69 -75 -60 -75 c 0
 -42 -75 -22 -77 -10 -82 c 0
 19 -94 31 -115 31 -139 c 0
 31 -143 31 -146 30 -150 c 0
 26 -173 12 -197 -9 -215 c 0
 -38 -240 -78 -255 -120 -255 c 0
 -149 -255 -181 -248 -209 -232 c 0
 -216 -228 -220 -221 -219 -214 c 0
 -218 -208 -214 -202 -208 -197 c 0
 -199 -189 -186 -185 -174 -185 c 0
 -168 -185 -163 -186 -158 -188 c 0
 -136 -200 -117 -204 -102 -204 c 0
 -81 -204 -67 -196 -58 -188 c 0
 -49 -180 -43 -170 -41 -160 c 0
 -41 -158 -41 -157 -41 -155 c 0
 -41 -144 -46 -134 -61 -126 c 0
 -73 -120 -90 -115 -118 -115 c 0
 -121 -115 -123 -115 -126 -115 c 0
 -127 -115 -129 -115 -130 -115 c 0
 -153 -115 -158 -106 -157 -98 c 0
 -156 -91 -150 -85 -150 -84 c 0
 -91 6 l 0
 -83 18 -69 24 -55 24 c 0
 -52 24 -49 24 -46 23 c 0
EndSplineSet
EndChar

StartChar: yen
Encoding: 165 165 228
Width: 720
VWidth: 0
Flags: HMW
LayerCount: 3
Layer: 2
SplineSet
108 358 m 0
 115 374 134 385 154 385 c 0
 156 385 157 385 159 385 c 0
 181 383 204 382 230 381 c 1
 216 401 205 423 193 448 c 0
 151 535 118 646 97 755 c 0
 96 758 96 761 96 764 c 0
 99 782 119 800 145 807 c 0
 152 809 158 810 165 810 c 0
 187 810 204 800 207 785 c 0
 226 680 261 571 300 490 c 0
 321 449 341 404 361 382 c 1
 387 413 420 449 457 496 c 0
 506 557 566 642 639 766 c 0
 650 785 681 799 707 799 c 2
 714 799 l 2
 735 797 746 786 746 771 c 0
 746 769 746 768 746 766 c 0
 745 762 744 758 741 754 c 0
 666 626 602 537 551 472 c 0
 520 432 494 401 473 377 c 1
 507 377 542 379 578 380 c 0
 579 380 579 380 580 380 c 0
 599 380 610 370 610 357 c 0
 610 355 610 353 610 351 c 0
 605 334 585 321 563 320 c 0
 516 318 469 317 424 317 c 1
 411 299 404 283 401 265 c 0
 398 250 395 236 393 222 c 1
 440 222 493 223 554 225 c 0
 555 225 555 225 556 225 c 0
 575 225 586 215 586 202 c 0
 586 200 585 198 585 196 c 0
 580 179 560 166 538 165 c 0
 480 163 429 162 384 162 c 1
 378 118 372 75 368 28 c 2
 368 25 l 2
 365 5 340 -15 310 -19 c 0
 307 -19 303 -20 300 -20 c 0
 276 -20 258 -7 258 11 c 0
 258 63 268 115 276 163 c 1
 215 164 162 166 109 170 c 0
 91 171 81 181 81 194 c 0
 81 198 83 200 83 203 c 0
 90 219 111 230 131 230 c 0
 132 230 133 230 134 230 c 0
 183 227 230 224 285 223 c 1
 287 234 289 244 291 255 c 0
 294 273 299 289 307 305 c 1
 301 309 293 313 287 318 c 1
 230 319 179 322 133 325 c 0
 116 327 106 337 106 349 c 0
 106 353 108 355 108 358 c 0
EndSplineSet
EndChar

StartChar: currency
Encoding: 164 164 229
Width: 720
VWidth: 0
Flags: HMW
LayerCount: 3
Layer: 2
SplineSet
437 622 m 1
 440 622 444 623 447 623 c 0
 452 623 456 622 460 621 c 0
 487 615 510 606 528 595 c 1
 554 618 581 640 610 665 c 0
 623 676 642 683 659 683 c 0
 667 683 674 681 681 678 c 0
 690 673 695 665 695 657 c 0
 695 656 695 654 695 653 c 0
 694 645 689 636 681 629 c 0
 645 599 612 570 581 542 c 1
 599 511 606 475 606 437 c 0
 606 417 604 396 601 376 c 0
 599 364 596 353 592 342 c 0
 581 310 561 281 535 256 c 1
 563 219 590 183 617 145 c 0
 619 141 620 137 620 133 c 0
 620 132 620 131 620 129 c 0
 618 117 608 103 591 95 c 0
 580 90 570 88 559 88 c 0
 544 88 531 92 524 101 c 0
 499 135 476 167 451 200 c 1
 407 179 356 167 307 167 c 0
 270 167 236 176 207 192 c 1
 177 164 146 137 113 107 c 0
 100 95 79 87 61 87 c 0
 54 87 47 88 41 91 c 0
 31 95 26 104 26 113 c 0
 26 115 26 116 26 118 c 0
 27 125 31 132 38 139 c 0
 78 177 114 208 149 240 c 1
 129 268 116 304 116 344 c 0
 116 355 117 366 119 378 c 0
 121 392 124 405 128 419 c 0
 140 457 160 495 189 527 c 1
 160 561 135 591 106 623 c 0
 102 627 101 631 101 636 c 0
 101 637 101 639 101 641 c 0
 103 652 112 665 127 673 c 0
 138 679 151 682 163 682 c 0
 176 682 188 678 195 671 c 0
 220 644 242 617 267 589 c 1
 308 612 356 627 410 628 c 0
 420 628 430 626 437 622 c 1
396 557 m 0
 393 557 390 556 387 556 c 0
 319 554 255 510 227 422 c 0
 223 411 220 400 218 388 c 0
 217 379 216 371 216 363 c 0
 216 280 288 239 333 239 c 0
 398 239 470 275 494 342 c 0
 497 349 500 358 501 366 c 0
 504 385 506 403 506 420 c 0
 506 489 477 537 408 553 c 0
 404 554 400 555 396 557 c 0
EndSplineSet
EndChar

StartChar: section
Encoding: 167 167 230
Width: 720
VWidth: 0
Flags: HMW
LayerCount: 3
Layer: 2
SplineSet
568 587 m 0
 567 587 567 587 566 587 c 0
 544 587 529 598 529 613 c 0
 529 615 529 618 529 621 c 0
 531 627 532 632 533 638 c 0
 534 644 534 650 534 656 c 0
 534 709 495 747 442 747 c 0
 368 747 316 724 282 693 c 0
 259 672 243 646 239 619 c 0
 238 614 238 608 238 603 c 0
 238 563 262 523 323 495 c 0
 361 477 460 429 489 415 c 0
 504 408 515 400 527 392 c 0
 574 357 595 312 595 265 c 0
 595 256 594 248 593 239 c 0
 584 185 551 130 500 88 c 1
 534 55 549 15 549 -25 c 0
 549 -34 548 -42 547 -51 c 0
 545 -62 543 -73 539 -84 c 0
 507 -175 393 -266 241 -266 c 0
 100 -266 26 -192 6 -98 c 0
 6 -97 6 -96 6 -95 c 0
 6 -93 6 -92 6 -90 c 0
 9 -74 27 -58 50 -51 c 0
 56 -49 63 -48 69 -48 c 0
 88 -48 104 -56 107 -70 c 0
 123 -150 179 -194 266 -194 c 0
 354 -194 418 -147 441 -84 c 0
 443 -76 445 -69 446 -61 c 0
 447 -55 448 -48 448 -42 c 0
 448 2 422 44 363 70 c 0
 331 84 251 124 214 139 c 0
 139 170 107 226 107 285 c 0
 107 294 108 303 109 312 c 0
 116 359 142 406 181 443 c 0
 188 449 195 456 203 462 c 1
 157 497 136 542 136 587 c 0
 136 594 137 602 138 609 c 0
 144 650 169 691 208 727 c 0
 268 782 362 819 468 819 c 0
 583 819 634 750 634 674 c 0
 634 665 633 656 632 647 c 0
 631 640 630 632 628 625 c 0
 622 606 595 588 568 587 c 0
443 128 m 1
 471 153 489 187 495 222 c 0
 496 228 496 235 496 242 c 0
 496 277 482 311 447 336 c 0
 439 342 429 348 419 353 c 0
 391 366 307 407 265 426 c 1
 258 421 252 416 247 411 c 0
 225 389 210 361 205 331 c 0
 204 324 203 318 203 311 c 0
 203 268 226 226 280 203 c 0
 320 186 403 146 431 134 c 0
 435 132 439 130 443 128 c 1
EndSplineSet
EndChar

StartChar: ordfeminine
Encoding: 170 170 231
Width: 360
VWidth: 0
Flags: HMW
LayerCount: 3
Layer: 2
SplineSet
95 560 m 0
 101 571 122 581 140 581 c 0
 167 581 190 581 212 581 c 0
 245 581 273 581 307 583 c 0
 308 583 309 583 310 583 c 0
 325 583 334 576 334 568 c 0
 334 567 l 0
 334 566 333 565 333 564 c 0
 328 553 310 542 291 541 c 0
 255 539 223 539 189 539 c 0
 167 539 143 539 117 539 c 0
 102 539 93 547 93 555 c 0
 93 556 l 0
 93 557 94 559 95 560 c 0
336 788 m 0
 336 704 337 677 352 674 c 0
 360 671 363 667 363 661 c 0
 363 660 363 660 363 659 c 0
 362 655 362 652 357 648 c 0
 348 639 334 633 322 633 c 0
 318 633 316 634 312 635 c 0
 294 641 289 657 287 698 c 1
 275 675 257 646 225 635 c 0
 212 631 201 630 189 630 c 0
 125 630 103 666 103 709 c 0
 103 716 104 723 105 731 c 0
 109 756 119 780 130 801 c 0
 152 842 202 900 284 900 c 0
 335 900 341 862 341 845 c 0
 341 841 341 838 341 837 c 0
 339 826 325 815 306 812 c 0
 303 812 300 811 297 811 c 0
 284 811 277 817 277 825 c 0
 277 826 277 826 277 827 c 0
 277 828 277 828 277 829 c 0
 277 838 270 857 261 858 c 0
 250 858 219 844 195 798 c 0
 185 778 178 758 175 741 c 0
 174 735 174 729 174 723 c 0
 174 692 187 672 211 672 c 0
 212 672 213 672 213 672 c 1
 230 676 260 727 271 777 c 0
 273 785 282 796 292 798 c 0
 295 798 299 799 302 799 c 0
 322 799 336 788 336 788 c 0
EndSplineSet
EndChar

StartChar: two.sups
Encoding: 178 178 232
Width: 330
VWidth: 0
Flags: HMW
LayerCount: 3
Layer: 2
SplineSet
330 578 m 0
 327 564 305 550 284 548 c 0
 266 546 210 539 159 539 c 0
 108 539 63 546 63 573 c 0
 63 574 63 576 63 577 c 0
 81 690 259 729 269 791 c 0
 270 795 270 799 270 803 c 0
 270 830 253 839 240 841 c 0
 238 841 235 842 232 842 c 0
 217 842 196 834 180 814 c 0
 170 802 152 794 134 794 c 0
 131 794 128 795 125 795 c 0
 112 797 105 803 105 812 c 0
 105 813 105 814 105 815 c 0
 105 818 107 822 110 826 c 0
 142 867 202 894 256 894 c 0
 264 894 272 893 280 892 c 0
 324 885 350 857 350 817 c 0
 350 812 350 807 349 801 c 0
 333 697 165 650 145 596 c 1
 154 595 167 594 182 594 c 0
 218 594 267 597 296 600 c 0
 298 600 299 600 301 600 c 0
 318 600 330 592 330 581 c 0
 330 580 330 580 330 579 c 0
 330 578 l 0
EndSplineSet
EndChar

StartChar: three.sups
Encoding: 179 179 233
Width: 330
VWidth: 0
Flags: HMW
LayerCount: 3
Layer: 2
SplineSet
117 796 m 0
 105 799 99 806 99 814 c 0
 99 815 99 815 99 816 c 0
 100 820 101 824 105 828 c 0
 134 860 181 884 227 890 c 0
 235 891 243 892 251 892 c 0
 306 892 342 864 342 818 c 0
 342 813 342 807 341 802 c 0
 337 774 320 749 297 732 c 1
 325 720 341 699 341 668 c 0
 341 662 340 657 339 650 c 0
 332 603 300 565 247 545 c 0
 224 536 200 532 178 532 c 0
 124 532 79 556 62 587 c 0
 60 590 60 593 60 596 c 0
 62 606 73 617 89 623 c 0
 96 626 104 627 111 627 c 0
 124 627 134 623 138 615 c 0
 151 593 181 584 204 584 c 0
 212 584 219 585 224 587 c 0
 233 590 253 602 259 640 c 0
 260 646 260 650 260 655 c 0
 260 685 241 692 217 692 c 0
 197 692 173 687 154 687 c 0
 140 687 136 692 136 698 c 0
 136 699 136 699 136 700 c 0
 138 715 163 737 163 737 c 0
 204 746 252 738 261 792 c 0
 262 796 262 800 262 803 c 0
 262 832 241 839 225 839 c 0
 223 839 221 839 219 839 c 0
 206 837 188 831 173 814 c 0
 163 803 144 795 127 795 c 0
 124 795 120 795 117 796 c 0
EndSplineSet
EndChar

StartChar: paragraph
Encoding: 182 182 234
Width: 720
VWidth: 0
Flags: HMW
LayerCount: 3
Layer: 2
SplineSet
522 -245 m 0
 519 -245 517 -245 514 -245 c 0
 492 -245 477 -234 477 -218 c 0
 477 -217 477 -217 477 -216 c 0
 487 -133 525 114 541 217 c 0
 564 360 609 627 635 739 c 1
 581 739 535 738 494 738 c 1
 470 635 422 357 399 212 c 0
 383 109 347 -123 337 -204 c 2
 337 -205 l 2
 334 -224 308 -242 282 -245 c 0
 279 -245 277 -245 274 -245 c 0
 252 -245 237 -234 237 -218 c 0
 237 -217 237 -217 237 -216 c 0
 247 -133 283 99 299 202 c 0
 303 229 309 261 314 295 c 1
 119 303 36 409 36 519 c 0
 36 531 37 542 39 554 c 0
 57 666 168 787 356 806 c 0
 370 807 383 809 398 809 c 0
 482 810 570 810 705 811 c 0
 726 811 743 800 743 784 c 0
 743 783 743 781 743 780 c 0
 743 779 742 778 742 777 c 0
 721 703 666 386 641 227 c 0
 625 124 587 -123 577 -204 c 2
 577 -205 l 2
 574 -224 548 -242 522 -245 c 0
396 737 m 1
 389 737 382 737 375 737 c 0
 365 737 353 736 344 735 c 0
 227 723 152 653 138 564 c 0
 137 555 136 545 136 536 c 0
 136 454 195 381 326 368 c 1
 349 508 378 664 396 737 c 1
EndSplineSet
EndChar

StartChar: one.sups
Encoding: 185 185 235
Width: 330
VWidth: 0
Flags: HMW
LayerCount: 3
Layer: 2
SplineSet
114 795 m 0
 112 798 112 802 112 805 c 0
 114 815 125 825 140 831 c 0
 173 843 205 857 231 878 c 0
 231 878 258 893 277 893 c 0
 287 893 296 888 296 876 c 0
 296 874 295 872 295 870 c 0
 295 869 295 870 295 869 c 0
 284 813 276 772 270 734 c 0
 263 691 258 652 252 599 c 1
 261 596 286 598 310 594 c 0
 314 593 330 577 330 563 c 0
 330 550 317 543 284 543 c 0
 283 543 282 543 281 543 c 0
 269 543 259 544 248 544 c 0
 200 544 160 541 103 539 c 0
 102 539 102 539 101 539 c 0
 84 539 74 547 74 558 c 0
 74 560 74 561 74 563 c 0
 78 577 100 590 120 591 c 0
 141 592 159 592 177 593 c 1
 183 644 188 682 195 725 c 0
 199 750 203 776 209 807 c 1
 193 800 176 793 161 787 c 0
 155 784 147 783 140 783 c 0
 128 783 118 787 114 795 c 0
EndSplineSet
EndChar

StartChar: ordmasculine
Encoding: 186 186 236
Width: 360
VWidth: 0
Flags: HMW
LayerCount: 3
Layer: 2
SplineSet
90 560 m 0
 96 571 117 581 135 581 c 0
 162 581 185 581 207 581 c 0
 240 581 268 581 302 583 c 0
 303 583 304 583 305 583 c 0
 320 583 329 576 329 568 c 0
 329 567 l 0
 329 566 328 565 328 564 c 0
 323 553 305 542 286 541 c 0
 250 539 218 539 184 539 c 0
 162 539 138 539 112 539 c 0
 97 539 88 547 88 555 c 0
 88 556 l 0
 88 557 89 559 90 560 c 0
286 831 m 1
 280 853 263 858 252 858 c 0
 249 858 246 857 245 857 c 0
 236 855 197 834 186 767 c 0
 185 759 184 751 184 744 c 0
 184 687 223 671 236 671 c 0
 237 671 237 671 238 671 c 0
 243 672 284 688 295 755 c 0
 296 759 296 764 296 768 c 0
 296 784 292 800 288 805 c 1
 281 808 279 812 279 817 c 0
 279 818 279 819 279 820 c 0
 280 824 281 827 286 831 c 1
353 833 m 1
 363 822 366 806 366 789 c 0
 366 781 365 773 364 765 c 0
 353 698 310 642 232 631 c 0
 224 630 217 629 210 629 c 0
 148 629 115 669 115 728 c 0
 115 737 115 747 117 757 c 0
 128 827 169 879 239 896 c 0
 251 899 264 900 275 900 c 0
 323 900 352 875 357 844 c 0
 357 843 356 842 356 841 c 0
 356 838 354 836 353 833 c 1
EndSplineSet
EndChar

StartChar: AE
Encoding: 198 198 237
Width: 960
VWidth: 0
Flags: HMW
LayerCount: 3
Layer: 2
SplineSet
93 342 m 0
 100 363 129 381 156 381 c 0
 157 381 157 381 158 381 c 0
 170 380 182 380 197 380 c 1
 328 590 433 778 433 778 c 1
 444 797 470 811 494 811 c 0
 495 811 496 811 497 811 c 0
 576 807 646 806 703 806 c 0
 813 806 881 811 919 815 c 0
 921 815 924 815 926 815 c 0
 950 815 968 802 968 784 c 0
 968 783 968 782 968 781 c 2
 968 780 l 2
 965 759 937 738 910 735 c 0
 865 730 792 725 678 725 c 0
 655 725 630 726 604 726 c 1
 609 711 612 693 612 673 c 0
 612 668 611 663 611 657 c 0
 604 577 593 484 581 393 c 1
 665 398 739 404 782 410 c 0
 785 410 788 411 791 411 c 0
 814 411 832 398 832 379 c 0
 832 377 831 375 831 374 c 0
 828 353 803 334 775 330 c 0
 727 324 652 317 569 312 c 1
 558 235 548 162 539 105 c 0
 538 96 537 88 537 82 c 0
 537 62 546 56 581 56 c 0
 622 56 698 65 834 71 c 0
 835 71 835 71 836 71 c 0
 860 71 877 57 877 38 c 0
 877 37 877 35 877 33 c 2
 877 32 l 2
 873 10 843 -10 815 -11 c 0
 726 -15 644 -25 579 -25 c 0
 488 -25 431 -7 431 67 c 0
 431 75 431 85 433 95 c 0
 442 154 454 227 468 306 c 1
 394 302 318 300 253 299 c 1
 188 198 120 95 53 6 c 0
 41 -11 17 -20 -4 -20 c 0
 -10 -20 -16 -19 -21 -18 c 0
 -36 -14 -44 -1 -44 12 c 0
 -44 21 -42 27 -37 34 c 0
 23 114 85 206 145 298 c 1
 139 298 134 299 129 299 c 0
 106 300 91 313 91 331 c 0
 91 335 93 339 93 342 c 0
481 388 m 1
 495 477 509 566 515 643 c 0
 515 646 515 650 515 653 c 0
 515 679 508 698 502 712 c 1
 464 645 391 520 305 381 c 1
 360 382 421 385 481 388 c 1
EndSplineSet
Colour: ff0000
EndChar

StartChar: ae
Encoding: 230 230 238
Width: 920
VWidth: 0
Flags: HMW
LayerCount: 3
Layer: 2
SplineSet
501 337 m 1
 683 343 750 336 774 421 c 0
 776 428 778 436 779 445 c 0
 780 453 781 461 781 468 c 0
 781 529 737 552 697 552 c 0
 693 552 690 551 686 551 c 0
 634 546 535 493 501 337 c 1
491 266 m 1
 490 254 490 243 490 233 c 0
 490 89 564 53 619 53 c 0
 625 53 632 53 638 54 c 0
 674 59 713 79 741 115 c 0
 753 130 776 141 797 141 c 0
 802 141 807 140 811 139 c 0
 826 135 835 126 835 114 c 0
 835 107 833 101 828 95 c 0
 783 37 706 -7 625 -17 c 0
 614 -18 603 -19 592 -19 c 0
 506 -19 441 24 414 111 c 1
 359 37 283 -8 199 -17 c 0
 190 -18 181 -19 172 -19 c 0
 78 -19 16 37 16 121 c 0
 16 130 16 140 18 150 c 0
 20 162 21 172 25 183 c 0
 73 339 267 330 405 334 c 1
 406 347 406 359 406 370 c 0
 406 515 333 553 277 553 c 0
 271 553 264 553 259 552 c 0
 223 547 184 526 156 490 c 0
 144 475 120 464 99 464 c 0
 94 464 90 465 86 466 c 0
 70 470 61 480 61 492 c 0
 61 500 64 504 69 510 c 0
 114 568 191 612 272 622 c 0
 283 623 294 624 305 624 c 0
 391 624 456 581 483 494 c 1
 538 568 614 613 698 622 c 0
 707 623 716 624 725 624 c 0
 819 624 881 568 881 484 c 0
 881 475 881 465 879 455 c 0
 877 444 875 434 872 424 c 0
 825 267 632 270 491 266 c 1
395 263 m 1
 211 257 148 267 123 185 c 0
 121 178 118 169 117 160 c 0
 116 152 115 144 115 137 c 0
 115 76 159 53 199 53 c 0
 203 53 207 54 211 54 c 0
 262 59 360 111 395 263 c 1
EndSplineSet
Colour: ff0000
EndChar

StartChar: OE
Encoding: 338 338 239
Width: 960
VWidth: 0
Flags: HMW
LayerCount: 3
Layer: 2
SplineSet
410 386 m 0
 418 407 446 425 473 425 c 0
 474 425 474 425 475 425 c 0
 476 425 l 1
 486 501 495 577 500 643 c 0
 500 646 500 650 500 653 c 0
 500 686 488 713 484 717 c 0
 482 718 481 720 479 721 c 0
 461 735 440 742 416 742 c 0
 386 742 352 730 318 705 c 0
 259 661 192 565 165 396 c 0
 159 359 156 325 156 295 c 0
 156 121 244 59 303 59 c 0
 305 59 306 59 308 59 c 0
 352 62 392 80 434 133 c 1
 444 194 455 267 465 342 c 1
 459 342 452 343 446 343 c 0
 423 344 408 357 408 374 c 0
 408 378 408 382 410 386 c 0
872 32 m 2
 868 10 838 -10 810 -11 c 0
 721 -15 639 -25 574 -25 c 0
 499 -25 447 -13 431 33 c 1
 390 2 344 -18 296 -22 c 0
 288 -23 280 -23 272 -23 c 0
 135 -23 50 90 50 275 c 0
 50 310 53 347 59 386 c 0
 88 566 159 686 253 756 c 0
 313 801 378 821 436 821 c 0
 461 821 483 818 504 811 c 0
 506 811 508 811 510 811 c 0
 511 811 511 811 512 811 c 0
 595 807 664 806 719 806 c 0
 818 806 876 810 914 815 c 0
 916 815 919 815 921 815 c 0
 945 815 963 802 963 784 c 0
 963 783 963 782 963 781 c 2
 963 780 l 2
 960 759 932 738 905 735 c 0
 866 731 811 728 725 728 c 0
 688 728 647 729 598 730 c 1
 604 714 607 696 607 676 c 0
 607 670 606 663 606 657 c 0
 600 586 591 505 580 424 c 1
 664 426 744 433 797 440 c 0
 800 440 803 441 806 441 c 0
 829 441 846 428 846 409 c 0
 846 407 846 406 846 404 c 0
 843 383 818 364 790 360 c 0
 735 353 654 346 569 343 c 1
 557 254 544 170 534 105 c 0
 533 96 532 88 532 82 c 0
 532 62 541 56 576 56 c 0
 617 56 693 65 829 71 c 0
 830 71 830 71 831 71 c 0
 855 71 872 57 872 38 c 0
 872 37 872 35 872 33 c 2
 872 32 l 2
EndSplineSet
Colour: ff0000
EndChar

StartChar: oe
Encoding: 339 339 240
Width: 920
VWidth: 0
Flags: HMW
LayerCount: 3
Layer: 2
SplineSet
501 337 m 1
 683 343 750 336 774 421 c 0
 776 428 778 436 779 445 c 0
 780 453 781 461 781 468 c 0
 781 529 737 552 697 552 c 0
 693 552 690 551 686 551 c 0
 634 546 535 493 501 337 c 1
491 266 m 1
 490 254 490 243 490 233 c 0
 490 89 564 53 619 53 c 0
 625 53 632 53 638 54 c 0
 674 59 713 79 741 115 c 0
 753 130 776 141 797 141 c 0
 802 141 807 140 811 139 c 0
 826 135 835 126 835 114 c 0
 835 107 833 101 828 95 c 0
 783 37 706 -7 625 -17 c 0
 614 -18 603 -19 592 -19 c 0
 509 -19 446 21 417 101 c 1
 373 33 311 -11 233 -19 c 0
 225 -20 217 -20 209 -20 c 0
 96 -20 30 69 30 209 c 0
 30 234 33 262 37 290 c 0
 66 470 160 586 287 617 c 0
 307 622 325 624 343 624 c 0
 424 624 478 575 493 508 c 1
 546 573 620 614 698 622 c 0
 707 623 716 624 725 624 c 0
 819 624 881 568 881 484 c 0
 881 475 881 465 879 455 c 0
 877 444 875 434 872 424 c 0
 825 267 632 270 491 266 c 1
406 295 m 0
 406 297 406 299 406 301 c 0
 415 355 430 403 452 445 c 1
 448 444 444 444 440 444 c 0
 420 444 404 454 402 468 c 0
 394 530 350 551 315 551 c 0
 308 551 302 550 296 549 c 0
 253 539 165 476 137 300 c 0
 133 273 131 249 131 227 c 0
 131 94 201 52 240 52 c 0
 242 52 243 52 244 52 c 0
 284 56 374 111 402 285 c 0
 402 288 405 292 406 295 c 0
EndSplineSet
Colour: ff0000
EndChar

StartChar: perthousand
Encoding: 8240 8240 241
Width: 810
VWidth: 0
Flags: HMW
LayerCount: 3
Layer: 2
SplineSet
322 754 m 0
 336 735 341 710 341 683 c 0
 341 671 340 659 338 646 c 0
 333 614 326 587 315 563 c 0
 290 508 239 457 168 457 c 0
 96 457 61 510 61 584 c 0
 61 598 63 613 65 628 c 0
 70 659 77 685 88 708 c 0
 114 766 167 816 239 816 c 0
 282 816 308 796 323 772 c 0
 325 770 326 766 326 763 c 0
 326 762 326 762 326 761 c 0
 326 759 323 756 322 754 c 0
241 748 m 0
 230 761 217 764 215 764 c 2
 215 764 190 763 165 708 c 0
 157 689 149 666 145 638 c 0
 143 626 142 615 142 605 c 0
 142 535 183 509 193 509 c 1
 193 509 212 509 237 563 c 0
 246 582 254 606 259 636 c 0
 260 645 261 654 261 663 c 0
 261 691 254 716 243 727 c 0
 240 729 239 733 239 737 c 0
 239 738 239 740 239 741 c 0
 239 743 240 746 241 748 c 0
421 285 m 0
 410 298 397 301 395 301 c 2
 395 301 370 300 345 245 c 0
 337 226 329 203 325 175 c 0
 323 163 322 151 322 141 c 0
 322 71 362 46 372 46 c 1
 372 46 392 46 417 100 c 0
 426 119 433 143 438 173 c 0
 440 183 440 192 440 202 c 0
 440 229 434 254 423 264 c 0
 420 266 419 270 419 274 c 0
 419 275 419 277 419 278 c 0
 419 280 420 283 421 285 c 0
574 790 m 0
 589 788 597 781 597 772 c 0
 597 771 597 770 597 769 c 0
 597 766 594 763 592 760 c 0
 446 557 169 196 41 30 c 0
 32 18 11 9 -7 9 c 0
 -10 9 -11 10 -14 10 c 0
 -27 12 -34 19 -34 27 c 0
 -34 28 -34 29 -34 30 c 0
 -34 33 -33 36 -30 40 c 0
 98 206 374 569 520 770 c 0
 529 783 550 790 568 790 c 0
 570 790 572 790 574 790 c 0
727 291 m 0
 741 272 746 247 746 220 c 0
 746 208 745 196 743 183 c 0
 738 151 731 124 720 100 c 0
 695 45 644 -6 573 -6 c 0
 521 -6 488 22 474 65 c 1
 446 25 403 -6 348 -6 c 0
 276 -6 241 47 241 121 c 0
 241 135 243 150 245 165 c 0
 250 196 257 222 268 245 c 0
 294 303 347 353 419 353 c 0
 462 353 488 333 503 309 c 0
 504 307 505 304 505 301 c 0
 505 300 505 299 505 298 c 0
 505 296 503 293 502 291 c 0
 505 286 509 282 511 277 c 1
 540 320 585 353 644 353 c 0
 687 353 713 333 728 309 c 0
 729 307 730 304 730 301 c 0
 730 300 730 299 730 298 c 0
 730 296 728 293 727 291 c 0
646 285 m 0
 635 298 622 301 620 301 c 2
 620 301 595 300 570 245 c 0
 562 226 554 203 550 175 c 0
 548 163 547 151 547 141 c 0
 547 71 587 46 597 46 c 1
 597 46 617 46 642 100 c 0
 651 119 658 143 663 173 c 0
 665 183 665 192 665 202 c 0
 665 229 659 254 648 264 c 0
 645 266 644 270 644 274 c 0
 644 275 644 277 644 278 c 0
 644 280 645 283 646 285 c 0
EndSplineSet
Colour: ff00
EndChar

StartChar: uni00AD
Encoding: 173 173 242
Width: 540
VWidth: 0
Flags: HMW
LayerCount: 3
Layer: 2
SplineSet
453 342 m 0
 448 323 421 305 394 304 c 0
 353 302 314 301 277 301 c 0
 210 301 151 304 104 310 c 0
 85 312 75 322 75 335 c 0
 75 337 75 338 75 340 c 0
 75 343 75 347 78 350 c 0
 88 367 114 380 138 380 c 0
 140 380 143 380 145 380 c 0
 184 376 237 373 297 373 c 0
 333 373 373 374 414 376 c 0
 415 376 415 376 416 376 c 0
 439 376 454 364 454 349 c 0
 454 346 453 344 453 342 c 0
EndSplineSet
Colour: ff
EndChar

StartChar: uni02C9
Encoding: 713 713 243
Width: 420
VWidth: 0
Flags: HMW
LayerCount: 3
Layer: 2
SplineSet
467 801 m 0
 462 784 441 771 419 770 c 0
 368 768 324 767 286 767 c 0
 220 767 170 770 114 775 c 0
 97 777 87 787 87 799 c 0
 87 803 87 806 89 809 c 0
 97 825 117 835 136 835 c 0
 138 835 139 835 141 835 c 0
 194 830 242 827 305 827 c 0
 341 827 383 828 434 830 c 0
 435 830 435 830 436 830 c 0
 455 830 467 820 467 807 c 0
 467 805 467 803 467 801 c 0
EndSplineSet
Colour: ff
EndChar

StartChar: pi
Encoding: 960 960 244
Width: 720
VWidth: 0
Flags: HMW
LayerCount: 3
Layer: 2
SplineSet
605 3 m 0
 593 -12 570 -23 549 -23 c 0
 544 -23 540 -22 536 -21 c 0
 484 -8 417 25 417 119 c 0
 417 127 418 136 419 145 c 0
 430 239 436 283 442 319 c 0
 450 369 458 403 480 531 c 1
 441 530 404 529 377 529 c 0
 348 529 321 530 290 531 c 1
 291 527 291 522 291 517 c 0
 291 508 290 498 288 488 c 0
 287 483 287 479 286 474 c 0
 263 362 240 260 178 23 c 0
 173 4 145 -15 118 -16 c 0
 117 -16 116 -16 115 -16 c 0
 93 -16 78 -5 78 10 c 0
 78 13 79 15 79 17 c 0
 141 254 165 356 187 466 c 0
 187 469 188 472 188 475 c 0
 189 484 190 490 190 496 c 0
 190 516 183 519 183 519 c 1
 152 527 104 527 79 548 c 1
 79 548 61 562 63 577 c 0
 65 589 78 601 120 609 c 0
 128 611 140 611 154 611 c 0
 209 611 304 601 402 601 c 0
 465 601 606 608 671 611 c 0
 672 611 672 611 673 611 c 0
 696 611 711 599 711 584 c 0
 711 581 710 579 710 577 c 0
 705 558 678 540 651 539 c 0
 632 538 607 537 579 536 c 1
 557 410 549 377 541 329 c 0
 535 294 530 251 519 157 c 0
 518 148 517 139 517 132 c 0
 517 67 557 54 588 47 c 0
 604 43 613 33 613 21 c 0
 613 13 610 9 605 3 c 0
EndSplineSet
Colour: ff
EndChar

StartChar: uni2113
Encoding: 8467 8467 245
Width: 480
VWidth: 0
Flags: HMW
LayerCount: 3
Layer: 2
SplineSet
392 800 m 0
 381 800 335 775 298 674 c 0
 265 585 238 464 217 357 c 1
 230 376 241 395 253 413 c 0
 342 548 405 668 417 741 c 0
 418 749 419 757 419 763 c 0
 419 795 404 800 392 800 c 0
110 205 m 1
 129 327 164 537 211 676 c 0
 241 759 294 870 413 870 c 0
 480 870 501 824 501 777 c 0
 501 768 500 758 499 749 c 0
 485 658 410 534 320 397 c 0
 280 337 236 271 190 207 c 1
 189 198 188 188 188 179 c 0
 188 147 194 115 203 91 c 0
 213 62 227 49 248 49 c 0
 257 49 267 52 280 56 c 0
 289 59 301 64 315 72 c 0
 325 78 337 81 348 81 c 0
 361 81 373 76 380 68 c 0
 383 63 385 59 385 53 c 0
 385 52 385 50 385 49 c 0
 383 38 373 26 359 18 c 0
 339 8 320 -1 302 -7 c 0
 274 -17 252 -21 231 -21 c 0
 168 -21 134 18 120 59 c 0
 116 73 114 87 111 102 c 1
 92 78 72 54 54 33 c 0
 44 22 27 14 12 14 c 0
 7 14 3 15 -2 17 c 0
 -11 21 -15 27 -15 35 c 0
 -15 36 -15 37 -15 38 c 0
 -14 44 -11 51 -5 57 c 0
 32 99 70 150 110 205 c 1
EndSplineSet
Colour: ff
EndChar

StartChar: estimated
Encoding: 8494 8494 246
Width: 1080
VWidth: 0
Flags: HMW
LayerCount: 3
Layer: 2
SplineSet
236 384 m 2
 236 170 l 2
 236 124 357 14 540 14 c 0
 663 14 777 75 845 153 c 1
 935 153 l 1
 876 87 820 42 755 16 c 0
 688 -11 641 -20 540 -20 c 0
 386 -20 281 19 192 102 c 0
 103 187 59 291 59 420 c 0
 59 549 105 653 194 738 c 0
 282 821 385 860 540 860 c 0
 682 860 781 826 873 751 c 0
 965 677 1015 553 1021 406 c 1
 256 406 l 2
 245 406 236 406 236 384 c 2
843 456 m 2
 843 666 l 2
 843 736 676 828 539 828 c 0
 367 828 236 713 236 676 c 2
 236 446 l 2
 236 439 242 434 256 434 c 2
 822 434 l 2
 840 434 843 439 843 456 c 2
EndSplineSet
Colour: ff
EndChar

StartChar: partialdiff
Encoding: 8706 8706 247
Width: 660
VWidth: 0
Flags: HMW
LayerCount: 3
Layer: 2
SplineSet
269 787 m 0
 266 791 264 797 264 802 c 0
 264 803 264 804 264 805 c 0
 266 817 277 829 293 837 c 0
 340 861 385 875 429 875 c 0
 484 875 521 853 546 825 c 0
 591 774 608 693 608 602 c 0
 608 556 604 508 596 459 c 0
 584 384 565 309 537 241 c 0
 476 88 356 -9 227 -9 c 0
 104 -9 26 78 26 206 c 0
 26 223 27 242 30 261 c 0
 35 293 44 327 58 363 c 0
 126 531 241 628 366 628 c 0
 434 628 484 597 510 550 c 1
 510 555 510 559 510 564 c 0
 510 658 491 738 456 777 c 0
 438 797 420 803 403 803 c 0
 389 803 368 799 336 783 c 0
 325 777 313 774 302 774 c 0
 288 774 276 779 269 787 c 0
130 271 m 0
 127 254 126 239 126 224 c 0
 126 114 197 63 252 63 c 0
 297 63 386 98 444 243 c 0
 464 292 481 348 493 405 c 1
 490 404 488 404 485 404 c 0
 466 404 449 413 449 430 c 0
 449 437 450 444 450 450 c 0
 450 520 397 556 341 556 c 0
 306 556 221 525 156 361 c 0
 143 329 134 299 130 271 c 0
EndSplineSet
Colour: ff
EndChar

StartChar: uni2206
Encoding: 8710 8710 248
Width: 720
VWidth: 0
Flags: HMW
LayerCount: 3
Layer: 2
SplineSet
590 81 m 1
 601 75 608 64 608 52 c 0
 608 51 608 51 608 50 c 0
 608 49 l 0
 605 28 579 8 553 5 c 0
 548 4 541 4 535 3 c 0
 526 2 516 2 506 1 c 0
 452 -3 344 -13 242 -13 c 0
 121 -13 9 1 9 56 c 0
 9 58 10 61 10 63 c 0
 24 151 224 553 390 789 c 0
 390 789 421 821 446 821 c 0
 458 821 469 813 473 789 c 0
 473 789 473 786 474 781 c 0
 484 724 555 359 607 120 c 0
 607 118 608 117 608 115 c 0
 608 113 607 111 607 109 c 0
 605 99 599 89 590 81 c 1
511 81 m 1
 509 84 507 87 506 90 c 0
 468 267 426 518 400 660 c 1
 275 455 141 171 115 86 c 1
 149 78 223 75 305 75 c 0
 377 75 453 77 511 81 c 1
EndSplineSet
Colour: ff
EndChar

StartChar: product
Encoding: 8719 8719 249
Width: 820
VWidth: 0
Flags: HMW
LayerCount: 3
Layer: 2
SplineSet
158 729 m 1
 138 732 127 744 127 760 c 0
 127 762 127 763 127 765 c 0
 127 768 128 770 129 773 c 0
 138 794 169 811 197 811 c 0
 198 811 198 811 199 811 c 0
 278 807 382 805 485 805 c 0
 588 805 691 807 772 811 c 0
 773 811 774 811 775 811 c 0
 800 811 817 798 817 780 c 0
 817 777 816 775 816 773 c 0
 811 756 793 739 770 732 c 1
 729 468 705 310 665 36 c 0
 662 14 633 -7 603 -10 c 0
 600 -10 597 -10 595 -10 c 0
 571 -10 555 2 555 20 c 0
 555 289 621 469 661 726 c 1
 597 724 527 723 457 723 c 0
 392 723 328 723 268 725 c 1
 259 626 240 500 219 369 c 0
 201 255 182 137 164 30 c 0
 161 8 133 -12 103 -15 c 0
 101 -15 98 -15 96 -15 c 0
 71 -15 54 -2 54 16 c 0
 54 122 92 248 110 359 c 0
 132 498 150 630 158 729 c 1
EndSplineSet
Colour: ff
EndChar

StartChar: summation
Encoding: 8721 8721 250
Width: 720
VWidth: 0
Flags: HMW
LayerCount: 3
Layer: 2
SplineSet
708 763 m 0
 704 741 674 721 644 719 c 0
 553 714 485 711 419 711 c 0
 375 711 331 712 283 714 c 1
 467 444 l 0
 470 439 471 436 471 431 c 0
 471 430 471 428 471 426 c 0
 469 416 463 405 454 398 c 0
 313 281 164 139 127 84 c 1
 159 76 225 73 299 73 c 0
 393 73 499 78 573 85 c 0
 575 85 578 85 580 85 c 0
 605 85 622 72 622 54 c 0
 622 28 592 8 561 5 c 0
 497 -1 367 -14 249 -14 c 0
 123 -14 10 1 10 55 c 0
 10 57 11 60 11 62 c 0
 23 137 197 284 355 418 c 1
 144 731 l 0
 137 741 135 750 135 757 c 0
 135 758 135 760 135 761 c 0
 140 795 212 796 212 796 c 0
 290 792 347 790 400 790 c 0
 478 790 547 794 663 801 c 0
 665 801 667 801 668 801 c 0
 693 801 708 787 708 769 c 0
 708 767 708 766 708 764 c 0
 708 763 l 0
EndSplineSet
Colour: ff
EndChar

StartChar: uni2215
Encoding: 8725 8725 251
Width: 480
VWidth: 0
Flags: HMW
LayerCount: 3
Layer: 2
SplineSet
480 828 m 256
 496 827 506 818 506 807 c 0
 506 803 506 800 504 797 c 256
 369 520 225 259 56 -6 c 256
 48 -19 27 -29 9 -29 c 256
 7 -29 5 -28 3 -28 c 256
 -11 -26 -19 -18 -19 -7 c 0
 -19 -2 -17 2 -16 6 c 256
 151 269 294 528 429 803 c 256
 436 818 457 828 477 828 c 256
 478 828 479 828 480 828 c 256
EndSplineSet
Colour: ff
EndChar

StartChar: uni2219
Encoding: 8729 8729 252
Width: 720
VWidth: 0
Flags: HMW
LayerCount: 3
Layer: 2
SplineSet
390 464 m 0
 395 465 401 466 406 466 c 0
 414 466 420 464 426 462 c 0
 473 442 486 407 486 371 c 0
 486 362 485 354 484 345 c 0
 475 290 412 242 342 235 c 0
 336 234 331 234 325 234 c 0
 264 234 224 272 224 323 c 0
 224 329 224 334 225 340 c 0
 231 379 256 435 329 458 c 0
 339 461 350 464 361 465 c 0
 366 465 371 466 376 466 c 0
 381 466 385 465 390 464 c 0
EndSplineSet
Colour: ff
EndChar

StartChar: radical
Encoding: 8730 8730 253
Width: 600
VWidth: 0
Flags: HMW
LayerCount: 3
Layer: 2
SplineSet
772 899 m 0
 736 895 704 895 668 895 c 0
 653 895 638 895 622 895 c 1
 488 606 332 287 185 15 c 0
 185 15 156 -8 136 -8 c 0
 127 -8 120 -3 118 11 c 0
 109 92 79 236 42 279 c 0
 39 283 38 287 38 291 c 0
 38 292 38 294 38 295 c 0
 40 305 47 315 58 322 c 0
 67 327 77 330 87 330 c 0
 97 330 107 327 113 321 c 0
 148 281 163 200 176 131 c 1
 307 382 441 675 558 929 c 0
 564 942 584 955 605 955 c 0
 685 956 731 954 782 959 c 0
 784 959 785 959 787 959 c 0
 806 959 818 949 818 936 c 0
 818 917 794 901 772 899 c 0
EndSplineSet
Colour: ff
EndChar

StartChar: infinity
Encoding: 8734 8734 254
Width: 1020
VWidth: 0
Flags: HMW
LayerCount: 3
Layer: 2
SplineSet
792 535 m 1
 790 535 788 534 786 534 c 0
 732 531 644 520 584 422 c 0
 576 408 566 394 558 380 c 1
 576 259 642 229 695 229 c 0
 706 229 718 230 727 232 c 0
 777 243 837 292 847 355 c 0
 848 364 849 374 849 382 c 0
 849 437 821 473 792 494 c 0
 785 499 783 505 783 512 c 0
 783 513 783 515 783 516 c 0
 784 522 787 529 792 535 c 1
533 472 m 1
 617 578 735 601 803 606 c 0
 805 606 807 606 808 606 c 0
 830 606 844 595 844 580 c 0
 844 578 844 576 844 573 c 0
 842 567 839 561 834 556 c 1
 838 557 841 557 845 557 c 0
 856 557 866 555 873 550 c 0
 914 521 950 472 950 401 c 0
 950 390 949 377 947 365 c 0
 933 276 846 192 737 165 c 0
 714 159 694 157 673 157 c 0
 591 157 527 201 496 288 c 1
 489 279 480 270 472 261 c 0
 423 207 355 159 261 159 c 0
 153 159 67 226 67 336 c 0
 67 348 68 359 70 372 c 0
 89 490 188 582 314 595 c 0
 323 596 333 596 342 596 c 0
 429 596 497 553 533 472 c 1
170 382 m 0
 168 372 168 363 168 354 c 0
 168 269 237 231 287 231 c 0
 334 231 366 245 405 287 c 0
 428 312 451 345 474 381 c 1
 450 490 369 526 314 526 c 0
 310 526 306 525 302 525 c 0
 254 520 186 480 170 382 c 0
EndSplineSet
Colour: ff
EndChar

StartChar: integral
Encoding: 8747 8747 255
Width: 420
VWidth: 0
Flags: HMW
LayerCount: 3
Layer: 2
SplineSet
-68 -224 m 0
 -69 -221 -69 -219 -69 -216 c 0
 -66 -200 -48 -184 -25 -177 c 0
 4 -169 64 -135 77 -117 c 1
 99 -88 113 -50 120 -5 c 0
 162 260 157 504 166 697 c 1
 166 703 167 710 168 716 c 0
 177 772 212 825 272 855 c 0
 299 869 328 876 355 876 c 0
 400 876 440 856 467 823 c 0
 470 819 471 814 471 809 c 0
 471 808 471 806 471 805 c 0
 469 793 459 781 443 773 c 0
 432 767 420 764 409 764 c 0
 395 764 383 769 376 777 c 0
 358 799 343 804 332 804 c 0
 324 804 319 802 316 800 c 0
 301 792 274 766 268 727 c 0
 267 722 267 718 267 713 c 1
 259 522 263 276 220 5 c 0
 212 -44 198 -92 164 -137 c 1
 126 -187 46 -227 -11 -243 c 0
 -17 -245 -25 -246 -31 -246 c 0
 -50 -246 -65 -238 -68 -224 c 0
EndSplineSet
Colour: ff
EndChar

StartChar: approxequal
Encoding: 8776 8776 256
Width: 600
VWidth: 0
Flags: HMW
LayerCount: 3
Layer: 2
SplineSet
534 505 m 0
 551 503 560 494 560 483 c 0
 560 478 558 475 557 471 c 0
 541 444 484 369 387 369 c 0
 331 369 302 398 278 417 c 1
 251 440 231 451 208 451 c 0
 193 451 166 431 146 401 c 0
 136 387 113 377 92 377 c 0
 89 377 87 377 84 377 c 0
 68 379 59 388 59 399 c 0
 59 405 60 409 63 413 c 0
 80 437 133 513 232 513 c 0
 289 513 319 482 343 463 c 1
 369 442 389 431 411 431 c 0
 426 431 458 452 474 479 c 0
 483 495 507 505 529 505 c 0
 531 505 532 505 534 505 c 0
502 304 m 0
 519 302 528 293 528 282 c 0
 528 277 526 274 525 270 c 0
 509 243 453 168 356 168 c 0
 300 168 270 197 246 216 c 1
 219 239 200 250 177 250 c 0
 162 250 134 230 114 200 c 0
 104 186 81 176 60 176 c 0
 57 176 55 176 52 176 c 0
 36 178 27 187 27 198 c 0
 27 204 29 207 32 212 c 0
 49 236 101 312 200 312 c 0
 257 312 287 281 311 262 c 1
 337 241 357 230 379 230 c 0
 394 230 426 251 442 278 c 0
 451 294 475 304 497 304 c 0
 499 304 500 304 502 304 c 0
EndSplineSet
Colour: ff
EndChar

StartChar: notequal
Encoding: 8800 8800 257
Width: 600
VWidth: 0
Flags: HMW
LayerCount: 3
Layer: 2
SplineSet
495 580 m 0
 505 578 509 572 509 565 c 0
 509 564 509 564 509 563 c 0
 509 560 507 557 505 554 c 0
 488 533 465 505 440 474 c 1
 458 474 476 475 495 476 c 2
 497 476 l 2
 519 476 535 465 535 450 c 0
 535 449 535 447 535 446 c 2
 534 442 l 2
 528 423 501 405 474 404 c 0
 442 403 411 401 381 401 c 1
 346 359 310 315 274 273 c 1
 289 273 304 273 320 273 c 0
 365 273 414 274 464 276 c 2
 466 276 l 2
 488 276 503 265 503 250 c 0
 503 249 503 247 503 246 c 2
 502 242 l 2
 496 223 469 205 442 204 c 0
 390 202 341 201 294 201 c 0
 266 201 240 201 214 202 c 1
 182 165 154 134 133 112 c 0
 126 104 113 100 101 100 c 0
 97 100 94 100 91 101 c 0
 83 104 80 108 80 114 c 0
 80 115 80 116 80 117 c 0
 81 121 82 125 85 128 c 0
 103 147 126 173 153 204 c 1
 128 205 106 207 85 209 c 0
 65 211 53 221 53 235 c 0
 53 241 54 244 56 249 c 0
 66 267 93 281 118 281 c 2
 123 281 l 2
 150 278 180 276 214 275 c 1
 248 316 284 359 319 401 c 1
 242 401 172 404 117 409 c 0
 97 411 85 421 85 435 c 0
 85 441 86 444 88 449 c 0
 98 467 124 481 149 481 c 2
 154 481 l 1
 206 476 274 473 352 473 c 0
 360 473 368 473 377 473 c 1
 407 509 433 542 453 566 c 0
 460 575 474 581 487 581 c 0
 490 581 492 581 495 580 c 0
EndSplineSet
Colour: ff
EndChar

StartChar: lessequal
Encoding: 8804 8804 258
Width: 600
VWidth: 0
Flags: HMW
LayerCount: 3
Layer: 2
SplineSet
484 127 m 0
 478 108 451 90 424 89 c 0
 372 87 323 86 276 86 c 0
 196 86 124 89 67 94 c 0
 47 96 35 106 35 120 c 0
 35 126 36 129 38 134 c 0
 48 152 74 166 99 166 c 0
 101 166 102 166 104 166 c 0
 156 161 224 158 302 158 c 0
 347 158 396 159 446 161 c 0
 447 161 447 161 448 161 c 0
 470 161 485 150 485 135 c 0
 485 132 484 129 484 127 c 0
502 286 m 0
 490 272 468 264 449 264 c 0
 443 264 437 265 431 267 c 0
 351 296 218 359 110 409 c 0
 110 409 84 421 84 437 c 0
 84 450 98 461 135 472 c 0
 247 507 385 570 481 610 c 0
 491 614 501 616 510 616 c 0
 526 616 540 610 545 600 c 0
 546 597 547 594 547 590 c 0
 547 589 547 587 547 586 c 0
 545 572 532 558 513 550 c 0
 443 521 332 477 233 440 c 1
 323 398 436 354 494 333 c 0
 506 329 512 319 512 309 c 0
 512 308 512 307 512 305 c 0
 511 299 508 292 502 286 c 0
EndSplineSet
Colour: ff
EndChar

StartChar: greaterequal
Encoding: 8805 8805 259
Width: 600
VWidth: 0
Flags: HMW
LayerCount: 3
Layer: 2
SplineSet
484 127 m 0
 478 108 451 90 424 89 c 0
 372 87 323 86 276 86 c 0
 196 86 124 89 67 94 c 0
 47 96 35 106 35 120 c 0
 35 126 36 129 38 134 c 0
 48 152 74 166 99 166 c 0
 101 166 102 166 104 166 c 0
 156 161 224 158 302 158 c 0
 347 158 396 159 446 161 c 0
 447 161 447 161 448 161 c 0
 470 161 485 150 485 135 c 0
 485 132 484 129 484 127 c 0
117 594 m 0
 129 608 152 616 171 616 c 0
 177 616 182 615 188 613 c 0
 268 584 402 521 510 471 c 0
 510 471 536 459 536 443 c 0
 536 430 522 419 485 408 c 0
 373 373 235 310 139 270 c 0
 129 266 119 264 110 264 c 0
 94 264 79 270 74 280 c 0
 73 282 72 285 72 288 c 0
 72 290 73 292 73 294 c 0
 75 308 87 322 106 330 c 0
 176 359 288 403 387 440 c 1
 297 482 184 526 126 547 c 0
 114 551 107 561 107 571 c 0
 107 572 107 574 107 575 c 0
 108 581 111 588 117 594 c 0
EndSplineSet
Colour: ff
EndChar

StartChar: lozenge
Encoding: 9674 9674 260
Width: 720
VWidth: 0
Flags: HMW
LayerCount: 3
Layer: 2
SplineSet
640 443 m 1
 645 438 646 432 646 425 c 0
 646 423 646 421 646 419 c 0
 645 414 644 410 641 406 c 0
 551 273 460 160 324 3 c 0
 313 -10 304 -15 297 -15 c 0
 282 -15 276 4 276 4 c 0
 201 163 87 357 87 415 c 0
 87 417 87 418 87 420 c 0
 97 482 292 696 412 828 c 0
 423 840 433 844 440 844 c 0
 455 844 461 826 461 826 c 0
 461 826 573 595 639 465 c 0
 640 461 641 457 641 452 c 0
 641 450 641 449 641 447 c 0
 641 446 640 444 640 443 c 1
586 426 m 0
 584 428 584 429 583 431 c 0
 533 530 457 687 423 757 c 1
 314 635 171 464 148 421 c 1
 160 381 246 214 313 74 c 1
 428 208 506 309 586 426 c 0
EndSplineSet
Colour: ff
EndChar

